Jost-Black.ufo
<glyph name="exclam" format="2">
  <advance width="370"/>
  <unicode hex="0021"/>
  <outline>
    <contour>
      <point x="65" y="700" type="line"/>
      <point x="305" y="700" type="line"/>
      <point x="265" y="250" type="line"/>
      <point x="105" y="250" type="line"/>
    </contour>
    <contour>
      <point x="67" y="75" type="curve" smooth="yes"/>
      <point x="67" y="138"/>
      <point x="115" y="180"/>
      <point x="185" y="180" type="curve" smooth="yes"/>
      <point x="255" y="180"/>
      <point x="303" y="138"/>
      <point x="303" y="75" type="curve" smooth="yes"/>
      <point x="303" y="12"/>
      <point x="255" y="-30"/>
      <point x="185" y="-30" type="curve" smooth="yes"/>
      <point x="115" y="-30"/>
      <point x="67" y="12"/>
    </contour>
  </outline>
</glyph>
<glyph name="numbersign" format="2">
  <advance width="705"/>
  <unicode hex="0023"/>
  <outline>
    <contour>
      <point x="75" y="395" type="line"/>
      <point x="75" y="550" type="line"/>
      <point x="670" y="550" type="line"/>
      <point x="670" y="395" type="line"/>
      <point x="506" y="395" type="line" smooth="yes"/>
      <point x="468" y="405" type="line" smooth="yes"/>
      <point x="256" y="405" type="line" smooth="yes"/>
      <point x="222" y="395" type="line" smooth="yes"/>
    </contour>
    <contour>
      <point x="35" y="155" type="line"/>
      <point x="35" y="310" type="line"/>
      <point x="182" y="310" type="line" smooth="yes"/>
      <point x="224" y="300" type="line" smooth="yes"/>
      <point x="472" y="300" type="line" smooth="yes"/>
      <point x="508" y="310" type="line" smooth="yes"/>
      <point x="630" y="310" type="line"/>
      <point x="630" y="155" type="line"/>
    </contour>
    <contour>
      <point x="485" y="700" type="line"/>
      <point x="650" y="700" type="line"/>
      <point x="480" y="0" type="line"/>
      <point x="315" y="0" type="line"/>
      <point x="369" y="222" type="line" smooth="yes"/>
      <point x="386" y="252" type="line" smooth="yes"/>
      <point x="435" y="452" type="line" smooth="yes"/>
      <point x="434" y="492" type="line" smooth="yes"/>
    </contour>
    <contour>
      <point x="225" y="700" type="line"/>
      <point x="390" y="700" type="line"/>
      <point x="339" y="492" type="line" smooth="yes"/>
      <point x="319" y="450" type="line" smooth="yes"/>
      <point x="272" y="256" type="line" smooth="yes"/>
      <point x="275" y="226" type="line" smooth="yes"/>
      <point x="220" y="0" type="line"/>
      <point x="55" y="0" type="line"/>
    </contour>
  </outline>
</glyph>
<glyph name="quotesingle" format="2">
  <advance width="320"/>
  <unicode hex="0027"/>
  <outline>
    <contour>
      <point x="90" y="700" type="line"/>
      <point x="290" y="700" type="line"/>
      <point x="175" y="370" type="line"/>
      <point x="50" y="370" type="line"/>
    </contour>
  </outline>
</glyph>
<glyph name="asterisk" format="2">
  <advance width="592"/>
  <unicode hex="002A"/>
  <outline>
    <contour>
      <point x="515" y="606" type="line"/>
      <point x="571" y="435" type="line"/>
      <point x="310" y="397" type="line"/>
      <point x="282" y="483" type="line"/>
    </contour>
    <contour>
      <point x="522" y="283" type="line"/>
      <point x="376" y="177" type="line"/>
      <point x="260" y="414" type="line"/>
      <point x="332" y="466" type="line"/>
    </contour>
    <contour>
      <point x="216" y="177" type="line"/>
      <point x="70" y="283" type="line"/>
      <point x="260" y="466" type="line"/>
      <point x="332" y="414" type="line"/>
    </contour>
    <contour>
      <point x="21" y="435" type="line"/>
      <point x="77" y="606" type="line"/>
      <point x="310" y="483" type="line"/>
      <point x="282" y="397" type="line"/>
    </contour>
    <contour>
      <point x="206" y="700" type="line"/>
      <point x="386" y="700" type="line"/>
      <point x="341" y="440" type="line"/>
      <point x="251" y="440" type="line"/>
    </contour>
  </outline>
</glyph>
<glyph name="period" format="2">
  <advance width="336"/>
  <unicode hex="002E"/>
  <outline>
    <contour>
      <point x="50" y="85" type="curve" smooth="yes"/>
      <point x="50" y="148"/>
      <point x="98" y="200"/>
      <point x="168" y="200" type="curve" smooth="yes"/>
      <point x="238" y="200"/>
      <point x="286" y="148"/>
      <point x="286" y="85" type="curve" smooth="yes"/>
      <point x="286" y="22"/>
      <point x="238" y="-30"/>
      <point x="168" y="-30" type="curve" smooth="yes"/>
      <point x="98" y="-30"/>
      <point x="50" y="22"/>
    </contour>
  </outline>
</glyph>
<glyph name="zero" format="2">
  <advance width="700"/>
  <unicode hex="0030"/>
  <outline>
    <contour>
      <point x="250" y="350" type="curve" smooth="yes"/>
      <point x="250" y="237"/>
      <point x="292" y="170"/>
      <point x="350" y="170" type="curve" smooth="yes"/>
      <point x="408" y="170"/>
      <point x="450" y="237"/>
      <point x="450" y="350" type="curve" smooth="yes"/>
      <point x="450" y="463"/>
      <point x="408" y="530"/>
      <point x="350" y="530" type="curve" smooth="yes"/>
      <point x="292" y="530"/>
      <point x="250" y="463"/>
    </contour>
    <contour>
      <point x="40" y="350" type="curve" smooth="yes"/>
      <point x="40" y="589"/>
      <point x="166" y="715"/>
      <point x="350" y="715" type="curve" smooth="yes"/>
      <point x="544" y="715"/>
      <point x="660" y="589"/>
      <point x="660" y="350" type="curve" smooth="yes"/>
      <point x="660" y="111"/>
      <point x="544" y="-15"/>
      <point x="350" y="-15" type="curve" smooth="yes"/>
      <point x="166" y="-15"/>
      <point x="40" y="111"/>
    </contour>
  </outline>
</glyph>
<glyph name="four" format="1">
  <advance width="768"/>
  <unicode hex="0034"/>
  <outline>
    <contour>
      <point x="10" y="115" type="line"/>
      <point x="428" y="700" type="line"/>
      <point x="608" y="700" type="line"/>
      <point x="608" y="0" type="line"/>
      <point x="378" y="0" type="line"/>
      <point x="378" y="176" type="line"/>
      <point x="408" y="187" type="line"/>
      <point x="408" y="421" type="line"/>
      <point x="285.135" y="265" type="line"/>
      <point x="558" y="265" type="line"/>
      <point x="575" y="300" type="line"/>
      <point x="718" y="300" type="line"/>
      <point x="718" y="115" type="line"/>
    </contour>
  </outline>
</glyph>
<glyph name="six" format="2">
  <advance width="726"/>
  <unicode hex="0036"/>
  <outline>
    <contour>
      <point x="269" y="255" type="curve" smooth="yes"/>
      <point x="269" y="199"/>
      <point x="310" y="165"/>
      <point x="363" y="165" type="curve" smooth="yes"/>
      <point x="416" y="165"/>
      <point x="457" y="199"/>
      <point x="457" y="255" type="curve" smooth="yes"/>
      <point x="457" y="311"/>
      <point x="416" y="347"/>
      <point x="363" y="347" type="curve" smooth="yes"/>
      <point x="310" y="347"/>
      <point x="269" y="311"/>
    </contour>
    <contour>
      <point x="335" y="695" type="line"/>
      <point x="614" y="695" type="line"/>
      <point x="383" y="464" type="line"/>
      <point x="331" y="437" type="line"/>
      <point x="375" y="475"/>
      <point x="401" y="483"/>
      <point x="454" y="483" type="curve" smooth="yes"/>
      <point x="553" y="483"/>
      <point x="676" y="404"/>
      <point x="676" y="255" type="curve" smooth="yes"/>
      <point x="676" y="66"/>
      <point x="533" y="-20"/>
      <point x="363" y="-20" type="curve" smooth="yes"/>
      <point x="193" y="-20"/>
      <point x="50" y="66"/>
      <point x="50" y="255" type="curve" smooth="yes"/>
      <point x="50" y="342"/>
      <point x="97" y="412"/>
      <point x="154" y="480" type="curve" smooth="yes"/>
    </contour>
  </outline>
</glyph>
<glyph name="nine" format="2">
  <advance width="726"/>
  <unicode hex="0039"/>
  <outline>
    <contour>
      <point x="457" y="445" type="curve" smooth="yes"/>
      <point x="457" y="501"/>
      <point x="416" y="535"/>
      <point x="363" y="535" type="curve" smooth="yes"/>
      <point x="310" y="535"/>
      <point x="269" y="501"/>
      <point x="269" y="445" type="curve" smooth="yes"/>
      <point x="269" y="389"/>
      <point x="310" y="353"/>
      <point x="363" y="353" type="curve" smooth="yes"/>
      <point x="416" y="353"/>
      <point x="457" y="389"/>
    </contour>
    <contour>
      <point x="391" y="5" type="line"/>
      <point x="112" y="5" type="line"/>
      <point x="343" y="236" type="line"/>
      <point x="395" y="263" type="line"/>
      <point x="351" y="225"/>
      <point x="325" y="217"/>
      <point x="272" y="217" type="curve" smooth="yes"/>
      <point x="173" y="217"/>
      <point x="50" y="296"/>
      <point x="50" y="445" type="curve" smooth="yes"/>
      <point x="50" y="634"/>
      <point x="193" y="720"/>
      <point x="363" y="720" type="curve" smooth="yes"/>
      <point x="533" y="720"/>
      <point x="676" y="634"/>
      <point x="676" y="445" type="curve" smooth="yes"/>
      <point x="676" y="358"/>
      <point x="629" y="288"/>
      <point x="572" y="220" type="curve" smooth="yes"/>
    </contour>
  </outline>
</glyph>
<glyph name="at" format="2">
  <advance width="770"/>
  <unicode hex="0040"/>
  <outline>
    <contour>
      <point x="346" y="320" type="curve" smooth="yes"/>
      <point x="346" y="284"/>
      <point x="356" y="265"/>
      <point x="369" y="265" type="curve" smooth="yes"/>
      <point x="394" y="265"/>
      <point x="417" y="314"/>
      <point x="417" y="360" type="curve" smooth="yes"/>
      <point x="417" y="401"/>
      <point x="409" y="415"/>
      <point x="394" y="415" type="curve" smooth="yes"/>
      <point x="364" y="415"/>
      <point x="346" y="366"/>
    </contour>
    <contour>
      <point x="200" y="310" type="curve" smooth="yes"/>
      <point x="200" y="449"/>
      <point x="273" y="530"/>
      <point x="348" y="530" type="curve" smooth="yes"/>
      <point x="413" y="530"/>
      <point x="471" y="459"/>
      <point x="471" y="370" type="curve" smooth="yes"/>
      <point x="471" y="231"/>
      <point x="403" y="150"/>
      <point x="328" y="150" type="curve" smooth="yes"/>
      <point x="243" y="150"/>
      <point x="200" y="211"/>
    </contour>
    <contour>
      <point x="10" y="320" type="curve" smooth="yes"/>
      <point x="10" y="549"/>
      <point x="181" y="730"/>
      <point x="415" y="730" type="curve" smooth="yes"/>
      <point x="629" y="730"/>
      <point x="760" y="559"/>
      <point x="760" y="390" type="curve" smooth="yes"/>
      <point x="760" y="211"/>
      <point x="666" y="140"/>
      <point x="561" y="140" type="curve" smooth="yes"/>
      <point x="490" y="140"/>
      <point x="426" y="194"/>
      <point x="436" y="260" type="curve"/>
      <point x="419" y="310" type="line"/>
      <point x="435" y="520" type="line"/>
      <point x="576" y="520" type="line"/>
      <point x="559" y="319" type="line" smooth="yes"/>
      <point x="558" y="312"/>
      <point x="557" y="300"/>
      <point x="557" y="292" type="curve" smooth="yes"/>
      <point x="557" y="268"/>
      <point x="563" y="256"/>
      <point x="576" y="256" type="curve" smooth="yes"/>
      <point x="596" y="256"/>
      <point x="625" y="274"/>
      <point x="625" y="390" type="curve" smooth="yes"/>
      <point x="625" y="513"/>
      <point x="553" y="610"/>
      <point x="415" y="610" type="curve" smooth="yes"/>
      <point x="247" y="610"/>
      <point x="145" y="493"/>
      <point x="145" y="320" type="curve" smooth="yes"/>
      <point x="145" y="177"/>
      <point x="217" y="85"/>
      <point x="385" y="85" type="curve" smooth="yes"/>
      <point x="455" y="85"/>
      <point x="506" y="103"/>
      <point x="560" y="125" type="curve"/>
      <point x="598" y="15" type="line"/>
      <point x="538" y="-17"/>
      <point x="459" y="-35"/>
      <point x="365" y="-35" type="curve" smooth="yes"/>
      <point x="131" y="-35"/>
      <point x="10" y="121"/>
    </contour>
  </outline>
</glyph>
<glyph name="A" format="1">
  <advance width="780"/>
  <unicode hex="0041"/>
  <outline>
    <contour>
      <point x="207" y="90" type="line"/>
      <point x="207" y="248" type="line"/>
      <point x="577" y="248" type="line"/>
      <point x="577" y="90" type="line"/>
    </contour>
    <contour>
      <point x="390" y="382" type="line"/>
      <point x="304" y="189" type="line"/>
      <point x="321" y="139" type="line"/>
      <point x="245" y="0" type="line"/>
      <point x="-5" y="0" type="line"/>
      <point x="390" y="750" type="line"/>
      <point x="785" y="0" type="line"/>
      <point x="535" y="0" type="line"/>
      <point x="461" y="132" type="line"/>
      <point x="476" y="189" type="line"/>
    </contour>
  </outline>
</glyph>
<glyph name="B" format="2">
  <advance width="728"/>
  <unicode hex="0042"/>
  <outline>
    <contour>
      <point x="232" y="335" type="line"/>
      <point x="232" y="425" type="line"/>
      <point x="345" y="425" type="line" smooth="yes"/>
      <point x="395" y="425"/>
      <point x="418" y="447"/>
      <point x="418" y="483" type="curve" smooth="yes"/>
      <point x="418" y="519"/>
      <point x="395" y="535"/>
      <point x="345" y="535" type="curve" smooth="yes"/>
      <point x="290" y="535" type="line"/>
      <point x="290" y="165" type="line"/>
      <point x="365" y="165" type="line" smooth="yes"/>
      <point x="415" y="165"/>
      <point x="458" y="171"/>
      <point x="458" y="227" type="curve" smooth="yes"/>
      <point x="458" y="273"/>
      <point x="415" y="280"/>
      <point x="365" y="280" type="curve" smooth="yes"/>
      <point x="232" y="280" type="line"/>
      <point x="232" y="400" type="line"/>
      <point x="395" y="400" type="line" smooth="yes"/>
      <point x="530" y="400"/>
      <point x="688" y="341"/>
      <point x="688" y="192" type="curve" smooth="yes"/>
      <point x="688" y="53"/>
      <point x="580" y="0"/>
      <point x="395" y="0" type="curve" smooth="yes"/>
      <point x="70" y="0" type="line"/>
      <point x="70" y="700" type="line"/>
      <point x="375" y="700" type="line" smooth="yes"/>
      <point x="530" y="700"/>
      <point x="648" y="639"/>
      <point x="648" y="520" type="curve" smooth="yes"/>
      <point x="648" y="401"/>
      <point x="530" y="335"/>
      <point x="375" y="335" type="curve" smooth="yes"/>
    </contour>
  </outline>
</glyph>
<glyph name="F" format="1">
  <advance width="585"/>
  <unicode hex="0046"/>
  <outline>
    <contour>
      <point x="222" y="515" type="line"/>
      <point x="222" y="700" type="line"/>
      <point x="535" y="700" type="line"/>
      <point x="535" y="515" type="line"/>
    </contour>
    <contour>
      <point x="222" y="245" type="line"/>
      <point x="222" y="415" type="line"/>
      <point x="525" y="415" type="line"/>
      <point x="525" y="245" type="line"/>
    </contour>
    <contour>
      <point x="70" y="700" type="line"/>
      <point x="280" y="700" type="line"/>
      <point x="280" y="0" type="line"/>
      <point x="70" y="0" type="line"/>
    </contour>
  </outline>
</glyph>
<glyph name="G" format="2">
  <advance width="838"/>
  <unicode hex="0047"/>
  <outline>
    <contour>
      <point x="430" y="240" type="line"/>
      <point x="430" y="400" type="line"/>
      <point x="802" y="400" type="line"/>
      <point x="822" y="161"/>
      <point x="684" y="-30"/>
      <point x="430" y="-30" type="curve" smooth="yes"/>
      <point x="196" y="-30"/>
      <point x="30" y="121"/>
      <point x="30" y="350" type="curve" smooth="yes"/>
      <point x="30" y="579"/>
      <point x="206" y="720"/>
      <point x="440" y="720" type="curve" smooth="yes"/>
      <point x="599" y="720"/>
      <point x="701" y="641"/>
      <point x="771" y="544" type="curve"/>
      <point x="566" y="452" type="line"/>
      <point x="542" y="496"/>
      <point x="507" y="535"/>
      <point x="440" y="535" type="curve" smooth="yes"/>
      <point x="342" y="535"/>
      <point x="260" y="473"/>
      <point x="260" y="350" type="curve" smooth="yes"/>
      <point x="260" y="227"/>
      <point x="332" y="155"/>
      <point x="440" y="155" type="curve" smooth="yes"/>
      <point x="520.624" y="155"/>
      <point x="564.45" y="188.237"/>
      <point x="587.643" y="240" type="curve"/>
    </contour>
  </outline>
</glyph>
<glyph name="J" format="2">
  <advance width="385"/>
  <unicode hex="004A"/>
  <outline>
    <contour>
      <point x="-75" y="-39" type="line"/>
      <point x="-51" y="-54"/>
      <point x="-19" y="-70"/>
      <point x="7" y="-70" type="curve" smooth="yes"/>
      <point x="37" y="-70"/>
      <point x="70" y="-51"/>
      <point x="70" y="5" type="curve" smooth="yes"/>
      <point x="70" y="700" type="line"/>
      <point x="315" y="700" type="line"/>
      <point x="315" y="-50" type="line" smooth="yes"/>
      <point x="315" y="-199"/>
      <point x="181" y="-250"/>
      <point x="37" y="-250" type="curve" smooth="yes"/>
      <point x="-56" y="-250"/>
      <point x="-141" y="-220"/>
      <point x="-196" y="-190" type="curve"/>
    </contour>
  </outline>
</glyph>
<glyph name="L" format="1">
  <advance width="575"/>
  <unicode hex="004C"/>
  <outline>
    <contour>
      <point x="70" y="700" type="line"/>
      <point x="290" y="700" type="line"/>
      <point x="290" y="185" type="line"/>
      <point x="575" y="185" type="line"/>
      <point x="575" y="0" type="line"/>
      <point x="70" y="0" type="line"/>
    </contour>
  </outline>
</glyph>
<glyph name="N" format="1">
  <advance width="805"/>
  <unicode hex="004E"/>
  <outline>
    <contour>
      <point x="525" y="700" type="line"/>
      <point x="735" y="700" type="line"/>
      <point x="735" y="-35" type="line"/>
      <point x="280" y="316.591" type="line"/>
      <point x="280" y="0" type="line"/>
      <point x="70" y="0" type="line"/>
      <point x="70" y="735" type="line"/>
      <point x="525" y="383.409" type="line"/>
    </contour>
  </outline>
</glyph>
<glyph name="O" format="2">
  <advance width="840"/>
  <unicode hex="004F"/>
  <outline>
    <contour>
      <point x="263" y="350" type="curve" smooth="yes"/>
      <point x="263" y="247"/>
      <point x="322" y="178"/>
      <point x="420" y="178" type="curve" smooth="yes"/>
      <point x="518" y="178"/>
      <point x="577" y="247"/>
      <point x="577" y="350" type="curve" smooth="yes"/>
      <point x="577" y="453"/>
      <point x="523" y="522"/>
      <point x="420" y="522" type="curve" smooth="yes"/>
      <point x="322" y="522"/>
      <point x="263" y="453"/>
    </contour>
    <contour>
      <point x="30" y="350" type="curve" smooth="yes"/>
      <point x="30" y="574"/>
      <point x="201" y="720"/>
      <point x="420" y="720" type="curve" smooth="yes"/>
      <point x="644" y="720"/>
      <point x="810" y="574"/>
      <point x="810" y="350" type="curve" smooth="yes"/>
      <point x="810" y="126"/>
      <point x="649" y="-30"/>
      <point x="420" y="-30" type="curve" smooth="yes"/>
      <point x="191" y="-30"/>
      <point x="30" y="126"/>
    </contour>
  </outline>
</glyph>
<glyph name="P" format="2">
  <advance width="668"/>
  <unicode hex="0050"/>
  <outline>
    <contour>
      <point x="70" y="700" type="line"/>
      <point x="290" y="700" type="line"/>
      <point x="290" y="0" type="line"/>
      <point x="70" y="0" type="line"/>
    </contour>
    <contour>
      <point x="212" y="525" type="line"/>
      <point x="212" y="700" type="line"/>
      <point x="345" y="700" type="line" smooth="yes"/>
      <point x="550" y="700"/>
      <point x="638" y="609"/>
      <point x="638" y="460" type="curve" smooth="yes"/>
      <point x="638" y="311"/>
      <point x="550" y="220"/>
      <point x="345" y="220" type="curve" smooth="yes"/>
      <point x="212" y="220" type="line"/>
      <point x="212" y="395" type="line"/>
      <point x="345" y="395" type="line" smooth="yes"/>
      <point x="400" y="395"/>
      <point x="428" y="419"/>
      <point x="428" y="460" type="curve" smooth="yes"/>
      <point x="428" y="501"/>
      <point x="400" y="525"/>
      <point x="345" y="525" type="curve" smooth="yes"/>
    </contour>
  </outline>
</glyph>
<glyph name="R" format="2">
  <advance width="700"/>
  <unicode hex="0052"/>
  <outline>
    <contour>
      <point x="275" y="300" type="line"/>
      <point x="500" y="300" type="line"/>
      <point x="700" y="0" type="line"/>
      <point x="445" y="0" type="line"/>
    </contour>
    <contour>
      <point x="70" y="700" type="line"/>
      <point x="290" y="700" type="line"/>
      <point x="290" y="0" type="line"/>
      <point x="70" y="0" type="line"/>
    </contour>
    <contour>
      <point x="212" y="515" type="line"/>
      <point x="212" y="700" type="line"/>
      <point x="365" y="700" type="line" smooth="yes"/>
      <point x="570" y="700"/>
      <point x="658" y="599"/>
      <point x="658" y="460" type="curve" smooth="yes"/>
      <point x="658" y="321"/>
      <point x="570" y="220"/>
      <point x="365" y="220" type="curve" smooth="yes"/>
      <point x="212" y="220" type="line"/>
      <point x="212" y="385" type="line"/>
      <point x="345" y="385" type="line" smooth="yes"/>
      <point x="400" y="385"/>
      <point x="428" y="409"/>
      <point x="428" y="450" type="curve" smooth="yes"/>
      <point x="428" y="491"/>
      <point x="400" y="515"/>
      <point x="345" y="515" type="curve" smooth="yes"/>
    </contour>
  </outline>
</glyph>
<glyph name="T" format="2">
  <advance width="620"/>
  <unicode hex="0054"/>
  <outline>
    <contour>
      <point x="0" y="505" type="line"/>
      <point x="0" y="700" type="line"/>
      <point x="620" y="700" type="line"/>
      <point x="620" y="505" type="line"/>
      <point x="420" y="505" type="line"/>
      <point x="420" y="0" type="line"/>
      <point x="200" y="0" type="line"/>
      <point x="200" y="505" type="line"/>
    </contour>
  </outline>
</glyph>
<glyph name="U" format="2">
  <advance width="746"/>
  <unicode hex="0055"/>
  <outline>
    <contour>
      <point x="65" y="700" type="line"/>
      <point x="285" y="700" type="line"/>
      <point x="285" y="250" type="line" smooth="yes"/>
      <point x="285" y="194"/>
      <point x="313" y="155"/>
      <point x="373" y="155" type="curve" smooth="yes"/>
      <point x="433" y="155"/>
      <point x="461" y="194"/>
      <point x="461" y="250" type="curve" smooth="yes"/>
      <point x="461" y="700" type="line"/>
      <point x="681" y="700" type="line"/>
      <point x="681" y="230" type="line" smooth="yes"/>
      <point x="681" y="31"/>
      <point x="538" y="-40"/>
      <point x="373" y="-40" type="curve" smooth="yes"/>
      <point x="208" y="-40"/>
      <point x="65" y="31"/>
      <point x="65" y="230" type="curve" smooth="yes"/>
    </contour>
  </outline>
</glyph>
<glyph name="W" format="2">
  <advance width="1110"/>
  <unicode hex="0057"/>
  <outline>
    <contour>
      <point x="747.179" y="350.641" type="line"/>
      <point x="845" y="700" type="line"/>
      <point x="1110" y="700" type="line"/>
      <point x="790" y="-45" type="line"/>
      <point x="555" y="303" type="line"/>
      <point x="320" y="-45" type="line"/>
      <point x="0" y="700" type="line"/>
      <point x="265" y="700" type="line"/>
      <point x="362.821" y="350.641" type="line"/>
      <point x="555" y="735" type="line"/>
    </contour>
  </outline>
</glyph>
<glyph name="Y" format="2">
  <advance width="720"/>
  <unicode hex="0059"/>
  <outline>
    <contour>
      <point x="470" y="700" type="line"/>
      <point x="725" y="700" type="line"/>
      <point x="473" y="274.707" type="line"/>
      <point x="473" y="0" type="line"/>
      <point x="248" y="0" type="line"/>
      <point x="248" y="273.019" type="line"/>
      <point x="-5" y="700" type="line"/>
      <point x="250" y="700" type="line"/>
      <point x="360" y="474" type="line"/>
    </contour>
  </outline>
</glyph>
<glyph name="Z" format="2">
  <advance width="665"/>
  <unicode hex="005A"/>
  <outline>
    <contour>
      <point x="70" y="505" type="line"/>
      <point x="70" y="700" type="line"/>
      <point x="655" y="700" type="line"/>
      <point x="347" y="185" type="line"/>
      <point x="610" y="185" type="line"/>
      <point x="610" y="0" type="line"/>
      <point x="5" y="0" type="line"/>
      <point x="306" y="505" type="line"/>
    </contour>
  </outline>
</glyph>
<glyph name="bracketright" format="2">
  <advance width="400"/>
  <unicode hex="005D"/>
  <outline>
    <contour>
      <point x="121" y="-55" type="line"/>
      <point x="121" y="615" type="line"/>
      <point x="20" y="615" type="line"/>
      <point x="20" y="780" type="line"/>
      <point x="315" y="780" type="line"/>
      <point x="315" y="-220" type="line"/>
      <point x="20" y="-220" type="line"/>
      <point x="20" y="-55" type="line"/>
    </contour>
  </outline>
</glyph>
<glyph name="asciicircum" format="1">
  <advance width="510"/>
  <unicode hex="005E"/>
  <outline>
    <contour>
      <point x="255" y="556" type="line"/>
      <point x="195" y="440" type="line"/>
      <point x="25" y="440" type="line"/>
      <point x="195" y="710" type="line"/>
      <point x="315" y="710" type="line"/>
      <point x="485" y="440" type="line"/>
      <point x="315" y="440" type="line"/>
    </contour>
  </outline>
</glyph>
<glyph name="b" format="1">
  <advance width="645"/>
  <unicode hex="0062"/>
  <outline>
    <contour>
      <point x="245" y="780" type="line"/>
      <point x="245" y="0" type="line"/>
      <point x="50" y="0" type="line"/>
      <point x="50" y="780" type="line"/>
    </contour>
    <contour>
      <point x="615" y="230" type="curve" smooth="yes"/>
      <point x="615" y="71"/>
      <point x="507" y="-10"/>
      <point x="402" y="-10" type="curve" smooth="yes"/>
      <point x="287" y="-10"/>
      <point x="199" y="81"/>
      <point x="199" y="230" type="curve" smooth="yes"/>
      <point x="199" y="379"/>
      <point x="287" y="470"/>
      <point x="402" y="470" type="curve" smooth="yes"/>
      <point x="507" y="470"/>
      <point x="615" y="389"/>
    </contour>
    <contour>
      <point x="409" y="230" type="curve" smooth="yes"/>
      <point x="409" y="281"/>
      <point x="372" y="320"/>
      <point x="327" y="320" type="curve" smooth="yes"/>
      <point x="287" y="320"/>
      <point x="245" y="286"/>
      <point x="245" y="230" type="curve" smooth="yes"/>
      <point x="245" y="174"/>
      <point x="287" y="140"/>
      <point x="327" y="140" type="curve" smooth="yes"/>
      <point x="372" y="140"/>
      <point x="409" y="179"/>
    </contour>
  </outline>
</glyph>
<glyph name="l" format="2">
  <advance width="295"/>
  <unicode hex="006C"/>
  <outline>
    <contour>
      <point x="50" y="780" type="line"/>
      <point x="245" y="780" type="line"/>
      <point x="245" y="0" type="line"/>
      <point x="50" y="0" type="line"/>
    </contour>
  </outline>
</glyph>
<glyph name="m" format="1">
  <advance width="845"/>
  <unicode hex="006D"/>
  <outline>
    <contour>
      <point x="320" y="280" type="line" smooth="yes"/>
      <point x="320" y="321"/>
      <point x="309" y="346"/>
      <point x="279" y="346" type="curve" smooth="yes"/>
      <point x="254" y="346"/>
      <point x="235" y="326"/>
      <point x="235" y="280" type="curve"/>
      <point x="209" y="270" type="line"/>
      <point x="209" y="379"/>
      <point x="257" y="471"/>
      <point x="372" y="471" type="curve" smooth="yes"/>
      <point x="487" y="471"/>
      <point x="515" y="419"/>
      <point x="515" y="310" type="curve" smooth="yes"/>
      <point x="515" y="0" type="line"/>
      <point x="320" y="0" type="line"/>
    </contour>
    <contour>
      <point x="235" y="460" type="line"/>
      <point x="235" y="0" type="line"/>
      <point x="50" y="0" type="line"/>
      <point x="50" y="460" type="line"/>
    </contour>
    <contour>
      <point x="795" y="300" type="curve" smooth="yes"/>
      <point x="795" y="0" type="line"/>
      <point x="600" y="0" type="line"/>
      <point x="600" y="280" type="line" smooth="yes"/>
      <point x="600" y="321"/>
      <point x="589" y="346"/>
      <point x="559" y="346" type="curve" smooth="yes"/>
      <point x="534" y="346"/>
      <point x="515" y="326"/>
      <point x="515" y="280" type="curve"/>
      <point x="459" y="270" type="line"/>
      <point x="459" y="379"/>
      <point x="537" y="471"/>
      <point x="652" y="471" type="curve" smooth="yes"/>
      <point x="767" y="471"/>
      <point x="795" y="409"/>
    </contour>
  </outline>
</glyph>
<glyph name="w" format="2">
  <advance width="810"/>
  <unicode hex="0077"/>
  <outline>
    <contour>
      <point x="-15" y="460" type="line"/>
      <point x="185" y="460" type="line"/>
      <point x="268.901" y="262.832" type="line"/>
      <point x="405" y="495" type="line"/>
      <point x="541.099" y="262.832" type="line"/>
      <point x="625" y="460" type="line"/>
      <point x="825" y="460" type="line"/>
      <point x="565" y="-25" type="line"/>
      <point x="405" y="210.789" type="line"/>
      <point x="245" y="-25" type="line"/>
    </contour>
  </outline>
</glyph>
<glyph name="braceleft" format="1">
  <advance width="451"/>
  <unicode hex="007B"/>
  <outline>
    <contour>
      <point x="318" y="580" type="curve" smooth="yes"/>
      <point x="318" y="490" type="line" smooth="yes"/>
      <point x="318" y="401"/>
      <point x="314" y="280"/>
      <point x="155" y="280" type="curve"/>
      <point x="155" y="300" type="line"/>
      <point x="314" y="300"/>
      <point x="318" y="179"/>
      <point x="318" y="90" type="curve" smooth="yes"/>
      <point x="318" y="0" type="line" smooth="yes"/>
      <point x="318" y="-26"/>
      <point x="336" y="-50"/>
      <point x="366" y="-50" type="curve" smooth="yes"/>
      <point x="401" y="-50" type="line"/>
      <point x="401" y="-200" type="line"/>
      <point x="291" y="-200" type="line" smooth="yes"/>
      <point x="187" y="-200"/>
      <point x="98" y="-159"/>
      <point x="98" y="-60" type="curve" smooth="yes"/>
      <point x="98" y="110" type="line" smooth="yes"/>
      <point x="98" y="186"/>
      <point x="80" y="210"/>
      <point x="30" y="220" type="curve"/>
      <point x="30" y="360" type="line"/>
      <point x="80" y="370"/>
      <point x="98" y="394"/>
      <point x="98" y="470" type="curve" smooth="yes"/>
      <point x="98" y="640" type="line" smooth="yes"/>
      <point x="98" y="739"/>
      <point x="187" y="780"/>
      <point x="291" y="780" type="curve" smooth="yes"/>
      <point x="401" y="780" type="line"/>
      <point x="401" y="630" type="line"/>
      <point x="366" y="630" type="line" smooth="yes"/>
      <point x="336" y="630"/>
      <point x="318" y="606"/>
    </contour>
  </outline>
</glyph>
<glyph name="braceright" format="1">
  <advance width="451"/>
  <unicode hex="007D"/>
  <outline>
    <contour>
      <point x="133" y="0" type="curve" smooth="yes"/>
      <point x="133" y="90" type="line" smooth="yes"/>
      <point x="133" y="179"/>
      <point x="137" y="300"/>
      <point x="296" y="300" type="curve"/>
      <point x="296" y="280" type="line"/>
      <point x="137" y="280"/>
      <point x="133" y="401"/>
      <point x="133" y="490" type="curve" smooth="yes"/>
      <point x="133" y="580" type="line" smooth="yes"/>
      <point x="133" y="606"/>
      <point x="115" y="630"/>
      <point x="85" y="630" type="curve" smooth="yes"/>
      <point x="50" y="630" type="line"/>
      <point x="50" y="780" type="line"/>
      <point x="160" y="780" type="line" smooth="yes"/>
      <point x="264" y="780"/>
      <point x="353" y="739"/>
      <point x="353" y="640" type="curve" smooth="yes"/>
      <point x="353" y="470" type="line" smooth="yes"/>
      <point x="353" y="394"/>
      <point x="371" y="370"/>
      <point x="421" y="360" type="curve"/>
      <point x="421" y="220" type="line"/>
      <point x="371" y="210"/>
      <point x="353" y="186"/>
      <point x="353" y="110" type="curve" smooth="yes"/>
      <point x="353" y="-60" type="line" smooth="yes"/>
      <point x="353" y="-159"/>
      <point x="264" y="-200"/>
      <point x="160" y="-200" type="curve" smooth="yes"/>
      <point x="50" y="-200" type="line"/>
      <point x="50" y="-50" type="line"/>
      <point x="85" y="-50" type="line" smooth="yes"/>
      <point x="115" y="-50"/>
      <point x="133" y="-26"/>
    </contour>
  </outline>
</glyph>
<glyph name="asciitilde" format="2">
  <advance width="575"/>
  <unicode hex="007E"/>
  <outline>
    <contour>
      <point x="165" y="156" type="curve"/>
      <point x="18" y="161" type="line"/>
      <point x="16" y="168"/>
      <point x="15" y="176"/>
      <point x="15" y="185" type="curve" smooth="yes"/>
      <point x="15" y="226"/>
      <point x="23" y="261"/>
      <point x="51" y="295" type="curve" smooth="yes"/>
      <point x="79" y="329"/>
      <point x="112" y="357"/>
      <point x="194" y="357" type="curve" smooth="yes"/>
      <point x="243" y="357"/>
      <point x="268" y="340"/>
      <point x="320" y="308" type="curve" smooth="yes"/>
      <point x="352" y="288"/>
      <point x="372" y="272"/>
      <point x="390" y="272" type="curve" smooth="yes"/>
      <point x="408" y="272"/>
      <point x="417" y="290"/>
      <point x="417" y="306" type="curve" smooth="yes"/>
      <point x="417" y="319"/>
      <point x="413" y="333"/>
      <point x="409" y="343" type="curve"/>
      <point x="556" y="338" type="line"/>
      <point x="558" y="330"/>
      <point x="560" y="320"/>
      <point x="560" y="310" type="curve" smooth="yes"/>
      <point x="560" y="270"/>
      <point x="554" y="231"/>
      <point x="527" y="198" type="curve" smooth="yes"/>
      <point x="500" y="165"/>
      <point x="470" y="142"/>
      <point x="404" y="142" type="curve" smooth="yes"/>
      <point x="360" y="142"/>
      <point x="327" y="161"/>
      <point x="274" y="193" type="curve" smooth="yes"/>
      <point x="242" y="213"/>
      <point x="218" y="228"/>
      <point x="193" y="228" type="curve" smooth="yes"/>
      <point x="163" y="228"/>
      <point x="158" y="202"/>
      <point x="158" y="188" type="curve" smooth="yes"/>
      <point x="158" y="171"/>
      <point x="162" y="164"/>
    </contour>
  </outline>
</glyph>
<glyph name="cent" format="2">
  <advance width="580"/>
  <unicode hex="00A2"/>
  <outline>
    <contour>
      <point x="210" y="38" type="line"/>
      <point x="349" y="38" type="line"/>
      <point x="364" y="-112" type="line"/>
      <point x="195" y="-112" type="line"/>
    </contour>
    <contour>
      <point x="231" y="230" type="curve" smooth="yes"/>
      <point x="231" y="164"/>
      <point x="284" y="138"/>
      <point x="334" y="138" type="curve" smooth="yes"/>
      <point x="388" y="138"/>
      <point x="423" y="164"/>
      <point x="454" y="199" type="curve"/>
      <point x="454" y="19" type="line"/>
      <point x="422" y="1"/>
      <point x="377" y="-10"/>
      <point x="314" y="-10" type="curve" smooth="yes"/>
      <point x="149" y="-10"/>
      <point x="31" y="81"/>
      <point x="31" y="230" type="curve" smooth="yes"/>
      <point x="31" y="379"/>
      <point x="149" y="470"/>
      <point x="314" y="470" type="curve" smooth="yes"/>
      <point x="377" y="470"/>
      <point x="422" y="458"/>
      <point x="454" y="441" type="curve"/>
      <point x="454" y="261" type="line"/>
      <point x="423" y="296"/>
      <point x="388" y="322"/>
      <point x="334" y="322" type="curve" smooth="yes"/>
      <point x="284" y="322"/>
      <point x="231" y="286"/>
    </contour>
    <contour>
      <point x="195" y="578" type="line"/>
      <point x="364" y="578" type="line"/>
      <point x="349" y="428" type="line"/>
      <point x="210" y="428" type="line"/>
    </contour>
  </outline>
</glyph>
<glyph name="yen" format="1">
  <advance width="723"/>
  <unicode hex="00A5"/>
  <outline>
    <contour>
      <point x="45" y="250" type="line"/>
      <point x="45" y="365" type="line"/>
      <point x="675" y="365" type="line"/>
      <point x="675" y="250" type="line"/>
    </contour>
    <contour>
      <point x="45" y="100" type="line"/>
      <point x="45" y="215" type="line"/>
      <point x="675" y="215" type="line"/>
      <point x="675" y="100" type="line"/>
    </contour>
    <contour>
      <point x="471" y="700" type="line"/>
      <point x="725" y="700" type="line"/>
      <point x="474" y="276" type="line"/>
      <point x="474" y="0" type="line"/>
      <point x="248" y="0" type="line"/>
      <point x="248" y="273" type="line"/>
      <point x="-5" y="700" type="line"/>
      <point x="250" y="700" type="line"/>
      <point x="360" y="474" type="line"/>
    </contour>
  </outline>
</glyph>
<glyph name="section" format="2">
  <advance width="679"/>
  <unicode hex="00A7"/>
  <outline>
    <contour>
      <point x="455" y="531" type="line"/>
      <point x="423" y="557"/>
      <point x="373" y="577"/>
      <point x="346" y="577" type="curve" smooth="yes"/>
      <point x="316" y="577"/>
      <point x="306" y="567"/>
      <point x="306" y="557" type="curve" smooth="yes"/>
      <point x="306" y="537"/>
      <point x="344" y="539"/>
      <point x="400" y="527" type="curve" smooth="yes"/>
      <point x="483" y="509"/>
      <point x="542" y="460"/>
      <point x="542" y="383" type="curve" smooth="yes"/>
      <point x="542" y="277"/>
      <point x="417" y="222"/>
      <point x="303" y="222" type="curve"/>
      <point x="303" y="268" type="line"/>
      <point x="333" y="278"/>
      <point x="372" y="292"/>
      <point x="372" y="333" type="curve" smooth="yes"/>
      <point x="372" y="389"/>
      <point x="292" y="404"/>
      <point x="240" y="424" type="curve" smooth="yes"/>
      <point x="185" y="445"/>
      <point x="123" y="485"/>
      <point x="123" y="572" type="curve" smooth="yes"/>
      <point x="123" y="681"/>
      <point x="232" y="732"/>
      <point x="331" y="732" type="curve" smooth="yes"/>
      <point x="416" y="732"/>
      <point x="497" y="700"/>
      <point x="531" y="665" type="curve"/>
    </contour>
    <contour>
      <point x="147" y="181" type="line"/>
      <point x="219" y="135"/>
      <point x="289" y="125"/>
      <point x="316" y="125" type="curve" smooth="yes"/>
      <point x="346" y="125"/>
      <point x="356" y="135"/>
      <point x="356" y="145" type="curve" smooth="yes"/>
      <point x="356" y="165"/>
      <point x="318" y="170"/>
      <point x="262" y="182" type="curve" smooth="yes"/>
      <point x="179" y="200"/>
      <point x="100" y="242"/>
      <point x="100" y="319" type="curve" smooth="yes"/>
      <point x="100" y="425"/>
      <point x="235" y="480"/>
      <point x="349" y="480" type="curve"/>
      <point x="349" y="434" type="line"/>
      <point x="319" y="424"/>
      <point x="280" y="410"/>
      <point x="280" y="369" type="curve" smooth="yes"/>
      <point x="280" y="313"/>
      <point x="371" y="307"/>
      <point x="422" y="286" type="curve" smooth="yes"/>
      <point x="487" y="259"/>
      <point x="549" y="217"/>
      <point x="549" y="130" type="curve" smooth="yes"/>
      <point x="549" y="21"/>
      <point x="430" y="-30"/>
      <point x="331" y="-30" type="curve" smooth="yes"/>
      <point x="206" y="-30"/>
      <point x="135" y="2"/>
      <point x="71" y="47" type="curve"/>
    </contour>
  </outline>
</glyph>
<glyph name="logicalnot" format="2">
  <advance width="669"/>
  <unicode hex="00AC"/>
  <outline>
    <contour>
      <point x="65" y="255" type="line"/>
      <point x="65" y="420" type="line"/>
      <point x="604" y="420" type="line"/>
      <point x="604" y="175" type="line"/>
      <point x="479" y="175" type="line"/>
      <point x="479" y="255" type="line"/>
    </contour>
  </outline>
</glyph>
<glyph name="uni00B3" format="1">
  <advance width="397"/>
  <unicode hex="00B3"/>
  <outline>
    <contour>
      <point x="162" y="481" type="curve"/>
      <point x="162" y="534" type="line"/>
      <point x="204" y="534"/>
      <point x="235" y="556"/>
      <point x="235" y="581" type="curve" smooth="yes"/>
      <point x="235" y="597"/>
      <point x="223" y="607"/>
      <point x="197" y="607" type="curve" smooth="yes"/>
      <point x="170" y="607"/>
      <point x="152" y="591"/>
      <point x="152" y="566" type="curve"/>
      <point x="31" y="566" type="line"/>
      <point x="31" y="646"/>
      <point x="96" y="709"/>
      <point x="198" y="709" type="curve" smooth="yes"/>
      <point x="306" y="709"/>
      <point x="365" y="658"/>
      <point x="365" y="590" type="curve" smooth="yes"/>
      <point x="365" y="510"/>
      <point x="273" y="481"/>
    </contour>
    <contour>
      <point x="192" y="268" type="curve" smooth="yes"/>
      <point x="78" y="268"/>
      <point x="13" y="347"/>
      <point x="13" y="427" type="curve"/>
      <point x="143" y="427" type="line"/>
      <point x="143" y="384"/>
      <point x="171" y="370"/>
      <point x="198" y="370" type="curve" smooth="yes"/>
      <point x="225" y="370"/>
      <point x="247" y="378"/>
      <point x="247" y="409" type="curve" smooth="yes"/>
      <point x="247" y="434"/>
      <point x="228" y="457"/>
      <point x="162" y="457" type="curve"/>
      <point x="162" y="519" type="line"/>
      <point x="291" y="519"/>
      <point x="377" y="483"/>
      <point x="377" y="397" type="curve" smooth="yes"/>
      <point x="377" y="323"/>
      <point x="312" y="268"/>
    </contour>
  </outline>
</glyph>
<glyph name="periodcentered" format="2">
  <advance width="336"/>
  <unicode hex="00B7"/>
  <outline>
    <contour>
      <point x="50" y="285" type="curve" smooth="yes"/>
      <point x="50" y="348"/>
      <point x="98" y="400"/>
      <point x="168" y="400" type="curve" smooth="yes"/>
      <point x="238" y="400"/>
      <point x="286" y="348"/>
      <point x="286" y="285" type="curve" smooth="yes"/>
      <point x="286" y="222"/>
      <point x="238" y="170"/>
      <point x="168" y="170" type="curve" smooth="yes"/>
      <point x="98" y="170"/>
      <point x="50" y="222"/>
    </contour>
  </outline>
</glyph>
<glyph name="cedilla" format="1">
  <advance width="420"/>
  <unicode hex="00B8"/>
  <outline>
    <contour>
      <point x="176" y="78" type="line"/>
      <point x="316" y="72" type="line"/>
      <point x="216.141" y="-55.5122" type="line"/>
      <point x="231.9" y="-51.26"/>
      <point x="249.295" y="-50"/>
      <point x="269" y="-50" type="curve" smooth="yes"/>
      <point x="313" y="-50"/>
      <point x="372" y="-86"/>
      <point x="372" y="-162" type="curve" smooth="yes"/>
      <point x="372" y="-241"/>
      <point x="294" y="-280"/>
      <point x="226" y="-280" type="curve" smooth="yes"/>
      <point x="159" y="-280"/>
      <point x="107" y="-271"/>
      <point x="49" y="-240" type="curve"/>
      <point x="102" y="-154" type="line"/>
      <point x="131" y="-174"/>
      <point x="178" y="-180"/>
      <point x="194" y="-180" type="curve" smooth="yes"/>
      <point x="228" y="-180"/>
      <point x="251" y="-172"/>
      <point x="251" y="-148" type="curve" smooth="yes"/>
      <point x="251" y="-120"/>
      <point x="213" y="-118"/>
      <point x="184" y="-118" type="curve" smooth="yes"/>
      <point x="174" y="-118"/>
      <point x="130" y="-119"/>
      <point x="87" y="-133" type="curve"/>
    </contour>
  </outline>
</glyph>
<glyph name="ordmasculine" format="2">
  <advance width="278"/>
  <unicode hex="00BA"/>
  <outline>
    <contour>
      <point x="18" y="580" type="curve" smooth="yes"/>
      <point x="18" y="654"/>
      <point x="76" y="700"/>
      <point x="156" y="700" type="curve" smooth="yes"/>
      <point x="236" y="700"/>
      <point x="296" y="654"/>
      <point x="296" y="580" type="curve" smooth="yes"/>
      <point x="296" y="506"/>
      <point x="236" y="460"/>
      <point x="156" y="460" type="curve" smooth="yes"/>
      <point x="76" y="460"/>
      <point x="18" y="506"/>
    </contour>
    <contour>
      <point x="118" y="580" type="curve" smooth="yes"/>
      <point x="118" y="552"/>
      <point x="136" y="538"/>
      <point x="156" y="538" type="curve" smooth="yes"/>
      <point x="176" y="538"/>
      <point x="195" y="552"/>
      <point x="195" y="580" type="curve" smooth="yes"/>
      <point x="195" y="608"/>
      <point x="176" y="623"/>
      <point x="156" y="623" type="curve" smooth="yes"/>
      <point x="136" y="623"/>
      <point x="118" y="608"/>
    </contour>
  </outline>
</glyph>
<glyph name="guillemotright" format="1">
  <advance width="560"/>
  <unicode hex="00BB"/>
  <outline>
    <contour>
      <point x="170.233" y="250.581" type="line"/>
      <point x="20" y="445" type="line"/>
      <point x="140" y="520" type="line"/>
      <point x="310" y="255" type="line"/>
      <point x="140" y="-10" type="line"/>
      <point x="20" y="65" type="line"/>
    </contour>
    <contour>
      <point x="400.233" y="250.581" type="line"/>
      <point x="250" y="445" type="line"/>
      <point x="370" y="520" type="line"/>
      <point x="540" y="255" type="line"/>
      <point x="370" y="-10" type="line"/>
      <point x="250" y="65" type="line"/>
    </contour>
  </outline>
</glyph>
<glyph name="onequarter" format="2">
  <advance width="864"/>
  <unicode hex="00BC"/>
  <outline>
    <contour>
      <point x="638" y="700" type="line"/>
      <point x="753" y="700" type="line"/>
      <point x="233" y="0" type="line"/>
      <point x="118" y="0" type="line"/>
    </contour>
    <contour>
      <point x="20" y="549" type="line"/>
      <point x="20" y="659" type="line"/>
      <point x="257" y="703" type="line"/>
      <point x="257" y="274" type="line"/>
      <point x="131" y="274" type="line"/>
      <point x="131" y="574" type="line"/>
    </contour>
    <contour>
      <point x="412" y="69" type="line"/>
      <point x="520" y="159" type="line"/>
      <point x="708" y="159" type="line" smooth="yes"/>
      <point x="718" y="180" type="line" smooth="yes"/>
      <point x="837" y="180" type="line"/>
      <point x="837" y="69" type="line"/>
    </contour>
    <contour>
      <point x="544" y="117" type="line"/>
      <point x="412" y="69" type="line"/>
      <point x="663" y="420" type="line"/>
      <point x="771" y="420" type="line"/>
      <point x="771" y="0" type="line"/>
      <point x="633" y="0" type="line"/>
      <point x="633" y="91" type="line" smooth="yes"/>
      <point x="651" y="97" type="line" smooth="yes"/>
      <point x="651" y="253" type="line"/>
    </contour>
  </outline>
</glyph>
<glyph name="questiondown" format="2">
  <advance width="669"/>
  <unicode hex="00BF"/>
  <outline>
    <contour>
      <point x="246" y="200" type="curve" smooth="yes"/>
      <point x="246" y="159"/>
      <point x="278" y="135"/>
      <point x="338" y="135" type="curve" smooth="yes"/>
      <point x="395" y="135"/>
      <point x="463" y="164"/>
      <point x="504" y="224" type="curve"/>
      <point x="629" y="113" type="line"/>
      <point x="543" y="23"/>
      <point x="447" y="-25"/>
      <point x="328" y="-25" type="curve" smooth="yes"/>
      <point x="193" y="-25"/>
      <point x="50" y="51"/>
      <point x="50" y="200" type="curve" smooth="yes"/>
      <point x="50" y="326.737"/>
      <point x="161.352" y="392.736"/>
      <point x="265.546" y="417.82" type="curve"/>
      <point x="269" y="480" type="line"/>
      <point x="429" y="480" type="line"/>
      <point x="449" y="300" type="line"/>
      <point x="413" y="300" type="line" smooth="yes"/>
      <point x="293" y="300"/>
      <point x="246" y="236"/>
    </contour>
    <contour>
      <point x="467" y="630" type="curve" smooth="yes"/>
      <point x="467" y="577"/>
      <point x="419" y="530"/>
      <point x="349" y="530" type="curve" smooth="yes"/>
      <point x="279" y="530"/>
      <point x="231" y="577"/>
      <point x="231" y="630" type="curve" smooth="yes"/>
      <point x="231" y="683"/>
      <point x="279" y="730"/>
      <point x="349" y="730" type="curve" smooth="yes"/>
      <point x="419" y="730"/>
      <point x="467" y="683"/>
    </contour>
  </outline>
</glyph>
<glyph name="Atilde" format="2">
  <advance width="780"/>
  <unicode hex="00C3"/>
  <outline>
    <contour>
      <point x="207" y="90" type="line"/>
      <point x="207" y="248" type="line"/>
      <point x="577" y="248" type="line"/>
      <point x="577" y="90" type="line"/>
    </contour>
    <contour>
      <point x="390" y="382" type="line"/>
      <point x="304" y="189" type="line"/>
      <point x="321" y="139" type="line"/>
      <point x="245" y="0" type="line"/>
      <point x="-5" y="0" type="line"/>
      <point x="390" y="750" type="line"/>
      <point x="785" y="0" type="line"/>
      <point x="535" y="0" type="line"/>
      <point x="461" y="132" type="line"/>
      <point x="476" y="189" type="line"/>
    </contour>
    <contour>
      <point x="175" y="893" type="line"/>
      <point x="185" y="942"/>
      <point x="229" y="995"/>
      <point x="304" y="995" type="curve" smooth="yes"/>
      <point x="371" y="995"/>
      <point x="390" y="940"/>
      <point x="448" y="940" type="curve" smooth="yes"/>
      <point x="477" y="940"/>
      <point x="499" y="964"/>
      <point x="519" y="996" type="curve"/>
      <point x="605" y="903" type="line"/>
      <point x="589" y="866"/>
      <point x="524" y="810"/>
      <point x="454" y="810" type="curve" smooth="yes"/>
      <point x="399" y="810"/>
      <point x="355" y="867"/>
      <point x="303" y="867" type="curve" smooth="yes"/>
      <point x="267" y="867"/>
      <point x="258" y="831"/>
      <point x="258" y="816" type="curve"/>
    </contour>
  </outline>
</glyph>
<glyph name="Adieresis" format="2">
  <advance width="780"/>
  <unicode hex="00C4"/>
  <outline>
    <contour>
      <point x="207" y="90" type="line"/>
      <point x="207" y="248" type="line"/>
      <point x="577" y="248" type="line"/>
      <point x="577" y="90" type="line"/>
    </contour>
    <contour>
      <point x="390" y="382" type="line"/>
      <point x="304" y="189" type="line"/>
      <point x="321" y="139" type="line"/>
      <point x="245" y="0" type="line"/>
      <point x="-5" y="0" type="line"/>
      <point x="390" y="750" type="line"/>
      <point x="785" y="0" type="line"/>
      <point x="535" y="0" type="line"/>
      <point x="461" y="132" type="line"/>
      <point x="476" y="189" type="line"/>
    </contour>
    <contour>
      <point x="447" y="818" type="curve" smooth="yes"/>
      <point x="447" y="877"/>
      <point x="495" y="916"/>
      <point x="555" y="916" type="curve" smooth="yes"/>
      <point x="615" y="916"/>
      <point x="663" y="877"/>
      <point x="663" y="818" type="curve" smooth="yes"/>
      <point x="663" y="759"/>
      <point x="615" y="720"/>
      <point x="555" y="720" type="curve" smooth="yes"/>
      <point x="495" y="720"/>
      <point x="447" y="759"/>
    </contour>
    <contour>
      <point x="107" y="828" type="curve" smooth="yes"/>
      <point x="107" y="887"/>
      <point x="155" y="926"/>
      <point x="215" y="926" type="curve" smooth="yes"/>
      <point x="275" y="926"/>
      <point x="323" y="887"/>
      <point x="323" y="828" type="curve" smooth="yes"/>
      <point x="323" y="769"/>
      <point x="275" y="730"/>
      <point x="215" y="730" type="curve" smooth="yes"/>
      <point x="155" y="730"/>
      <point x="107" y="769"/>
    </contour>
  </outline>
</glyph>
<glyph name="Ccedilla" format="2">
  <advance width="710"/>
  <unicode hex="00C7"/>
  <outline>
    <contour>
      <point x="272" y="350" type="curve" smooth="yes"/>
      <point x="272" y="242"/>
      <point x="353" y="187"/>
      <point x="451" y="187" type="curve" smooth="yes"/>
      <point x="550" y="187"/>
      <point x="606" y="231"/>
      <point x="650" y="273" type="curve"/>
      <point x="650" y="47" type="line"/>
      <point x="595" y="9"/>
      <point x="537" y="-20"/>
      <point x="435" y="-20" type="curve" smooth="yes"/>
      <point x="191" y="-20"/>
      <point x="30" y="126"/>
      <point x="30" y="350" type="curve" smooth="yes"/>
      <point x="30" y="574"/>
      <point x="191" y="720"/>
      <point x="435" y="720" type="curve" smooth="yes"/>
      <point x="537" y="720"/>
      <point x="595" y="691"/>
      <point x="650" y="653" type="curve"/>
      <point x="650" y="427" type="line"/>
      <point x="606" y="469"/>
      <point x="550" y="513"/>
      <point x="451" y="513" type="curve" smooth="yes"/>
      <point x="353" y="513"/>
      <point x="272" y="458"/>
    </contour>
    <contour>
      <point x="345" y="41.9336" type="line"/>
      <point x="485" y="35.9336" type="line"/>
      <point x="385.141" y="-91.5791" type="line"/>
      <point x="400.899" y="-87.3271"/>
      <point x="418.295" y="-86.0664"/>
      <point x="438" y="-86.0664" type="curve" smooth="yes"/>
      <point x="482" y="-86.0664"/>
      <point x="541" y="-122.066"/>
      <point x="541" y="-198.066" type="curve" smooth="yes"/>
      <point x="541" y="-277.066"/>
      <point x="463" y="-316.066"/>
      <point x="395" y="-316.066" type="curve" smooth="yes"/>
      <point x="328" y="-316.066"/>
      <point x="276" y="-307.066"/>
      <point x="218" y="-276.066" type="curve"/>
      <point x="271" y="-190.066" type="line"/>
      <point x="300" y="-210.066"/>
      <point x="347" y="-216.066"/>
      <point x="363" y="-216.066" type="curve" smooth="yes"/>
      <point x="397" y="-216.066"/>
      <point x="420" y="-208.066"/>
      <point x="420" y="-184.066" type="curve" smooth="yes"/>
      <point x="420" y="-156.066"/>
      <point x="382" y="-154.066"/>
      <point x="353" y="-154.066" type="curve" smooth="yes"/>
      <point x="343" y="-154.066"/>
      <point x="299" y="-155.066"/>
      <point x="256" y="-169.066" type="curve"/>
    </contour>
  </outline>
</glyph>
<glyph name="Edieresis" format="2">
  <advance width="635"/>
  <unicode hex="00CB"/>
  <outline>
    <contour>
      <point x="222" y="0" type="line"/>
      <point x="222" y="175" type="line"/>
      <point x="575" y="175" type="line"/>
      <point x="575" y="0" type="line"/>
    </contour>
    <contour>
      <point x="222" y="525" type="line"/>
      <point x="222" y="700" type="line"/>
      <point x="575" y="700" type="line"/>
      <point x="575" y="525" type="line"/>
    </contour>
    <contour>
      <point x="222" y="275" type="line"/>
      <point x="222" y="445" type="line"/>
      <point x="555" y="445" type="line"/>
      <point x="555" y="275" type="line"/>
    </contour>
    <contour>
      <point x="70" y="700" type="line"/>
      <point x="280" y="700" type="line"/>
      <point x="280" y="0" type="line"/>
      <point x="70" y="0" type="line"/>
    </contour>
    <contour>
      <point x="350" y="878" type="curve" smooth="yes"/>
      <point x="350" y="937"/>
      <point x="398" y="976"/>
      <point x="458" y="976" type="curve" smooth="yes"/>
      <point x="518" y="976"/>
      <point x="566" y="937"/>
      <point x="566" y="878" type="curve" smooth="yes"/>
      <point x="566" y="819"/>
      <point x="518" y="780"/>
      <point x="458" y="780" type="curve" smooth="yes"/>
      <point x="398" y="780"/>
      <point x="350" y="819"/>
    </contour>
    <contour>
      <point x="80" y="878" type="curve" smooth="yes"/>
      <point x="80" y="937"/>
      <point x="128" y="976"/>
      <point x="188" y="976" type="curve" smooth="yes"/>
      <point x="248" y="976"/>
      <point x="296" y="937"/>
      <point x="296" y="878" type="curve" smooth="yes"/>
      <point x="296" y="819"/>
      <point x="248" y="780"/>
      <point x="188" y="780" type="curve" smooth="yes"/>
      <point x="128" y="780"/>
      <point x="80" y="819"/>
    </contour>
  </outline>
</glyph>
<glyph name="Iacute" format="1">
  <advance width="365"/>
  <unicode hex="00CD"/>
  <outline>
    <contour>
      <point x="70" y="700" type="line"/>
      <point x="295" y="700" type="line"/>
      <point x="295" y="0" type="line"/>
      <point x="70" y="0" type="line"/>
    </contour>
    <contour>
      <point x="348" y="940" type="line"/>
      <point x="168" y="790" type="line"/>
      <point x="58" y="840" type="line"/>
      <point x="208" y="1000" type="line"/>
    </contour>
  </outline>
</glyph>
<glyph name="Icircumflex" format="2">
  <advance width="365"/>
  <unicode hex="00CE"/>
  <outline>
    <contour>
      <point x="70" y="700" type="line"/>
      <point x="295" y="700" type="line"/>
      <point x="295" y="0" type="line"/>
      <point x="70" y="0" type="line"/>
    </contour>
    <contour>
      <point x="172" y="895" type="line"/>
      <point x="62" y="800" type="line"/>
      <point x="12" y="840" type="line"/>
      <point x="172" y="980" type="line"/>
      <point x="332" y="840" type="line"/>
      <point x="282" y="800" type="line"/>
    </contour>
  </outline>
</glyph>
<glyph name="Idieresis" format="2">
  <advance width="365"/>
  <unicode hex="00CF"/>
  <outline>
    <contour>
      <point x="70" y="700" type="line"/>
      <point x="295" y="700" type="line"/>
      <point x="295" y="0" type="line"/>
      <point x="70" y="0" type="line"/>
    </contour>
    <contour>
      <point x="210" y="878" type="curve" smooth="yes"/>
      <point x="210" y="937"/>
      <point x="258" y="976"/>
      <point x="318" y="976" type="curve" smooth="yes"/>
      <point x="378" y="976"/>
      <point x="426" y="937"/>
      <point x="426" y="878" type="curve" smooth="yes"/>
      <point x="426" y="819"/>
      <point x="378" y="780"/>
      <point x="318" y="780" type="curve" smooth="yes"/>
      <point x="258" y="780"/>
      <point x="210" y="819"/>
    </contour>
    <contour>
      <point x="-60" y="878" type="curve" smooth="yes"/>
      <point x="-60" y="937"/>
      <point x="-12" y="976"/>
      <point x="48" y="976" type="curve" smooth="yes"/>
      <point x="108" y="976"/>
      <point x="156" y="937"/>
      <point x="156" y="878" type="curve" smooth="yes"/>
      <point x="156" y="819"/>
      <point x="108" y="780"/>
      <point x="48" y="780" type="curve" smooth="yes"/>
      <point x="-12" y="780"/>
      <point x="-60" y="819"/>
    </contour>
  </outline>
</glyph>
<glyph name="Ntilde" format="1">
  <advance width="805"/>
  <unicode hex="00D1"/>
  <outline>
    <contour>
      <point x="525" y="700" type="line"/>
      <point x="735" y="700" type="line"/>
      <point x="735" y="-35" type="line"/>
      <point x="280" y="316.591" type="line"/>
      <point x="280" y="0" type="line"/>
      <point x="70" y="0" type="line"/>
      <point x="70" y="735" type="line"/>
      <point x="525" y="383.409" type="line"/>
    </contour>
    <contour>
      <point x="145" y="858" type="line"/>
      <point x="155" y="907"/>
      <point x="199" y="960"/>
      <point x="274" y="960" type="curve" smooth="yes"/>
      <point x="341" y="960"/>
      <point x="360" y="905"/>
      <point x="418" y="905" type="curve" smooth="yes"/>
      <point x="447" y="905"/>
      <point x="469" y="929"/>
      <point x="489" y="961" type="curve"/>
      <point x="575" y="868" type="line"/>
      <point x="559" y="831"/>
      <point x="494" y="775"/>
      <point x="424" y="775" type="curve" smooth="yes"/>
      <point x="369" y="775"/>
      <point x="325" y="832"/>
      <point x="273" y="832" type="curve" smooth="yes"/>
      <point x="237" y="832"/>
      <point x="228" y="796"/>
      <point x="228" y="781" type="curve"/>
    </contour>
  </outline>
</glyph>
<glyph name="Ograve" format="2">
  <advance width="840"/>
  <unicode hex="00D2"/>
  <outline>
    <contour>
      <point x="263" y="350" type="curve" smooth="yes"/>
      <point x="263" y="247"/>
      <point x="322" y="178"/>
      <point x="420" y="178" type="curve" smooth="yes"/>
      <point x="518" y="178"/>
      <point x="577" y="247"/>
      <point x="577" y="350" type="curve" smooth="yes"/>
      <point x="577" y="453"/>
      <point x="523" y="522"/>
      <point x="420" y="522" type="curve" smooth="yes"/>
      <point x="322" y="522"/>
      <point x="263" y="453"/>
    </contour>
    <contour>
      <point x="30" y="350" type="curve" smooth="yes"/>
      <point x="30" y="574"/>
      <point x="201" y="720"/>
      <point x="420" y="720" type="curve" smooth="yes"/>
      <point x="644" y="720"/>
      <point x="810" y="574"/>
      <point x="810" y="350" type="curve" smooth="yes"/>
      <point x="810" y="126"/>
      <point x="649" y="-30"/>
      <point x="420" y="-30" type="curve" smooth="yes"/>
      <point x="191" y="-30"/>
      <point x="30" y="126"/>
    </contour>
    <contour>
      <point x="255" y="940" type="line"/>
      <point x="395" y="1000" type="line"/>
      <point x="545" y="840" type="line"/>
      <point x="435" y="790" type="line"/>
    </contour>
  </outline>
</glyph>
<glyph name="Otilde" format="1">
  <advance width="840"/>
  <unicode hex="00D5"/>
  <outline>
    <contour>
      <point x="263" y="350" type="curve" smooth="yes"/>
      <point x="263" y="247"/>
      <point x="322" y="178"/>
      <point x="420" y="178" type="curve" smooth="yes"/>
      <point x="518" y="178"/>
      <point x="577" y="247"/>
      <point x="577" y="350" type="curve" smooth="yes"/>
      <point x="577" y="453"/>
      <point x="523" y="522"/>
      <point x="420" y="522" type="curve" smooth="yes"/>
      <point x="322" y="522"/>
      <point x="263" y="453"/>
    </contour>
    <contour>
      <point x="30" y="350" type="curve" smooth="yes"/>
      <point x="30" y="574"/>
      <point x="201" y="720"/>
      <point x="420" y="720" type="curve" smooth="yes"/>
      <point x="644" y="720"/>
      <point x="810" y="574"/>
      <point x="810" y="350" type="curve" smooth="yes"/>
      <point x="810" y="126"/>
      <point x="649" y="-30"/>
      <point x="420" y="-30" type="curve" smooth="yes"/>
      <point x="191" y="-30"/>
      <point x="30" y="126"/>
    </contour>
    <contour>
      <point x="260" y="863" type="line"/>
      <point x="270" y="912"/>
      <point x="319" y="945"/>
      <point x="364" y="945" type="curve" smooth="yes"/>
      <point x="429" y="945"/>
      <point x="434" y="898"/>
      <point x="488" y="898" type="curve" smooth="yes"/>
      <point x="507" y="898"/>
      <point x="524" y="914"/>
      <point x="544" y="946" type="curve"/>
      <point x="590" y="903" type="line"/>
      <point x="574" y="866"/>
      <point x="534" y="830"/>
      <point x="484" y="830" type="curve" smooth="yes"/>
      <point x="429" y="830"/>
      <point x="408" y="877"/>
      <point x="363" y="877" type="curve" smooth="yes"/>
      <point x="322" y="877"/>
      <point x="313" y="841"/>
      <point x="313" y="826" type="curve"/>
    </contour>
  </outline>
</glyph>
<glyph name="Odieresis" format="1">
  <advance width="840"/>
  <unicode hex="00D6"/>
  <outline>
    <contour>
      <point x="263" y="350" type="curve" smooth="yes"/>
      <point x="263" y="247"/>
      <point x="322" y="178"/>
      <point x="420" y="178" type="curve" smooth="yes"/>
      <point x="518" y="178"/>
      <point x="577" y="247"/>
      <point x="577" y="350" type="curve" smooth="yes"/>
      <point x="577" y="453"/>
      <point x="523" y="522"/>
      <point x="420" y="522" type="curve" smooth="yes"/>
      <point x="322" y="522"/>
      <point x="263" y="453"/>
    </contour>
    <contour>
      <point x="30" y="350" type="curve" smooth="yes"/>
      <point x="30" y="574"/>
      <point x="201" y="720"/>
      <point x="420" y="720" type="curve" smooth="yes"/>
      <point x="644" y="720"/>
      <point x="810" y="574"/>
      <point x="810" y="350" type="curve" smooth="yes"/>
      <point x="810" y="126"/>
      <point x="649" y="-30"/>
      <point x="420" y="-30" type="curve" smooth="yes"/>
      <point x="191" y="-30"/>
      <point x="30" y="126"/>
    </contour>
    <contour>
      <point x="447" y="878" type="curve" smooth="yes"/>
      <point x="447" y="937"/>
      <point x="495" y="976"/>
      <point x="555" y="976" type="curve" smooth="yes"/>
      <point x="615" y="976"/>
      <point x="663" y="937"/>
      <point x="663" y="878" type="curve" smooth="yes"/>
      <point x="663" y="819"/>
      <point x="615" y="780"/>
      <point x="555" y="780" type="curve" smooth="yes"/>
      <point x="495" y="780"/>
      <point x="447" y="819"/>
    </contour>
    <contour>
      <point x="177" y="878" type="curve" smooth="yes"/>
      <point x="177" y="937"/>
      <point x="225" y="976"/>
      <point x="285" y="976" type="curve" smooth="yes"/>
      <point x="345" y="976"/>
      <point x="393" y="937"/>
      <point x="393" y="878" type="curve" smooth="yes"/>
      <point x="393" y="819"/>
      <point x="345" y="780"/>
      <point x="285" y="780" type="curve" smooth="yes"/>
      <point x="225" y="780"/>
      <point x="177" y="819"/>
    </contour>
  </outline>
</glyph>
<glyph name="Ucircumflex" format="2">
  <advance width="746"/>
  <unicode hex="00DB"/>
  <outline>
    <contour>
      <point x="65" y="700" type="line"/>
      <point x="285" y="700" type="line"/>
      <point x="285" y="250" type="line" smooth="yes"/>
      <point x="285" y="194"/>
      <point x="313" y="155"/>
      <point x="373" y="155" type="curve" smooth="yes"/>
      <point x="433" y="155"/>
      <point x="461" y="194"/>
      <point x="461" y="250" type="curve" smooth="yes"/>
      <point x="461" y="700" type="line"/>
      <point x="681" y="700" type="line"/>
      <point x="681" y="230" type="line" smooth="yes"/>
      <point x="681" y="31"/>
      <point x="538" y="-40"/>
      <point x="373" y="-40" type="curve" smooth="yes"/>
      <point x="208" y="-40"/>
      <point x="65" y="31"/>
      <point x="65" y="230" type="curve" smooth="yes"/>
    </contour>
    <contour>
      <point x="373" y="860" type="line"/>
      <point x="293" y="780" type="line"/>
      <point x="153" y="870" type="line"/>
      <point x="373" y="1010" type="line"/>
      <point x="593" y="870" type="line"/>
      <point x="453" y="780" type="line"/>
    </contour>
  </outline>
</glyph>
<glyph name="Udieresis" format="2">
  <advance width="746"/>
  <unicode hex="00DC"/>
  <outline>
    <contour>
      <point x="65" y="700" type="line"/>
      <point x="285" y="700" type="line"/>
      <point x="285" y="250" type="line" smooth="yes"/>
      <point x="285" y="194"/>
      <point x="313" y="155"/>
      <point x="373" y="155" type="curve" smooth="yes"/>
      <point x="433" y="155"/>
      <point x="461" y="194"/>
      <point x="461" y="250" type="curve" smooth="yes"/>
      <point x="461" y="700" type="line"/>
      <point x="681" y="700" type="line"/>
      <point x="681" y="230" type="line" smooth="yes"/>
      <point x="681" y="31"/>
      <point x="538" y="-40"/>
      <point x="373" y="-40" type="curve" smooth="yes"/>
      <point x="208" y="-40"/>
      <point x="65" y="31"/>
      <point x="65" y="230" type="curve" smooth="yes"/>
    </contour>
    <contour>
      <point x="430" y="878" type="curve" smooth="yes"/>
      <point x="430" y="937"/>
      <point x="478" y="976"/>
      <point x="538" y="976" type="curve" smooth="yes"/>
      <point x="598" y="976"/>
      <point x="646" y="937"/>
      <point x="646" y="878" type="curve" smooth="yes"/>
      <point x="646" y="819"/>
      <point x="598" y="780"/>
      <point x="538" y="780" type="curve" smooth="yes"/>
      <point x="478" y="780"/>
      <point x="430" y="819"/>
    </contour>
    <contour>
      <point x="100" y="878" type="curve" smooth="yes"/>
      <point x="100" y="937"/>
      <point x="148" y="976"/>
      <point x="208" y="976" type="curve" smooth="yes"/>
      <point x="268" y="976"/>
      <point x="316" y="937"/>
      <point x="316" y="878" type="curve" smooth="yes"/>
      <point x="316" y="819"/>
      <point x="268" y="780"/>
      <point x="208" y="780" type="curve" smooth="yes"/>
      <point x="148" y="780"/>
      <point x="100" y="819"/>
    </contour>
  </outline>
</glyph>
<glyph name="Thorn" format="1">
  <advance width="650"/>
  <unicode hex="00DE"/>
  <outline>
    <contour>
      <point x="80" y="700" type="line"/>
      <point x="265" y="700" type="line"/>
      <point x="265" y="0" type="line"/>
      <point x="80" y="0" type="line"/>
    </contour>
    <contour>
      <point x="202" y="425" type="line"/>
      <point x="202" y="590" type="line"/>
      <point x="335" y="590" type="line" smooth="yes"/>
      <point x="540" y="590"/>
      <point x="628" y="504"/>
      <point x="628" y="355" type="curve" smooth="yes"/>
      <point x="628" y="206"/>
      <point x="540" y="120"/>
      <point x="335" y="120" type="curve" smooth="yes"/>
      <point x="202" y="120" type="line"/>
      <point x="202" y="285" type="line"/>
      <point x="335" y="285" type="line" smooth="yes"/>
      <point x="404" y="285"/>
      <point x="438" y="299"/>
      <point x="438" y="355" type="curve" smooth="yes"/>
      <point x="438" y="411"/>
      <point x="404" y="425"/>
      <point x="335" y="425" type="curve" smooth="yes"/>
    </contour>
  </outline>
</glyph>
<glyph name="germandbls" format="2">
  <advance width="605"/>
  <unicode hex="00DF"/>
  <outline>
    <contour>
      <point x="287" y="165" type="line"/>
      <point x="367" y="165"/>
      <point x="399" y="209"/>
      <point x="399" y="265" type="curve" smooth="yes"/>
      <point x="399" y="311"/>
      <point x="387" y="345"/>
      <point x="277" y="345" type="curve"/>
      <point x="277" y="480" type="line"/>
      <point x="452" y="480"/>
      <point x="595" y="384"/>
      <point x="595" y="225" type="curve" smooth="yes"/>
      <point x="595" y="66"/>
      <point x="482" y="-10"/>
      <point x="287" y="-10" type="curve"/>
    </contour>
    <contour>
      <point x="277" y="405" type="curve"/>
      <point x="277" y="520" type="line"/>
      <point x="347" y="520"/>
      <point x="359" y="540"/>
      <point x="359" y="576" type="curve" smooth="yes"/>
      <point x="359" y="612"/>
      <point x="332" y="625"/>
      <point x="292" y="625" type="curve" smooth="yes"/>
      <point x="242" y="625"/>
      <point x="225" y="602"/>
      <point x="225" y="576" type="curve" smooth="yes"/>
      <point x="225" y="0" type="line"/>
      <point x="40" y="0" type="line"/>
      <point x="40" y="606" type="line" smooth="yes"/>
      <point x="40" y="735"/>
      <point x="157" y="800"/>
      <point x="292" y="800" type="curve" smooth="yes"/>
      <point x="457" y="800"/>
      <point x="545" y="715"/>
      <point x="545" y="606" type="curve" smooth="yes"/>
      <point x="545" y="487"/>
      <point x="452" y="405"/>
    </contour>
  </outline>
</glyph>
<glyph name="aring" format="2">
  <advance width="580"/>
  <unicode hex="00E5"/>
  <outline>
    <contour>
      <point x="216" y="139" type="curve" smooth="yes"/>
      <point x="216" y="115"/>
      <point x="238" y="106"/>
      <point x="263" y="106" type="curve" smooth="yes"/>
      <point x="303" y="106"/>
      <point x="345" y="124"/>
      <point x="345" y="190" type="curve"/>
      <point x="361" y="130" type="line"/>
      <point x="361" y="41"/>
      <point x="288" y="-10"/>
      <point x="193" y="-10" type="curve" smooth="yes"/>
      <point x="88" y="-10"/>
      <point x="20" y="41"/>
      <point x="20" y="130" type="curve" smooth="yes"/>
      <point x="20" y="217"/>
      <point x="100" y="275"/>
      <point x="221" y="275" type="curve" smooth="yes"/>
      <point x="279" y="275"/>
      <point x="354" y="257"/>
      <point x="378" y="233" type="curve"/>
      <point x="378" y="147" type="line"/>
      <point x="350" y="169"/>
      <point x="323" y="180"/>
      <point x="275" y="180" type="curve" smooth="yes"/>
      <point x="241" y="180"/>
      <point x="216" y="163"/>
    </contour>
    <contour>
      <point x="121" y="298" type="curve"/>
      <point x="62" y="424" type="line"/>
      <point x="126" y="449"/>
      <point x="210" y="475"/>
      <point x="293" y="475" type="curve" smooth="yes"/>
      <point x="428" y="475"/>
      <point x="530" y="419"/>
      <point x="530" y="320" type="curve" smooth="yes"/>
      <point x="530" y="0" type="line"/>
      <point x="345" y="0" type="line"/>
      <point x="345" y="272" type="line" smooth="yes"/>
      <point x="345" y="307"/>
      <point x="323" y="333"/>
      <point x="273" y="333" type="curve" smooth="yes"/>
      <point x="207" y="333"/>
      <point x="143" y="309"/>
    </contour>
    <contour>
      <point x="154" y="660" type="curve" smooth="yes"/>
      <point x="154" y="734"/>
      <point x="212" y="785"/>
      <point x="292" y="785" type="curve" smooth="yes"/>
      <point x="372" y="785"/>
      <point x="432" y="734"/>
      <point x="432" y="660" type="curve" smooth="yes"/>
      <point x="432" y="586"/>
      <point x="372" y="535"/>
      <point x="292" y="535" type="curve" smooth="yes"/>
      <point x="212" y="535"/>
      <point x="154" y="586"/>
    </contour>
    <contour>
      <point x="249" y="660" type="curve" smooth="yes"/>
      <point x="249" y="632"/>
      <point x="267" y="616"/>
      <point x="292" y="616" type="curve" smooth="yes"/>
      <point x="317" y="616"/>
      <point x="336" y="632"/>
      <point x="336" y="660" type="curve" smooth="yes"/>
      <point x="336" y="688"/>
      <point x="317" y="705"/>
      <point x="292" y="705" type="curve" smooth="yes"/>
      <point x="267" y="705"/>
      <point x="249" y="688"/>
    </contour>
  </outline>
</glyph>
<glyph name="ae" format="2">
  <advance width="939"/>
  <unicode hex="00E6"/>
  <outline>
    <contour>
      <point x="216" y="139" type="curve" smooth="yes"/>
      <point x="216" y="115"/>
      <point x="238" y="106"/>
      <point x="263" y="106" type="curve" smooth="yes"/>
      <point x="303" y="106"/>
      <point x="345" y="124"/>
      <point x="345" y="190" type="curve"/>
      <point x="431" y="130" type="line"/>
      <point x="431" y="41"/>
      <point x="368" y="-10"/>
      <point x="223" y="-10" type="curve" smooth="yes"/>
      <point x="98" y="-10"/>
      <point x="20" y="41"/>
      <point x="20" y="130" type="curve" smooth="yes"/>
      <point x="20" y="217"/>
      <point x="100" y="275"/>
      <point x="221" y="275" type="curve" smooth="yes"/>
      <point x="279" y="275"/>
      <point x="354" y="257"/>
      <point x="378" y="233" type="curve"/>
      <point x="378" y="147" type="line"/>
      <point x="350" y="169"/>
      <point x="323" y="180"/>
      <point x="275" y="180" type="curve" smooth="yes"/>
      <point x="241" y="180"/>
      <point x="216" y="163"/>
    </contour>
    <contour>
      <point x="121" y="298" type="curve"/>
      <point x="62" y="424" type="line"/>
      <point x="126" y="449"/>
      <point x="210" y="475"/>
      <point x="293" y="475" type="curve" smooth="yes"/>
      <point x="428" y="475"/>
      <point x="460" y="419"/>
      <point x="460" y="320" type="curve" smooth="yes"/>
      <point x="460" y="130" type="line"/>
      <point x="345" y="130" type="line"/>
      <point x="345" y="272" type="line" smooth="yes"/>
      <point x="345" y="307"/>
      <point x="323" y="333"/>
      <point x="273" y="333" type="curve" smooth="yes"/>
      <point x="207" y="333"/>
      <point x="143" y="309"/>
    </contour>
    <contour>
      <point x="426" y="190" type="line"/>
      <point x="426" y="284" type="line"/>
      <point x="889" y="284" type="line"/>
      <point x="903" y="190" type="line"/>
    </contour>
    <contour>
      <point x="700" y="240" type="line" smooth="yes"/>
      <point x="700" y="316"/>
      <point x="683" y="350"/>
      <point x="633" y="350" type="curve" smooth="yes"/>
      <point x="583" y="350"/>
      <point x="558" y="316"/>
      <point x="558" y="250" type="curve"/>
      <point x="556" y="230" type="line"/>
      <point x="556" y="144"/>
      <point x="598" y="120"/>
      <point x="638" y="120" type="curve" smooth="yes"/>
      <point x="685" y="120"/>
      <point x="718" y="135"/>
      <point x="734" y="165" type="curve"/>
      <point x="912" y="137" type="line"/>
      <point x="866" y="47"/>
      <point x="787" y="-10"/>
      <point x="648" y="-10" type="curve" smooth="yes"/>
      <point x="453" y="-10"/>
      <point x="410" y="91"/>
      <point x="410" y="230" type="curve" smooth="yes"/>
      <point x="410" y="247"/>
      <point x="411" y="263"/>
      <point x="414" y="279" type="curve" smooth="yes"/>
      <point x="433" y="392"/>
      <point x="519" y="470"/>
      <point x="668" y="470" type="curve" smooth="yes"/>
      <point x="818" y="470"/>
      <point x="905" y="384"/>
      <point x="905" y="239" type="curve" smooth="yes"/>
      <point x="905" y="231"/>
      <point x="905" y="211"/>
      <point x="903" y="190" type="curve"/>
      <point x="700" y="210" type="line"/>
    </contour>
  </outline>
</glyph>
<glyph name="ccedilla" format="2">
  <advance width="503"/>
  <unicode hex="00E7"/>
  <outline>
    <contour>
      <point x="231" y="230" type="curve" smooth="yes"/>
      <point x="231" y="169"/>
      <point x="278" y="138"/>
      <point x="333" y="138" type="curve" smooth="yes"/>
      <point x="377" y="138"/>
      <point x="422" y="154"/>
      <point x="453" y="197" type="curve"/>
      <point x="453" y="21" type="line"/>
      <point x="421" y="3"/>
      <point x="386" y="-10"/>
      <point x="313" y="-10" type="curve" smooth="yes"/>
      <point x="148" y="-10"/>
      <point x="30" y="81"/>
      <point x="30" y="230" type="curve" smooth="yes"/>
      <point x="30" y="379"/>
      <point x="148" y="470"/>
      <point x="313" y="470" type="curve" smooth="yes"/>
      <point x="386" y="470"/>
      <point x="421" y="455"/>
      <point x="453" y="441" type="curve"/>
      <point x="453" y="264" type="line"/>
      <point x="422" y="307"/>
      <point x="367" y="322"/>
      <point x="333" y="322" type="curve" smooth="yes"/>
      <point x="278" y="322"/>
      <point x="231" y="281"/>
    </contour>
    <contour>
      <point x="225" y="61.9336" type="line"/>
      <point x="365" y="55.9336" type="line"/>
      <point x="265.141" y="-71.5791" type="line"/>
      <point x="280.899" y="-67.3271"/>
      <point x="298.295" y="-66.0664"/>
      <point x="318" y="-66.0664" type="curve" smooth="yes"/>
      <point x="362" y="-66.0664"/>
      <point x="421" y="-102.066"/>
      <point x="421" y="-178.066" type="curve" smooth="yes"/>
      <point x="421" y="-257.066"/>
      <point x="343" y="-296.066"/>
      <point x="275" y="-296.066" type="curve" smooth="yes"/>
      <point x="208" y="-296.066"/>
      <point x="156" y="-287.066"/>
      <point x="98" y="-256.066" type="curve"/>
      <point x="151" y="-170.066" type="line"/>
      <point x="180" y="-190.066"/>
      <point x="227" y="-196.066"/>
      <point x="243" y="-196.066" type="curve" smooth="yes"/>
      <point x="277" y="-196.066"/>
      <point x="300" y="-188.066"/>
      <point x="300" y="-164.066" type="curve" smooth="yes"/>
      <point x="300" y="-136.066"/>
      <point x="262" y="-134.066"/>
      <point x="233" y="-134.066" type="curve" smooth="yes"/>
      <point x="223" y="-134.066"/>
      <point x="179" y="-135.066"/>
      <point x="136" y="-149.066" type="curve"/>
    </contour>
  </outline>
</glyph>
<glyph name="iacute" format="2">
  <advance width="286"/>
  <unicode hex="00ED"/>
  <outline>
    <contour>
      <point x="49" y="460" type="line"/>
      <point x="236" y="460" type="line"/>
      <point x="236" y="0" type="line"/>
      <point x="49" y="0" type="line"/>
    </contour>
    <contour>
      <point x="322" y="681" type="line"/>
      <point x="142" y="531" type="line"/>
      <point x="32" y="581" type="line"/>
      <point x="182" y="741" type="line"/>
    </contour>
  </outline>
</glyph>
<glyph name="idieresis" format="2">
  <advance width="286"/>
  <unicode hex="00EF"/>
  <outline>
    <contour>
      <point x="49" y="460" type="line"/>
      <point x="236" y="460" type="line"/>
      <point x="236" y="0" type="line"/>
      <point x="49" y="0" type="line"/>
    </contour>
    <contour>
      <point x="170" y="629" type="curve" smooth="yes"/>
      <point x="170" y="688"/>
      <point x="218" y="727"/>
      <point x="278" y="727" type="curve" smooth="yes"/>
      <point x="338" y="727"/>
      <point x="386" y="688"/>
      <point x="386" y="629" type="curve" smooth="yes"/>
      <point x="386" y="570"/>
      <point x="338" y="531"/>
      <point x="278" y="531" type="curve" smooth="yes"/>
      <point x="218" y="531"/>
      <point x="170" y="570"/>
    </contour>
    <contour>
      <point x="-100" y="629" type="curve" smooth="yes"/>
      <point x="-100" y="688"/>
      <point x="-52" y="727"/>
      <point x="8" y="727" type="curve" smooth="yes"/>
      <point x="68" y="727"/>
      <point x="116" y="688"/>
      <point x="116" y="629" type="curve" smooth="yes"/>
      <point x="116" y="570"/>
      <point x="68" y="531"/>
      <point x="8" y="531" type="curve" smooth="yes"/>
      <point x="-52" y="531"/>
      <point x="-100" y="570"/>
    </contour>
  </outline>
</glyph>
<glyph name="eth" format="2">
  <advance width="726"/>
  <unicode hex="00F0"/>
  <outline>
    <contour>
      <point x="457" y="255" type="curve" smooth="yes"/>
      <point x="457" y="311"/>
      <point x="416" y="347"/>
      <point x="363" y="347" type="curve" smooth="yes"/>
      <point x="310" y="347"/>
      <point x="269" y="311"/>
      <point x="269" y="255" type="curve" smooth="yes"/>
      <point x="269" y="199"/>
      <point x="310" y="165"/>
      <point x="363" y="165" type="curve" smooth="yes"/>
      <point x="416" y="165"/>
      <point x="457" y="199"/>
    </contour>
    <contour>
      <point x="391" y="695" type="line"/>
      <point x="572" y="480" type="line" smooth="yes"/>
      <point x="629" y="412"/>
      <point x="676" y="342"/>
      <point x="676" y="255" type="curve" smooth="yes"/>
      <point x="676" y="66"/>
      <point x="533" y="-20"/>
      <point x="363" y="-20" type="curve" smooth="yes"/>
      <point x="193" y="-20"/>
      <point x="50" y="66"/>
      <point x="50" y="255" type="curve" smooth="yes"/>
      <point x="50" y="404"/>
      <point x="173" y="483"/>
      <point x="272" y="483" type="curve" smooth="yes"/>
      <point x="325" y="483"/>
      <point x="351" y="475"/>
      <point x="395" y="437" type="curve"/>
      <point x="343" y="464" type="line"/>
      <point x="112" y="695" type="line"/>
    </contour>
    <contour>
      <point x="125" y="520" type="line"/>
      <point x="125" y="605" type="line"/>
      <point x="645" y="605" type="line"/>
      <point x="645" y="520" type="line"/>
    </contour>
  </outline>
</glyph>
<glyph name="oacute" format="2">
  <advance width="616"/>
  <unicode hex="00F3"/>
  <outline>
    <contour>
      <point x="30" y="230" type="curve" smooth="yes"/>
      <point x="30" y="379"/>
      <point x="148" y="471"/>
      <point x="308" y="471" type="curve" smooth="yes"/>
      <point x="468" y="471"/>
      <point x="586" y="379"/>
      <point x="586" y="230" type="curve" smooth="yes"/>
      <point x="586" y="81"/>
      <point x="468" y="-10"/>
      <point x="308" y="-10" type="curve" smooth="yes"/>
      <point x="148" y="-10"/>
      <point x="30" y="81"/>
    </contour>
    <contour>
      <point x="231" y="230" type="curve" smooth="yes"/>
      <point x="231" y="174"/>
      <point x="268" y="145"/>
      <point x="308" y="145" type="curve" smooth="yes"/>
      <point x="348" y="145"/>
      <point x="385" y="174"/>
      <point x="385" y="230" type="curve" smooth="yes"/>
      <point x="385" y="286"/>
      <point x="348" y="316"/>
      <point x="308" y="316" type="curve" smooth="yes"/>
      <point x="268" y="316"/>
      <point x="231" y="286"/>
    </contour>
    <contour>
      <point x="468" y="681" type="line"/>
      <point x="288" y="531" type="line"/>
      <point x="178" y="581" type="line"/>
      <point x="328" y="741" type="line"/>
    </contour>
  </outline>
</glyph>
<glyph name="odieresis" format="2">
  <advance width="616"/>
  <unicode hex="00F6"/>
  <outline>
    <contour>
      <point x="30" y="230" type="curve" smooth="yes"/>
      <point x="30" y="379"/>
      <point x="148" y="471"/>
      <point x="308" y="471" type="curve" smooth="yes"/>
      <point x="468" y="471"/>
      <point x="586" y="379"/>
      <point x="586" y="230" type="curve" smooth="yes"/>
      <point x="586" y="81"/>
      <point x="468" y="-10"/>
      <point x="308" y="-10" type="curve" smooth="yes"/>
      <point x="148" y="-10"/>
      <point x="30" y="81"/>
    </contour>
    <contour>
      <point x="231" y="230" type="curve" smooth="yes"/>
      <point x="231" y="174"/>
      <point x="268" y="145"/>
      <point x="308" y="145" type="curve" smooth="yes"/>
      <point x="348" y="145"/>
      <point x="385" y="174"/>
      <point x="385" y="230" type="curve" smooth="yes"/>
      <point x="385" y="286"/>
      <point x="348" y="316"/>
      <point x="308" y="316" type="curve" smooth="yes"/>
      <point x="268" y="316"/>
      <point x="231" y="286"/>
    </contour>
    <contour>
      <point x="335" y="629" type="curve" smooth="yes"/>
      <point x="335" y="688"/>
      <point x="383" y="727"/>
      <point x="443" y="727" type="curve" smooth="yes"/>
      <point x="503" y="727"/>
      <point x="551" y="688"/>
      <point x="551" y="629" type="curve" smooth="yes"/>
      <point x="551" y="570"/>
      <point x="503" y="531"/>
      <point x="443" y="531" type="curve" smooth="yes"/>
      <point x="383" y="531"/>
      <point x="335" y="570"/>
    </contour>
    <contour>
      <point x="65" y="629" type="curve" smooth="yes"/>
      <point x="65" y="688"/>
      <point x="113" y="727"/>
      <point x="173" y="727" type="curve" smooth="yes"/>
      <point x="233" y="727"/>
      <point x="281" y="688"/>
      <point x="281" y="629" type="curve" smooth="yes"/>
      <point x="281" y="570"/>
      <point x="233" y="531"/>
      <point x="173" y="531" type="curve" smooth="yes"/>
      <point x="113" y="531"/>
      <point x="65" y="570"/>
    </contour>
  </outline>
</glyph>
<glyph name="divide" format="2">
  <advance width="650"/>
  <unicode hex="00F7"/>
  <outline>
    <contour>
      <point x="207" y="615" type="curve" smooth="yes"/>
      <point x="207" y="678"/>
      <point x="255" y="730"/>
      <point x="325" y="730" type="curve" smooth="yes"/>
      <point x="395" y="730"/>
      <point x="443" y="678"/>
      <point x="443" y="615" type="curve" smooth="yes"/>
      <point x="443" y="552"/>
      <point x="395" y="500"/>
      <point x="325" y="500" type="curve" smooth="yes"/>
      <point x="255" y="500"/>
      <point x="207" y="552"/>
    </contour>
    <contour>
      <point x="207" y="115" type="curve" smooth="yes"/>
      <point x="207" y="178"/>
      <point x="255" y="230"/>
      <point x="325" y="230" type="curve" smooth="yes"/>
      <point x="395" y="230"/>
      <point x="443" y="178"/>
      <point x="443" y="115" type="curve" smooth="yes"/>
      <point x="443" y="52"/>
      <point x="395" y="0"/>
      <point x="325" y="0" type="curve" smooth="yes"/>
      <point x="255" y="0"/>
      <point x="207" y="52"/>
    </contour>
    <contour>
      <point x="5" y="280" type="line"/>
      <point x="5" y="450" type="line"/>
      <point x="645" y="450" type="line"/>
      <point x="645" y="280" type="line"/>
    </contour>
  </outline>
</glyph>
<glyph name="uacute" format="2">
  <advance width="605"/>
  <unicode hex="00FA"/>
  <outline>
    <contour>
      <point x="360" y="0" type="line"/>
      <point x="360" y="460" type="line"/>
      <point x="555" y="460" type="line"/>
      <point x="555" y="0" type="line"/>
    </contour>
    <contour>
      <point x="255" y="180" type="line" smooth="yes"/>
      <point x="255" y="139"/>
      <point x="263" y="114"/>
      <point x="303" y="114" type="curve" smooth="yes"/>
      <point x="338" y="114"/>
      <point x="360" y="134"/>
      <point x="360" y="180" type="curve"/>
      <point x="386" y="190" type="line"/>
      <point x="386" y="81"/>
      <point x="343" y="-11"/>
      <point x="218" y="-11" type="curve" smooth="yes"/>
      <point x="93" y="-11"/>
      <point x="50" y="51"/>
      <point x="50" y="160" type="curve" smooth="yes"/>
      <point x="50" y="460" type="line"/>
      <point x="255" y="460" type="line"/>
    </contour>
    <contour>
      <point x="462" y="681" type="line"/>
      <point x="282" y="531" type="line"/>
      <point x="172" y="581" type="line"/>
      <point x="322" y="741" type="line"/>
    </contour>
  </outline>
</glyph>
<glyph name="ucircumflex" format="1">
  <advance width="605"/>
  <unicode hex="00FB"/>
  <outline>
    <contour>
      <point x="360" y="0" type="line"/>
      <point x="360" y="460" type="line"/>
      <point x="555" y="460" type="line"/>
      <point x="555" y="0" type="line"/>
    </contour>
    <contour>
      <point x="255" y="180" type="line" smooth="yes"/>
      <point x="255" y="139"/>
      <point x="263" y="114"/>
      <point x="303" y="114" type="curve" smooth="yes"/>
      <point x="338" y="114"/>
      <point x="360" y="134"/>
      <point x="360" y="180" type="curve"/>
      <point x="386" y="190" type="line"/>
      <point x="386" y="81"/>
      <point x="343" y="-11"/>
      <point x="218" y="-11" type="curve" smooth="yes"/>
      <point x="93" y="-11"/>
      <point x="50" y="51"/>
      <point x="50" y="160" type="curve" smooth="yes"/>
      <point x="50" y="460" type="line"/>
      <point x="255" y="460" type="line"/>
    </contour>
    <contour>
      <point x="302" y="611" type="line"/>
      <point x="222" y="531" type="line"/>
      <point x="82" y="621" type="line"/>
      <point x="302" y="761" type="line"/>
      <point x="522" y="621" type="line"/>
      <point x="382" y="531" type="line"/>
    </contour>
  </outline>
</glyph>
<glyph name="Amacron" format="2">
  <advance width="780"/>
  <unicode hex="0100"/>
  <outline>
    <contour>
      <point x="207" y="90" type="line"/>
      <point x="207" y="248" type="line"/>
      <point x="577" y="248" type="line"/>
      <point x="577" y="90" type="line"/>
    </contour>
    <contour>
      <point x="390" y="382" type="line"/>
      <point x="304" y="189" type="line"/>
      <point x="321" y="139" type="line"/>
      <point x="245" y="0" type="line"/>
      <point x="-5" y="0" type="line"/>
      <point x="390" y="750" type="line"/>
      <point x="785" y="0" type="line"/>
      <point x="535" y="0" type="line"/>
      <point x="461" y="132" type="line"/>
      <point x="476" y="189" type="line"/>
    </contour>
    <contour>
      <point x="198" y="810" type="line"/>
      <point x="198" y="975" type="line"/>
      <point x="582" y="975" type="line"/>
      <point x="582" y="810" type="line"/>
    </contour>
  </outline>
</glyph>
<glyph name="Abreve" format="2">
  <advance width="780"/>
  <unicode hex="0102"/>
  <outline>
    <contour>
      <point x="207" y="90" type="line"/>
      <point x="207" y="248" type="line"/>
      <point x="577" y="248" type="line"/>
      <point x="577" y="90" type="line"/>
    </contour>
    <contour>
      <point x="390" y="382" type="line"/>
      <point x="304" y="189" type="line"/>
      <point x="321" y="139" type="line"/>
      <point x="245" y="0" type="line"/>
      <point x="-5" y="0" type="line"/>
      <point x="390" y="750" type="line"/>
      <point x="785" y="0" type="line"/>
      <point x="535" y="0" type="line"/>
      <point x="461" y="132" type="line"/>
      <point x="476" y="189" type="line"/>
    </contour>
    <contour>
      <point x="222" y="960" type="curve"/>
      <point x="338" y="960" type="line"/>
      <point x="338" y="919"/>
      <point x="370" y="910"/>
      <point x="390" y="910" type="curve" smooth="yes"/>
      <point x="410" y="910"/>
      <point x="442" y="919"/>
      <point x="442" y="960" type="curve"/>
      <point x="558" y="960" type="line"/>
      <point x="558" y="871"/>
      <point x="495" y="810"/>
      <point x="390" y="810" type="curve" smooth="yes"/>
      <point x="285" y="810"/>
      <point x="222" y="871"/>
    </contour>
  </outline>
</glyph>
<glyph name="Cacute" format="1">
  <advance width="710"/>
  <unicode hex="0106"/>
  <outline>
    <contour>
      <point x="272" y="350" type="curve" smooth="yes"/>
      <point x="272" y="242"/>
      <point x="353" y="187"/>
      <point x="451" y="187" type="curve" smooth="yes"/>
      <point x="550" y="187"/>
      <point x="606" y="231"/>
      <point x="650" y="273" type="curve"/>
      <point x="650" y="47" type="line"/>
      <point x="595" y="9"/>
      <point x="537" y="-20"/>
      <point x="435" y="-20" type="curve" smooth="yes"/>
      <point x="191" y="-20"/>
      <point x="30" y="126"/>
      <point x="30" y="350" type="curve" smooth="yes"/>
      <point x="30" y="574"/>
      <point x="191" y="720"/>
      <point x="435" y="720" type="curve" smooth="yes"/>
      <point x="537" y="720"/>
      <point x="595" y="691"/>
      <point x="650" y="653" type="curve"/>
      <point x="650" y="427" type="line"/>
      <point x="606" y="469"/>
      <point x="550" y="513"/>
      <point x="451" y="513" type="curve" smooth="yes"/>
      <point x="353" y="513"/>
      <point x="272" y="458"/>
    </contour>
    <contour>
      <point x="565" y="930" type="line"/>
      <point x="385" y="780" type="line"/>
      <point x="275" y="830" type="line"/>
      <point x="425" y="990" type="line"/>
    </contour>
  </outline>
</glyph>
<glyph name="ccaron" format="2">
  <advance width="503"/>
  <unicode hex="010D"/>
  <outline>
    <contour>
      <point x="231" y="230" type="curve" smooth="yes"/>
      <point x="231" y="169"/>
      <point x="278" y="138"/>
      <point x="333" y="138" type="curve" smooth="yes"/>
      <point x="377" y="138"/>
      <point x="422" y="154"/>
      <point x="453" y="197" type="curve"/>
      <point x="453" y="21" type="line"/>
      <point x="421" y="3"/>
      <point x="386" y="-10"/>
      <point x="313" y="-10" type="curve" smooth="yes"/>
      <point x="148" y="-10"/>
      <point x="30" y="81"/>
      <point x="30" y="230" type="curve" smooth="yes"/>
      <point x="30" y="379"/>
      <point x="148" y="470"/>
      <point x="313" y="470" type="curve" smooth="yes"/>
      <point x="386" y="470"/>
      <point x="421" y="455"/>
      <point x="453" y="441" type="curve"/>
      <point x="453" y="264" type="line"/>
      <point x="422" y="307"/>
      <point x="367" y="322"/>
      <point x="333" y="322" type="curve" smooth="yes"/>
      <point x="278" y="322"/>
      <point x="231" y="281"/>
    </contour>
    <contour>
      <point x="263" y="681" type="line"/>
      <point x="343" y="761" type="line"/>
      <point x="483" y="671" type="line"/>
      <point x="263" y="531" type="line"/>
      <point x="43" y="671" type="line"/>
      <point x="183" y="761" type="line"/>
    </contour>
  </outline>
</glyph>
<glyph name="Dcaron" format="2">
  <advance width="765"/>
  <unicode hex="010E"/>
  <outline>
    <contour>
      <point x="70" y="700" type="line"/>
      <point x="299" y="700" type="line"/>
      <point x="299" y="0" type="line"/>
      <point x="70" y="0" type="line"/>
    </contour>
    <contour>
      <point x="345" y="0" type="curve" smooth="yes"/>
      <point x="222" y="0" type="line"/>
      <point x="222" y="190" type="line"/>
      <point x="335" y="190" type="line" smooth="yes"/>
      <point x="413" y="190"/>
      <point x="505" y="207"/>
      <point x="505" y="350" type="curve" smooth="yes"/>
      <point x="505" y="493"/>
      <point x="413" y="510"/>
      <point x="335" y="510" type="curve" smooth="yes"/>
      <point x="222" y="510" type="line"/>
      <point x="222" y="700" type="line"/>
      <point x="345" y="700" type="line" smooth="yes"/>
      <point x="589" y="700"/>
      <point x="735" y="569"/>
      <point x="735" y="350" type="curve" smooth="yes"/>
      <point x="735" y="131"/>
      <point x="589" y="0"/>
    </contour>
    <contour>
      <point x="402.5" y="930" type="line"/>
      <point x="482.5" y="1010" type="line"/>
      <point x="622.5" y="920" type="line"/>
      <point x="402.5" y="780" type="line"/>
      <point x="182.5" y="920" type="line"/>
      <point x="322.5" y="1010" type="line"/>
    </contour>
  </outline>
</glyph>
<glyph name="dcaron" format="2">
  <advance width="645"/>
  <unicode hex="010F"/>
  <outline>
    <contour>
      <point x="400" y="780" type="line"/>
      <point x="595" y="780" type="line"/>
      <point x="595" y="0" type="line"/>
      <point x="400" y="0" type="line"/>
    </contour>
    <contour>
      <point x="30" y="230" type="curve" smooth="yes"/>
      <point x="30" y="389"/>
      <point x="138" y="470"/>
      <point x="243" y="470" type="curve" smooth="yes"/>
      <point x="358" y="470"/>
      <point x="446" y="379"/>
      <point x="446" y="230" type="curve" smooth="yes"/>
      <point x="446" y="81"/>
      <point x="358" y="-10"/>
      <point x="243" y="-10" type="curve" smooth="yes"/>
      <point x="138" y="-10"/>
      <point x="30" y="71"/>
    </contour>
    <contour>
      <point x="236" y="230" type="curve" smooth="yes"/>
      <point x="236" y="179"/>
      <point x="273" y="140"/>
      <point x="318" y="140" type="curve" smooth="yes"/>
      <point x="358" y="140"/>
      <point x="400" y="174"/>
      <point x="400" y="230" type="curve" smooth="yes"/>
      <point x="400" y="286"/>
      <point x="358" y="320"/>
      <point x="318" y="320" type="curve" smooth="yes"/>
      <point x="273" y="320"/>
      <point x="236" y="281"/>
    </contour>
    <contour>
      <point x="713" y="780" type="line"/>
      <point x="908" y="746" type="line"/>
      <point x="773" y="496" type="line"/>
      <point x="625" y="521" type="line"/>
    </contour>
  </outline>
</glyph>
<glyph name="Ebreve" format="2">
  <advance width="635"/>
  <unicode hex="0114"/>
  <outline>
    <contour>
      <point x="222" y="0" type="line"/>
      <point x="222" y="175" type="line"/>
      <point x="575" y="175" type="line"/>
      <point x="575" y="0" type="line"/>
    </contour>
    <contour>
      <point x="222" y="525" type="line"/>
      <point x="222" y="700" type="line"/>
      <point x="575" y="700" type="line"/>
      <point x="575" y="525" type="line"/>
    </contour>
    <contour>
      <point x="222" y="275" type="line"/>
      <point x="222" y="445" type="line"/>
      <point x="555" y="445" type="line"/>
      <point x="555" y="275" type="line"/>
    </contour>
    <contour>
      <point x="70" y="700" type="line"/>
      <point x="280" y="700" type="line"/>
      <point x="280" y="0" type="line"/>
      <point x="70" y="0" type="line"/>
    </contour>
    <contour>
      <point x="154" y="930" type="curve"/>
      <point x="270" y="930" type="line"/>
      <point x="270" y="889"/>
      <point x="302" y="880"/>
      <point x="322" y="880" type="curve" smooth="yes"/>
      <point x="342" y="880"/>
      <point x="374" y="889"/>
      <point x="374" y="930" type="curve"/>
      <point x="490" y="930" type="line"/>
      <point x="490" y="841"/>
      <point x="427" y="780"/>
      <point x="322" y="780" type="curve" smooth="yes"/>
      <point x="217" y="780"/>
      <point x="154" y="841"/>
    </contour>
  </outline>
</glyph>
<glyph name="eogonek" format="1">
  <advance width="609"/>
  <unicode hex="0119"/>
  <outline>
    <contour>
      <point x="136" y="190" type="line"/>
      <point x="136" y="284" type="line"/>
      <point x="367.382" y="284" type="line"/>
      <point x="360.964" y="329.27"/>
      <point x="342.042" y="350"/>
      <point x="303" y="350" type="curve" smooth="yes"/>
      <point x="253" y="350"/>
      <point x="228" y="316"/>
      <point x="228" y="250" type="curve"/>
      <point x="226" y="230" type="line"/>
      <point x="226" y="144"/>
      <point x="268" y="120"/>
      <point x="308" y="120" type="curve" smooth="yes"/>
      <point x="355" y="120"/>
      <point x="388" y="135"/>
      <point x="404" y="165" type="curve"/>
      <point x="582" y="137" type="line"/>
      <point x="536" y="47"/>
      <point x="457" y="-10"/>
      <point x="318" y="-10" type="curve" smooth="yes"/>
      <point x="123" y="-10"/>
      <point x="30" y="91"/>
      <point x="30" y="230" type="curve" smooth="yes"/>
      <point x="30" y="247"/>
      <point x="31" y="263"/>
      <point x="34" y="279" type="curve" smooth="yes"/>
      <point x="53" y="392"/>
      <point x="139" y="470"/>
      <point x="308" y="470" type="curve" smooth="yes"/>
      <point x="488" y="470"/>
      <point x="575" y="384"/>
      <point x="575" y="239" type="curve" smooth="yes"/>
      <point x="575" y="231"/>
      <point x="575" y="211"/>
      <point x="573" y="190" type="curve"/>
    </contour>
    <contour>
      <point x="344" y="-86.833" type="curve"/>
      <point x="377" y="-166.833" type="line"/>
      <point x="362" y="-186.833"/>
      <point x="332" y="-206.833"/>
      <point x="269" y="-206.833" type="curve" smooth="yes"/>
      <point x="215" y="-206.833"/>
      <point x="156" y="-175.833"/>
      <point x="156" y="-106.833" type="curve" smooth="yes"/>
      <point x="156" y="-37.833"/>
      <point x="228" y="2.16699"/>
      <point x="298" y="38.167" type="curve"/>
      <point x="339" y="13.167" type="line"/>
      <point x="287" y="-18.833"/>
      <point x="266" y="-49.833"/>
      <point x="266" y="-76.833" type="curve" smooth="yes"/>
      <point x="266" y="-94.833"/>
      <point x="274" y="-106.833"/>
      <point x="294" y="-106.833" type="curve" smooth="yes"/>
      <point x="310" y="-106.833"/>
      <point x="330" y="-99.833"/>
    </contour>
  </outline>
</glyph>
<glyph name="Ecaron" format="1">
  <advance width="635"/>
  <unicode hex="011A"/>
  <outline>
    <contour>
      <point x="222" y="0" type="line"/>
      <point x="222" y="175" type="line"/>
      <point x="575" y="175" type="line"/>
      <point x="575" y="0" type="line"/>
    </contour>
    <contour>
      <point x="222" y="525" type="line"/>
      <point x="222" y="700" type="line"/>
      <point x="575" y="700" type="line"/>
      <point x="575" y="525" type="line"/>
    </contour>
    <contour>
      <point x="222" y="275" type="line"/>
      <point x="222" y="445" type="line"/>
      <point x="555" y="445" type="line"/>
      <point x="555" y="275" type="line"/>
    </contour>
    <contour>
      <point x="70" y="700" type="line"/>
      <point x="280" y="700" type="line"/>
      <point x="280" y="0" type="line"/>
      <point x="70" y="0" type="line"/>
    </contour>
    <contour>
      <point x="322" y="930" type="line"/>
      <point x="402" y="1010" type="line"/>
      <point x="542" y="920" type="line"/>
      <point x="322" y="780" type="line"/>
      <point x="102" y="920" type="line"/>
      <point x="242" y="1010" type="line"/>
    </contour>
  </outline>
</glyph>
<glyph name="Gbreve" format="2">
  <advance width="838"/>
  <unicode hex="011E"/>
  <outline>
    <contour>
      <point x="430" y="240" type="line"/>
      <point x="430" y="400" type="line"/>
      <point x="802" y="400" type="line"/>
      <point x="822" y="161"/>
      <point x="684" y="-30"/>
      <point x="430" y="-30" type="curve" smooth="yes"/>
      <point x="196" y="-30"/>
      <point x="30" y="121"/>
      <point x="30" y="350" type="curve" smooth="yes"/>
      <point x="30" y="579"/>
      <point x="206" y="720"/>
      <point x="440" y="720" type="curve" smooth="yes"/>
      <point x="599" y="720"/>
      <point x="701" y="641"/>
      <point x="771" y="544" type="curve"/>
      <point x="566" y="452" type="line"/>
      <point x="542" y="496"/>
      <point x="507" y="535"/>
      <point x="440" y="535" type="curve" smooth="yes"/>
      <point x="342" y="535"/>
      <point x="260" y="473"/>
      <point x="260" y="350" type="curve" smooth="yes"/>
      <point x="260" y="227"/>
      <point x="332" y="155"/>
      <point x="440" y="155" type="curve" smooth="yes"/>
      <point x="520.624" y="155"/>
      <point x="564.45" y="188.237"/>
      <point x="587.644" y="240" type="curve"/>
    </contour>
    <contour>
      <point x="272" y="930" type="curve"/>
      <point x="388" y="930" type="line"/>
      <point x="388" y="889"/>
      <point x="420" y="880"/>
      <point x="440" y="880" type="curve" smooth="yes"/>
      <point x="460" y="880"/>
      <point x="492" y="889"/>
      <point x="492" y="930" type="curve"/>
      <point x="608" y="930" type="line"/>
      <point x="608" y="841"/>
      <point x="545" y="780"/>
      <point x="440" y="780" type="curve" smooth="yes"/>
      <point x="335" y="780"/>
      <point x="272" y="841"/>
    </contour>
  </outline>
</glyph>
<glyph name="gdotaccent" format="1">
  <advance width="635"/>
  <unicode hex="0121"/>
  <outline>
    <contour>
      <point x="40" y="-35" type="curve"/>
      <point x="227" y="-35" type="line"/>
      <point x="235" y="-86"/>
      <point x="266" y="-95"/>
      <point x="306" y="-95" type="curve" smooth="yes"/>
      <point x="366" y="-95"/>
      <point x="400" y="-56"/>
      <point x="400" y="10" type="curve" smooth="yes"/>
      <point x="400" y="460" type="line"/>
      <point x="585" y="460" type="line"/>
      <point x="585" y="10" type="line" smooth="yes"/>
      <point x="585" y="-179"/>
      <point x="471" y="-245"/>
      <point x="316" y="-245" type="curve" smooth="yes"/>
      <point x="121" y="-245"/>
      <point x="58" y="-159"/>
    </contour>
    <contour>
      <point x="30" y="240" type="curve" smooth="yes"/>
      <point x="30" y="399"/>
      <point x="138" y="470"/>
      <point x="243" y="470" type="curve" smooth="yes"/>
      <point x="358" y="470"/>
      <point x="446" y="389"/>
      <point x="446" y="240" type="curve" smooth="yes"/>
      <point x="446" y="91"/>
      <point x="358" y="10"/>
      <point x="243" y="10" type="curve" smooth="yes"/>
      <point x="138" y="10"/>
      <point x="30" y="81"/>
    </contour>
    <contour>
      <point x="236" y="240" type="curve" smooth="yes"/>
      <point x="236" y="189"/>
      <point x="273" y="160"/>
      <point x="318" y="160" type="curve" smooth="yes"/>
      <point x="358" y="160"/>
      <point x="400" y="184"/>
      <point x="400" y="240" type="curve" smooth="yes"/>
      <point x="400" y="296"/>
      <point x="358" y="320"/>
      <point x="318" y="320" type="curve" smooth="yes"/>
      <point x="273" y="320"/>
      <point x="236" y="291"/>
    </contour>
    <contour>
      <point x="215" y="629" type="curve" smooth="yes"/>
      <point x="215" y="688"/>
      <point x="263" y="727"/>
      <point x="323" y="727" type="curve" smooth="yes"/>
      <point x="383" y="727"/>
      <point x="431" y="688"/>
      <point x="431" y="629" type="curve" smooth="yes"/>
      <point x="431" y="570"/>
      <point x="383" y="531"/>
      <point x="323" y="531" type="curve" smooth="yes"/>
      <point x="263" y="531"/>
      <point x="215" y="570"/>
    </contour>
  </outline>
</glyph>
<glyph name="Hcircumflex" format="2">
  <advance width="830"/>
  <unicode hex="0124"/>
  <outline>
    <contour>
      <point x="117" y="265" type="line"/>
      <point x="117" y="460" type="line"/>
      <point x="677" y="460" type="line"/>
      <point x="677" y="265" type="line"/>
    </contour>
    <contour>
      <point x="540" y="700" type="line"/>
      <point x="760" y="700" type="line"/>
      <point x="760" y="0" type="line"/>
      <point x="540" y="0" type="line"/>
    </contour>
    <contour>
      <point x="70" y="700" type="line"/>
      <point x="290" y="700" type="line"/>
      <point x="290" y="0" type="line"/>
      <point x="70" y="0" type="line"/>
    </contour>
    <contour>
      <point x="415" y="860" type="line"/>
      <point x="335" y="780" type="line"/>
      <point x="195" y="870" type="line"/>
      <point x="415" y="1010" type="line"/>
      <point x="635" y="870" type="line"/>
      <point x="495" y="780" type="line"/>
    </contour>
  </outline>
</glyph>
<glyph name="Hbar" format="2">
  <advance width="830"/>
  <unicode hex="0126"/>
  <outline>
    <contour>
      <point x="117" y="265" type="line"/>
      <point x="117" y="460" type="line"/>
      <point x="677" y="460" type="line"/>
      <point x="677" y="265" type="line"/>
    </contour>
    <contour>
      <point x="540" y="700" type="line"/>
      <point x="760" y="700" type="line"/>
      <point x="760" y="0" type="line"/>
      <point x="540" y="0" type="line"/>
    </contour>
    <contour>
      <point x="70" y="700" type="line"/>
      <point x="290" y="700" type="line"/>
      <point x="290" y="0" type="line"/>
      <point x="70" y="0" type="line"/>
    </contour>
    <contour>
      <point x="5" y="535" type="line"/>
      <point x="5" y="660" type="line"/>
      <point x="825" y="660" type="line"/>
      <point x="825" y="535" type="line"/>
    </contour>
  </outline>
</glyph>
<glyph name="hbar" format="2">
  <advance width="595"/>
  <unicode hex="0127"/>
  <outline>
    <contour>
      <point x="245" y="780" type="line"/>
      <point x="245" y="0" type="line"/>
      <point x="50" y="0" type="line"/>
      <point x="50" y="780" type="line"/>
    </contour>
    <contour>
      <point x="350" y="280" type="line" smooth="yes"/>
      <point x="350" y="321"/>
      <point x="342" y="346"/>
      <point x="302" y="346" type="curve" smooth="yes"/>
      <point x="267" y="346"/>
      <point x="245" y="326"/>
      <point x="245" y="280" type="curve"/>
      <point x="219" y="280" type="line"/>
      <point x="219" y="389"/>
      <point x="262" y="481"/>
      <point x="387" y="481" type="curve" smooth="yes"/>
      <point x="512" y="481"/>
      <point x="545" y="419"/>
      <point x="545" y="310" type="curve" smooth="yes"/>
      <point x="545" y="0" type="line"/>
      <point x="350" y="0" type="line"/>
    </contour>
    <contour>
      <point x="5" y="580" type="line"/>
      <point x="5" y="745" type="line"/>
      <point x="348.2" y="745" type="line"/>
      <point x="348.2" y="580" type="line"/>
    </contour>
  </outline>
</glyph>
<glyph name="itilde" format="2">
  <advance width="286"/>
  <unicode hex="0129"/>
  <outline>
    <contour>
      <point x="49" y="460" type="line"/>
      <point x="236" y="460" type="line"/>
      <point x="236" y="0" type="line"/>
      <point x="49" y="0" type="line"/>
    </contour>
    <contour>
      <point x="-72" y="614" type="line"/>
      <point x="-62" y="663"/>
      <point x="-19" y="716"/>
      <point x="56" y="716" type="curve" smooth="yes"/>
      <point x="123" y="716"/>
      <point x="142" y="661"/>
      <point x="200" y="661" type="curve" smooth="yes"/>
      <point x="229" y="661"/>
      <point x="252" y="685"/>
      <point x="272" y="717" type="curve"/>
      <point x="358" y="624" type="line"/>
      <point x="342" y="587"/>
      <point x="276" y="531"/>
      <point x="206" y="531" type="curve" smooth="yes"/>
      <point x="151" y="531"/>
      <point x="108" y="588"/>
      <point x="56" y="588" type="curve" smooth="yes"/>
      <point x="20" y="588"/>
      <point x="10" y="552"/>
      <point x="10" y="537" type="curve"/>
    </contour>
  </outline>
</glyph>
<glyph name="Imacron" format="2">
  <advance width="365"/>
  <unicode hex="012A"/>
  <outline>
    <contour>
      <point x="70" y="700" type="line"/>
      <point x="295" y="700" type="line"/>
      <point x="295" y="0" type="line"/>
      <point x="70" y="0" type="line"/>
    </contour>
    <contour>
      <point x="-10" y="780" type="line"/>
      <point x="-10" y="945" type="line"/>
      <point x="375" y="945" type="line"/>
      <point x="375" y="780" type="line"/>
    </contour>
  </outline>
</glyph>
<glyph name="imacron" format="2">
  <advance width="286"/>
  <unicode hex="012B"/>
  <outline>
    <contour>
      <point x="49" y="460" type="line"/>
      <point x="236" y="460" type="line"/>
      <point x="236" y="0" type="line"/>
      <point x="49" y="0" type="line"/>
    </contour>
    <contour>
      <point x="-50" y="531" type="line"/>
      <point x="-50" y="696" type="line"/>
      <point x="335" y="696" type="line"/>
      <point x="335" y="531" type="line"/>
    </contour>
  </outline>
</glyph>
<glyph name="Ibreve" format="2">
  <advance width="365"/>
  <unicode hex="012C"/>
  <outline>
    <contour>
      <point x="70" y="700" type="line"/>
      <point x="295" y="700" type="line"/>
      <point x="295" y="0" type="line"/>
      <point x="70" y="0" type="line"/>
    </contour>
    <contour>
      <point x="14" y="930" type="curve"/>
      <point x="130" y="930" type="line"/>
      <point x="130" y="889"/>
      <point x="162" y="880"/>
      <point x="182" y="880" type="curve" smooth="yes"/>
      <point x="202" y="880"/>
      <point x="234" y="889"/>
      <point x="234" y="930" type="curve"/>
      <point x="350" y="930" type="line"/>
      <point x="350" y="841"/>
      <point x="287" y="780"/>
      <point x="182" y="780" type="curve" smooth="yes"/>
      <point x="77" y="780"/>
      <point x="14" y="841"/>
    </contour>
  </outline>
</glyph>
<glyph name="Iogonek" format="2">
  <advance width="365"/>
  <unicode hex="012E"/>
  <outline>
    <contour>
      <point x="70" y="700" type="line"/>
      <point x="295" y="700" type="line"/>
      <point x="295" y="0" type="line"/>
      <point x="70" y="0" type="line"/>
    </contour>
    <contour>
      <point x="258" y="-97" type="curve"/>
      <point x="292" y="-177" type="line"/>
      <point x="277" y="-197"/>
      <point x="247" y="-217"/>
      <point x="184" y="-217" type="curve" smooth="yes"/>
      <point x="130" y="-217"/>
      <point x="70" y="-186"/>
      <point x="70" y="-117" type="curve" smooth="yes"/>
      <point x="70" y="-48"/>
      <point x="142" y="-8"/>
      <point x="212" y="28" type="curve"/>
      <point x="254" y="3" type="line"/>
      <point x="202" y="-29"/>
      <point x="180" y="-60"/>
      <point x="180" y="-87" type="curve" smooth="yes"/>
      <point x="180" y="-105"/>
      <point x="188" y="-117"/>
      <point x="208" y="-117" type="curve" smooth="yes"/>
      <point x="224" y="-117"/>
      <point x="244" y="-110"/>
    </contour>
  </outline>
</glyph>
<glyph name="iogonek" format="2">
  <advance width="286"/>
  <unicode hex="012F"/>
  <outline>
    <contour>
      <point x="35" y="622" type="curve" smooth="yes"/>
      <point x="35" y="681"/>
      <point x="83" y="720"/>
      <point x="143" y="720" type="curve" smooth="yes"/>
      <point x="203" y="720"/>
      <point x="251" y="681"/>
      <point x="251" y="622" type="curve" smooth="yes"/>
      <point x="251" y="563"/>
      <point x="203" y="524"/>
      <point x="143" y="524" type="curve" smooth="yes"/>
      <point x="83" y="524"/>
      <point x="35" y="563"/>
    </contour>
    <contour>
      <point x="49" y="460" type="line"/>
      <point x="236" y="460" type="line"/>
      <point x="236" y="0" type="line"/>
      <point x="49" y="0" type="line"/>
    </contour>
    <contour>
      <point x="201" y="-100" type="curve"/>
      <point x="234" y="-180" type="line"/>
      <point x="219" y="-200"/>
      <point x="189" y="-220"/>
      <point x="126" y="-220" type="curve" smooth="yes"/>
      <point x="72" y="-220"/>
      <point x="13" y="-189"/>
      <point x="13" y="-120" type="curve" smooth="yes"/>
      <point x="13" y="-51"/>
      <point x="85" y="-11"/>
      <point x="155" y="25" type="curve"/>
      <point x="196" y="0" type="line"/>
      <point x="144" y="-32"/>
      <point x="123" y="-63"/>
      <point x="123" y="-90" type="curve" smooth="yes"/>
      <point x="123" y="-108"/>
      <point x="131" y="-120"/>
      <point x="151" y="-120" type="curve" smooth="yes"/>
      <point x="167" y="-120"/>
      <point x="187" y="-113"/>
    </contour>
  </outline>
</glyph>
<glyph name="IJ" format="1">
  <advance width="705"/>
  <unicode hex="0132"/>
  <outline>
    <contour>
      <point x="245" y="-39" type="line"/>
      <point x="269" y="-54"/>
      <point x="301" y="-70"/>
      <point x="327" y="-70" type="curve" smooth="yes"/>
      <point x="357" y="-70"/>
      <point x="390" y="-51"/>
      <point x="390" y="5" type="curve" smooth="yes"/>
      <point x="390" y="700" type="line"/>
      <point x="635" y="700" type="line"/>
      <point x="635" y="-50" type="line" smooth="yes"/>
      <point x="635" y="-199"/>
      <point x="501" y="-250"/>
      <point x="357" y="-250" type="curve" smooth="yes"/>
      <point x="264" y="-250"/>
      <point x="179" y="-220"/>
      <point x="124" y="-190" type="curve"/>
    </contour>
    <contour>
      <point x="70" y="700" type="line"/>
      <point x="295" y="700" type="line"/>
      <point x="295" y="0" type="line"/>
      <point x="70" y="0" type="line"/>
    </contour>
  </outline>
</glyph>
<glyph name="Lacute" format="1">
  <advance width="575"/>
  <unicode hex="0139"/>
  <outline>
    <contour>
      <point x="70" y="700" type="line"/>
      <point x="290" y="700" type="line"/>
      <point x="290" y="185" type="line"/>
      <point x="575" y="185" type="line"/>
      <point x="575" y="0" type="line"/>
      <point x="70" y="0" type="line"/>
    </contour>
    <contour>
      <point x="502.5" y="930" type="line"/>
      <point x="322.5" y="780" type="line"/>
      <point x="212.5" y="830" type="line"/>
      <point x="362.5" y="990" type="line"/>
    </contour>
  </outline>
</glyph>
<glyph name="uni013B" format="2">
  <advance width="575"/>
  <unicode hex="013B"/>
  <outline>
    <contour>
      <point x="70" y="700" type="line"/>
      <point x="290" y="700" type="line"/>
      <point x="290" y="185" type="line"/>
      <point x="575" y="185" type="line"/>
      <point x="575" y="0" type="line"/>
      <point x="70" y="0" type="line"/>
    </contour>
    <contour>
      <point x="269" y="-60" type="line"/>
      <point x="464" y="-94" type="line"/>
      <point x="329" y="-344" type="line"/>
      <point x="181" y="-319" type="line"/>
    </contour>
  </outline>
</glyph>
<glyph name="uni013C" format="2">
  <advance width="295"/>
  <unicode hex="013C"/>
  <outline>
    <contour>
      <point x="50" y="780" type="line"/>
      <point x="245" y="780" type="line"/>
      <point x="245" y="0" type="line"/>
      <point x="50" y="0" type="line"/>
    </contour>
    <contour>
      <point x="94" y="-60" type="line"/>
      <point x="289" y="-94" type="line"/>
      <point x="154" y="-344" type="line"/>
      <point x="6" y="-319" type="line"/>
    </contour>
  </outline>
</glyph>
<glyph name="lcaron" format="2">
  <advance width="295"/>
  <unicode hex="013E"/>
  <outline>
    <contour>
      <point x="50" y="780" type="line"/>
      <point x="245" y="780" type="line"/>
      <point x="245" y="0" type="line"/>
      <point x="50" y="0" type="line"/>
    </contour>
    <contour>
      <point x="383" y="780" type="line"/>
      <point x="578" y="746" type="line"/>
      <point x="443" y="496" type="line"/>
      <point x="295" y="521" type="line"/>
    </contour>
  </outline>
</glyph>
<glyph name="Ldot" format="2">
  <advance width="575"/>
  <unicode hex="013F"/>
  <outline>
    <contour>
      <point x="70" y="700" type="line"/>
      <point x="290" y="700" type="line"/>
      <point x="290" y="185" type="line"/>
      <point x="575" y="185" type="line"/>
      <point x="575" y="0" type="line"/>
      <point x="70" y="0" type="line"/>
    </contour>
    <contour>
      <point x="364.5" y="440" type="curve" smooth="yes"/>
      <point x="364.5" y="503"/>
      <point x="412.5" y="555"/>
      <point x="482.5" y="555" type="curve" smooth="yes"/>
      <point x="552.5" y="555"/>
      <point x="600.5" y="503"/>
      <point x="600.5" y="440" type="curve" smooth="yes"/>
      <point x="600.5" y="377"/>
      <point x="552.5" y="325"/>
      <point x="482.5" y="325" type="curve" smooth="yes"/>
      <point x="412.5" y="325"/>
      <point x="364.5" y="377"/>
    </contour>
  </outline>
</glyph>
<glyph name="lslash" format="2">
  <advance width="295"/>
  <unicode hex="0142"/>
  <outline>
    <contour>
      <point x="-15" y="290" type="line"/>
      <point x="-65" y="375" type="line"/>
      <point x="315" y="635" type="line"/>
      <point x="365" y="550" type="line"/>
    </contour>
    <contour>
      <point x="50" y="780" type="line"/>
      <point x="245" y="780" type="line"/>
      <point x="245" y="0" type="line"/>
      <point x="50" y="0" type="line"/>
    </contour>
  </outline>
</glyph>
<glyph name="nacute" format="2">
  <advance width="605"/>
  <unicode hex="0144"/>
  <outline>
    <contour>
      <point x="245" y="460" type="line"/>
      <point x="245" y="0" type="line"/>
      <point x="50" y="0" type="line"/>
      <point x="50" y="460" type="line"/>
    </contour>
    <contour>
      <point x="350" y="280" type="line" smooth="yes"/>
      <point x="350" y="321"/>
      <point x="342" y="346"/>
      <point x="302" y="346" type="curve" smooth="yes"/>
      <point x="267" y="346"/>
      <point x="245" y="326"/>
      <point x="245" y="280" type="curve"/>
      <point x="219" y="270" type="line"/>
      <point x="219" y="379"/>
      <point x="262" y="471"/>
      <point x="387" y="471" type="curve" smooth="yes"/>
      <point x="512" y="471"/>
      <point x="555" y="409"/>
      <point x="555" y="300" type="curve" smooth="yes"/>
      <point x="555" y="0" type="line"/>
      <point x="350" y="0" type="line"/>
    </contour>
    <contour>
      <point x="482" y="681" type="line"/>
      <point x="302" y="531" type="line"/>
      <point x="192" y="581" type="line"/>
      <point x="342" y="741" type="line"/>
    </contour>
  </outline>
</glyph>
<glyph name="uni0146" format="2">
  <advance width="605"/>
  <unicode hex="0146"/>
  <outline>
    <contour>
      <point x="245" y="460" type="line"/>
      <point x="245" y="0" type="line"/>
      <point x="50" y="0" type="line"/>
      <point x="50" y="460" type="line"/>
    </contour>
    <contour>
      <point x="350" y="280" type="line" smooth="yes"/>
      <point x="350" y="321"/>
      <point x="342" y="346"/>
      <point x="302" y="346" type="curve" smooth="yes"/>
      <point x="267" y="346"/>
      <point x="245" y="326"/>
      <point x="245" y="280" type="curve"/>
      <point x="219" y="270" type="line"/>
      <point x="219" y="379"/>
      <point x="262" y="471"/>
      <point x="387" y="471" type="curve" smooth="yes"/>
      <point x="512" y="471"/>
      <point x="555" y="409"/>
      <point x="555" y="300" type="curve" smooth="yes"/>
      <point x="555" y="0" type="line"/>
      <point x="350" y="0" type="line"/>
    </contour>
    <contour>
      <point x="249" y="-60" type="line"/>
      <point x="444" y="-94" type="line"/>
      <point x="309" y="-344" type="line"/>
      <point x="161" y="-319" type="line"/>
    </contour>
  </outline>
</glyph>
<glyph name="Ncaron" format="1">
  <advance width="805"/>
  <unicode hex="0147"/>
  <outline>
    <contour>
      <point x="360" y="915" type="line"/>
      <point x="440" y="995" type="line"/>
      <point x="580" y="905" type="line"/>
      <point x="360" y="765" type="line"/>
      <point x="140" y="905" type="line"/>
      <point x="280" y="995" type="line"/>
    </contour>
    <contour>
      <point x="525" y="700" type="line"/>
      <point x="735" y="700" type="line"/>
      <point x="735" y="-35" type="line"/>
      <point x="280" y="316.591" type="line"/>
      <point x="280" y="0" type="line"/>
      <point x="70" y="0" type="line"/>
      <point x="70" y="735" type="line"/>
      <point x="525" y="383.409" type="line"/>
    </contour>
  </outline>
</glyph>
<glyph name="Obreve" format="2">
  <advance width="840"/>
  <unicode hex="014E"/>
  <outline>
    <contour>
      <point x="263" y="350" type="curve" smooth="yes"/>
      <point x="263" y="247"/>
      <point x="322" y="178"/>
      <point x="420" y="178" type="curve" smooth="yes"/>
      <point x="518" y="178"/>
      <point x="577" y="247"/>
      <point x="577" y="350" type="curve" smooth="yes"/>
      <point x="577" y="453"/>
      <point x="523" y="522"/>
      <point x="420" y="522" type="curve" smooth="yes"/>
      <point x="322" y="522"/>
      <point x="263" y="453"/>
    </contour>
    <contour>
      <point x="30" y="350" type="curve" smooth="yes"/>
      <point x="30" y="574"/>
      <point x="201" y="720"/>
      <point x="420" y="720" type="curve" smooth="yes"/>
      <point x="644" y="720"/>
      <point x="810" y="574"/>
      <point x="810" y="350" type="curve" smooth="yes"/>
      <point x="810" y="126"/>
      <point x="649" y="-30"/>
      <point x="420" y="-30" type="curve" smooth="yes"/>
      <point x="191" y="-30"/>
      <point x="30" y="126"/>
    </contour>
    <contour>
      <point x="252" y="930" type="curve"/>
      <point x="368" y="930" type="line"/>
      <point x="368" y="889"/>
      <point x="400" y="880"/>
      <point x="420" y="880" type="curve" smooth="yes"/>
      <point x="440" y="880"/>
      <point x="472" y="889"/>
      <point x="472" y="930" type="curve"/>
      <point x="588" y="930" type="line"/>
      <point x="588" y="841"/>
      <point x="525" y="780"/>
      <point x="420" y="780" type="curve" smooth="yes"/>
      <point x="315" y="780"/>
      <point x="252" y="841"/>
    </contour>
  </outline>
</glyph>
<glyph name="obreve" format="2">
  <advance width="616"/>
  <unicode hex="014F"/>
  <outline>
    <contour>
      <point x="30" y="230" type="curve" smooth="yes"/>
      <point x="30" y="379"/>
      <point x="148" y="471"/>
      <point x="308" y="471" type="curve" smooth="yes"/>
      <point x="468" y="471"/>
      <point x="586" y="379"/>
      <point x="586" y="230" type="curve" smooth="yes"/>
      <point x="586" y="81"/>
      <point x="468" y="-10"/>
      <point x="308" y="-10" type="curve" smooth="yes"/>
      <point x="148" y="-10"/>
      <point x="30" y="81"/>
    </contour>
    <contour>
      <point x="231" y="230" type="curve" smooth="yes"/>
      <point x="231" y="174"/>
      <point x="268" y="145"/>
      <point x="308" y="145" type="curve" smooth="yes"/>
      <point x="348" y="145"/>
      <point x="385" y="174"/>
      <point x="385" y="230" type="curve" smooth="yes"/>
      <point x="385" y="286"/>
      <point x="348" y="316"/>
      <point x="308" y="316" type="curve" smooth="yes"/>
      <point x="268" y="316"/>
      <point x="231" y="286"/>
    </contour>
    <contour>
      <point x="140" y="681" type="curve"/>
      <point x="256" y="681" type="line"/>
      <point x="256" y="640"/>
      <point x="288" y="631"/>
      <point x="308" y="631" type="curve" smooth="yes"/>
      <point x="328" y="631"/>
      <point x="360" y="640"/>
      <point x="360" y="681" type="curve"/>
      <point x="476" y="681" type="line"/>
      <point x="476" y="592"/>
      <point x="413" y="531"/>
      <point x="308" y="531" type="curve" smooth="yes"/>
      <point x="203" y="531"/>
      <point x="140" y="592"/>
    </contour>
  </outline>
</glyph>
<glyph name="OE" format="1">
  <advance width="985"/>
  <unicode hex="0152"/>
  <outline>
    <contour>
      <point x="562" y="275" type="line"/>
      <point x="562" y="445" type="line"/>
      <point x="950" y="445" type="line"/>
      <point x="950" y="275" type="line"/>
    </contour>
    <contour>
      <point x="465" y="670" type="line"/>
      <point x="675" y="670" type="line"/>
      <point x="675" y="30" type="line"/>
      <point x="465" y="30" type="line"/>
    </contour>
    <contour>
      <point x="971" y="175" type="line"/>
      <point x="971" y="0" type="line"/>
      <point x="390" y="0" type="line" smooth="yes"/>
      <point x="187" y="0"/>
      <point x="30" y="141"/>
      <point x="30" y="350" type="curve" smooth="yes"/>
      <point x="30" y="559"/>
      <point x="186" y="700"/>
      <point x="390" y="700" type="curve" smooth="yes"/>
      <point x="970" y="700" type="line"/>
      <point x="970" y="525" type="line"/>
      <point x="568" y="525" type="line"/>
      <point x="551" y="510" type="line"/>
      <point x="440" y="510" type="line" smooth="yes"/>
      <point x="312" y="510"/>
      <point x="260" y="463"/>
      <point x="260" y="350" type="curve" smooth="yes"/>
      <point x="260" y="237"/>
      <point x="313" y="190"/>
      <point x="440" y="190" type="curve" smooth="yes"/>
      <point x="548" y="190" type="line"/>
      <point x="572" y="175" type="line"/>
    </contour>
  </outline>
</glyph>
<glyph name="scircumflex" format="2">
  <advance width="488"/>
  <unicode hex="015D"/>
  <outline>
    <contour>
      <point x="78" y="183" type="line"/>
      <point x="180" y="121"/>
      <point x="233" y="117"/>
      <point x="250" y="117" type="curve" smooth="yes"/>
      <point x="263" y="117"/>
      <point x="275" y="118"/>
      <point x="275" y="131" type="curve" smooth="yes"/>
      <point x="275" y="156"/>
      <point x="195" y="159"/>
      <point x="141" y="186" type="curve" smooth="yes"/>
      <point x="82" y="216"/>
      <point x="34" y="247"/>
      <point x="34" y="329" type="curve" smooth="yes"/>
      <point x="34" y="425"/>
      <point x="124" y="470"/>
      <point x="238" y="470" type="curve" smooth="yes"/>
      <point x="321" y="470"/>
      <point x="386" y="446"/>
      <point x="454" y="415" type="curve"/>
      <point x="406" y="282" type="line"/>
      <point x="361" y="320"/>
      <point x="291" y="339"/>
      <point x="254" y="339" type="curve" smooth="yes"/>
      <point x="227" y="339"/>
      <point x="219" y="335"/>
      <point x="219" y="324" type="curve" smooth="yes"/>
      <point x="219" y="302"/>
      <point x="279" y="293"/>
      <point x="341" y="270" type="curve" smooth="yes"/>
      <point x="406" y="246"/>
      <point x="468" y="217"/>
      <point x="468" y="130" type="curve" smooth="yes"/>
      <point x="468" y="21"/>
      <point x="404" y="-25"/>
      <point x="285" y="-25" type="curve" smooth="yes"/>
      <point x="180" y="-25"/>
      <point x="99" y="1"/>
      <point x="15" y="46" type="curve"/>
    </contour>
    <contour>
      <point x="258" y="611" type="line"/>
      <point x="178" y="531" type="line"/>
      <point x="38" y="621" type="line"/>
      <point x="258" y="761" type="line"/>
      <point x="478" y="621" type="line"/>
      <point x="338" y="531" type="line"/>
    </contour>
  </outline>
</glyph>
<glyph name="Scedilla" format="2">
  <advance width="672"/>
  <unicode hex="015E"/>
  <outline>
    <contour>
      <point x="178" y="266" type="line"/>
      <point x="230" y="190"/>
      <point x="273" y="158"/>
      <point x="340" y="158" type="curve" smooth="yes"/>
      <point x="380" y="158"/>
      <point x="404" y="169"/>
      <point x="404" y="199" type="curve" smooth="yes"/>
      <point x="404" y="239"/>
      <point x="352" y="247"/>
      <point x="272" y="280" type="curve" smooth="yes"/>
      <point x="204" y="308"/>
      <point x="74" y="363"/>
      <point x="74" y="510" type="curve" smooth="yes"/>
      <point x="74" y="636"/>
      <point x="183" y="720"/>
      <point x="347" y="720" type="curve" smooth="yes"/>
      <point x="520" y="720"/>
      <point x="599" y="635"/>
      <point x="627" y="564" type="curve"/>
      <point x="464" y="474" type="line"/>
      <point x="434" y="522"/>
      <point x="398" y="539"/>
      <point x="358" y="539" type="curve" smooth="yes"/>
      <point x="322" y="539"/>
      <point x="298" y="525"/>
      <point x="298" y="504" type="curve" smooth="yes"/>
      <point x="298" y="468"/>
      <point x="376" y="452"/>
      <point x="458" y="423" type="curve" smooth="yes"/>
      <point x="570" y="384"/>
      <point x="637" y="317"/>
      <point x="637" y="200" type="curve" smooth="yes"/>
      <point x="637" y="43"/>
      <point x="515" y="-30"/>
      <point x="336" y="-30" type="curve" smooth="yes"/>
      <point x="201" y="-30"/>
      <point x="74" y="43"/>
      <point x="30" y="158" type="curve"/>
    </contour>
    <contour>
      <point x="286" y="62" type="line"/>
      <point x="426" y="56" type="line"/>
      <point x="326.141" y="-71.5122" type="line"/>
      <point x="341.9" y="-67.26"/>
      <point x="359.295" y="-66"/>
      <point x="379" y="-66" type="curve" smooth="yes"/>
      <point x="423" y="-66"/>
      <point x="482" y="-102"/>
      <point x="482" y="-178" type="curve" smooth="yes"/>
      <point x="482" y="-257"/>
      <point x="404" y="-296"/>
      <point x="336" y="-296" type="curve" smooth="yes"/>
      <point x="269" y="-296"/>
      <point x="217" y="-287"/>
      <point x="159" y="-256" type="curve"/>
      <point x="212" y="-170" type="line"/>
      <point x="241" y="-190"/>
      <point x="288" y="-196"/>
      <point x="304" y="-196" type="curve" smooth="yes"/>
      <point x="338" y="-196"/>
      <point x="361" y="-188"/>
      <point x="361" y="-164" type="curve" smooth="yes"/>
      <point x="361" y="-136"/>
      <point x="323" y="-134"/>
      <point x="294" y="-134" type="curve" smooth="yes"/>
      <point x="284" y="-134"/>
      <point x="240" y="-135"/>
      <point x="197" y="-149" type="curve"/>
    </contour>
  </outline>
</glyph>
<glyph name="scedilla" format="2">
  <advance width="488"/>
  <unicode hex="015F"/>
  <outline>
    <contour>
      <point x="78" y="183" type="line"/>
      <point x="180" y="111"/>
      <point x="233" y="110"/>
      <point x="250" y="110" type="curve" smooth="yes"/>
      <point x="266" y="110"/>
      <point x="275" y="120"/>
      <point x="275" y="133" type="curve" smooth="yes"/>
      <point x="275" y="161"/>
      <point x="232" y="169"/>
      <point x="181" y="186" type="curve" smooth="yes"/>
      <point x="114" y="209"/>
      <point x="52" y="242"/>
      <point x="52" y="334" type="curve" smooth="yes"/>
      <point x="52" y="420"/>
      <point x="124" y="470"/>
      <point x="238" y="470" type="curve" smooth="yes"/>
      <point x="321" y="470"/>
      <point x="386" y="446"/>
      <point x="454" y="415" type="curve"/>
      <point x="406" y="282" type="line"/>
      <point x="361" y="320"/>
      <point x="301" y="346"/>
      <point x="264" y="346" type="curve" smooth="yes"/>
      <point x="237" y="346"/>
      <point x="229" y="336"/>
      <point x="229" y="327" type="curve" smooth="yes"/>
      <point x="229" y="297"/>
      <point x="279" y="293"/>
      <point x="341" y="270" type="curve" smooth="yes"/>
      <point x="406" y="246"/>
      <point x="468" y="217"/>
      <point x="468" y="130" type="curve" smooth="yes"/>
      <point x="468" y="21"/>
      <point x="404" y="-25"/>
      <point x="285" y="-25" type="curve" smooth="yes"/>
      <point x="180" y="-25"/>
      <point x="99" y="1"/>
      <point x="15" y="46" type="curve"/>
    </contour>
    <contour>
      <point x="225" y="66.9336" type="line"/>
      <point x="365" y="60.9336" type="line"/>
      <point x="265.141" y="-66.5791" type="line"/>
      <point x="280.899" y="-62.3271"/>
      <point x="298.295" y="-61.0664"/>
      <point x="318" y="-61.0664" type="curve" smooth="yes"/>
      <point x="362" y="-61.0664"/>
      <point x="421" y="-97.0664"/>
      <point x="421" y="-173.066" type="curve" smooth="yes"/>
      <point x="421" y="-252.066"/>
      <point x="343" y="-291.066"/>
      <point x="275" y="-291.066" type="curve" smooth="yes"/>
      <point x="208" y="-291.066"/>
      <point x="156" y="-282.066"/>
      <point x="98" y="-251.066" type="curve"/>
      <point x="151" y="-165.066" type="line"/>
      <point x="180" y="-185.066"/>
      <point x="227" y="-191.066"/>
      <point x="243" y="-191.066" type="curve" smooth="yes"/>
      <point x="277" y="-191.066"/>
      <point x="300" y="-183.066"/>
      <point x="300" y="-159.066" type="curve" smooth="yes"/>
      <point x="300" y="-131.066"/>
      <point x="262" y="-129.066"/>
      <point x="233" y="-129.066" type="curve" smooth="yes"/>
      <point x="223" y="-129.066"/>
      <point x="179" y="-130.066"/>
      <point x="136" y="-144.066" type="curve"/>
    </contour>
  </outline>
</glyph>
<glyph name="Tcaron" format="2">
  <advance width="620"/>
  <unicode hex="0164"/>
  <outline>
    <contour>
      <point x="0" y="505" type="line"/>
      <point x="0" y="700" type="line"/>
      <point x="620" y="700" type="line"/>
      <point x="620" y="505" type="line"/>
      <point x="420" y="505" type="line"/>
      <point x="420" y="0" type="line"/>
      <point x="200" y="0" type="line"/>
      <point x="200" y="505" type="line"/>
    </contour>
    <contour>
      <point x="310" y="930" type="line"/>
      <point x="390" y="1010" type="line"/>
      <point x="530" y="920" type="line"/>
      <point x="310" y="780" type="line"/>
      <point x="90" y="920" type="line"/>
      <point x="230" y="1010" type="line"/>
    </contour>
  </outline>
</glyph>
<glyph name="tcaron" format="1">
  <advance width="565"/>
  <unicode hex="0165"/>
  <outline>
    <contour>
      <point x="5" y="460" type="line"/>
      <point x="360" y="460" type="line"/>
      <point x="360" y="305" type="line"/>
      <point x="5" y="305" type="line"/>
    </contour>
    <contour>
      <point x="90" y="620" type="line"/>
      <point x="275" y="620" type="line"/>
      <point x="275" y="0" type="line"/>
      <point x="90" y="0" type="line"/>
    </contour>
    <contour>
      <point x="432" y="772" type="line"/>
      <point x="627" y="738" type="line"/>
      <point x="492" y="488" type="line"/>
      <point x="344" y="513" type="line"/>
    </contour>
  </outline>
</glyph>
<glyph name="utilde" format="2">
  <advance width="605"/>
  <unicode hex="0169"/>
  <outline>
    <contour>
      <point x="360" y="0" type="line"/>
      <point x="360" y="460" type="line"/>
      <point x="555" y="460" type="line"/>
      <point x="555" y="0" type="line"/>
    </contour>
    <contour>
      <point x="255" y="180" type="line" smooth="yes"/>
      <point x="255" y="139"/>
      <point x="263" y="114"/>
      <point x="303" y="114" type="curve" smooth="yes"/>
      <point x="338" y="114"/>
      <point x="360" y="134"/>
      <point x="360" y="180" type="curve"/>
      <point x="386" y="190" type="line"/>
      <point x="386" y="81"/>
      <point x="343" y="-11"/>
      <point x="218" y="-11" type="curve" smooth="yes"/>
      <point x="93" y="-11"/>
      <point x="50" y="51"/>
      <point x="50" y="160" type="curve" smooth="yes"/>
      <point x="50" y="460" type="line"/>
      <point x="255" y="460" type="line"/>
    </contour>
    <contour>
      <point x="87.5" y="614" type="line"/>
      <point x="97.5" y="663"/>
      <point x="141.5" y="716"/>
      <point x="216.5" y="716" type="curve" smooth="yes"/>
      <point x="283.5" y="716"/>
      <point x="302.5" y="661"/>
      <point x="360.5" y="661" type="curve" smooth="yes"/>
      <point x="389.5" y="661"/>
      <point x="411.5" y="685"/>
      <point x="431.5" y="717" type="curve"/>
      <point x="517.5" y="624" type="line"/>
      <point x="501.5" y="587"/>
      <point x="436.5" y="531"/>
      <point x="366.5" y="531" type="curve" smooth="yes"/>
      <point x="311.5" y="531"/>
      <point x="267.5" y="588"/>
      <point x="215.5" y="588" type="curve" smooth="yes"/>
      <point x="179.5" y="588"/>
      <point x="170.5" y="552"/>
      <point x="170.5" y="537" type="curve"/>
    </contour>
  </outline>
</glyph>
<glyph name="Uring" format="1">
  <advance width="746"/>
  <unicode hex="016E"/>
  <outline>
    <contour>
      <point x="65" y="700" type="line"/>
      <point x="285" y="700" type="line"/>
      <point x="285" y="250" type="line" smooth="yes"/>
      <point x="285" y="194"/>
      <point x="313" y="155"/>
      <point x="373" y="155" type="curve" smooth="yes"/>
      <point x="433" y="155"/>
      <point x="461" y="194"/>
      <point x="461" y="250" type="curve" smooth="yes"/>
      <point x="461" y="700" type="line"/>
      <point x="681" y="700" type="line"/>
      <point x="681" y="230" type="line" smooth="yes"/>
      <point x="681" y="31"/>
      <point x="538" y="-40"/>
      <point x="373" y="-40" type="curve" smooth="yes"/>
      <point x="208" y="-40"/>
      <point x="65" y="31"/>
      <point x="65" y="230" type="curve" smooth="yes"/>
    </contour>
    <contour>
      <point x="234" y="905" type="curve" smooth="yes"/>
      <point x="234" y="979"/>
      <point x="292" y="1030"/>
      <point x="372" y="1030" type="curve" smooth="yes"/>
      <point x="452" y="1030"/>
      <point x="512" y="979"/>
      <point x="512" y="905" type="curve" smooth="yes"/>
      <point x="512" y="831"/>
      <point x="452" y="780"/>
      <point x="372" y="780" type="curve" smooth="yes"/>
      <point x="292" y="780"/>
      <point x="234" y="831"/>
    </contour>
    <contour>
      <point x="329" y="905" type="curve" smooth="yes"/>
      <point x="329" y="877"/>
      <point x="347" y="861"/>
      <point x="372" y="861" type="curve" smooth="yes"/>
      <point x="397" y="861"/>
      <point x="416" y="877"/>
      <point x="416" y="905" type="curve" smooth="yes"/>
      <point x="416" y="933"/>
      <point x="397" y="950"/>
      <point x="372" y="950" type="curve" smooth="yes"/>
      <point x="347" y="950"/>
      <point x="329" y="933"/>
    </contour>
  </outline>
</glyph>
<glyph name="uring" format="2">
  <advance width="605"/>
  <unicode hex="016F"/>
  <outline>
    <contour>
      <point x="360" y="0" type="line"/>
      <point x="360" y="460" type="line"/>
      <point x="555" y="460" type="line"/>
      <point x="555" y="0" type="line"/>
    </contour>
    <contour>
      <point x="255" y="180" type="line" smooth="yes"/>
      <point x="255" y="139"/>
      <point x="263" y="114"/>
      <point x="303" y="114" type="curve" smooth="yes"/>
      <point x="338" y="114"/>
      <point x="360" y="134"/>
      <point x="360" y="180" type="curve"/>
      <point x="386" y="190" type="line"/>
      <point x="386" y="81"/>
      <point x="343" y="-11"/>
      <point x="218" y="-11" type="curve" smooth="yes"/>
      <point x="93" y="-11"/>
      <point x="50" y="51"/>
      <point x="50" y="160" type="curve" smooth="yes"/>
      <point x="50" y="460" type="line"/>
      <point x="255" y="460" type="line"/>
    </contour>
    <contour>
      <point x="163.5" y="656" type="curve" smooth="yes"/>
      <point x="163.5" y="730"/>
      <point x="221.5" y="781"/>
      <point x="301.5" y="781" type="curve" smooth="yes"/>
      <point x="381.5" y="781"/>
      <point x="441.5" y="730"/>
      <point x="441.5" y="656" type="curve" smooth="yes"/>
      <point x="441.5" y="582"/>
      <point x="381.5" y="531"/>
      <point x="301.5" y="531" type="curve" smooth="yes"/>
      <point x="221.5" y="531"/>
      <point x="163.5" y="582"/>
    </contour>
    <contour>
      <point x="258.5" y="656" type="curve" smooth="yes"/>
      <point x="258.5" y="628"/>
      <point x="276.5" y="612"/>
      <point x="301.5" y="612" type="curve" smooth="yes"/>
      <point x="326.5" y="612"/>
      <point x="345.5" y="628"/>
      <point x="345.5" y="656" type="curve" smooth="yes"/>
      <point x="345.5" y="684"/>
      <point x="326.5" y="701"/>
      <point x="301.5" y="701" type="curve" smooth="yes"/>
      <point x="276.5" y="701"/>
      <point x="258.5" y="684"/>
    </contour>
  </outline>
</glyph>
<glyph name="Wcircumflex" format="2">
  <advance width="1110"/>
  <unicode hex="0174"/>
  <outline>
    <contour>
      <point x="747.179" y="350.641" type="line"/>
      <point x="845" y="700" type="line"/>
      <point x="1110" y="700" type="line"/>
      <point x="790" y="-45" type="line"/>
      <point x="555" y="303" type="line"/>
      <point x="320" y="-45" type="line"/>
      <point x="0" y="700" type="line"/>
      <point x="265" y="700" type="line"/>
      <point x="362.821" y="350.641" type="line"/>
      <point x="555" y="735" type="line"/>
    </contour>
    <contour>
      <point x="555" y="875" type="line"/>
      <point x="475" y="795" type="line"/>
      <point x="335" y="885" type="line"/>
      <point x="555" y="1025" type="line"/>
      <point x="775" y="885" type="line"/>
      <point x="635" y="795" type="line"/>
    </contour>
  </outline>
</glyph>
<glyph name="Ycircumflex" format="2">
  <advance width="720"/>
  <unicode hex="0176"/>
  <outline>
    <contour>
      <point x="470" y="700" type="line"/>
      <point x="725" y="700" type="line"/>
      <point x="473" y="274.707" type="line"/>
      <point x="473" y="0" type="line"/>
      <point x="248" y="0" type="line"/>
      <point x="248" y="273.019" type="line"/>
      <point x="-5" y="700" type="line"/>
      <point x="250" y="700" type="line"/>
      <point x="360" y="474" type="line"/>
    </contour>
    <contour>
      <point x="360" y="860" type="line"/>
      <point x="280" y="780" type="line"/>
      <point x="140" y="870" type="line"/>
      <point x="360" y="1010" type="line"/>
      <point x="580" y="870" type="line"/>
      <point x="440" y="780" type="line"/>
    </contour>
  </outline>
</glyph>
<glyph name="Ydieresis" format="1">
  <advance width="720"/>
  <unicode hex="0178"/>
  <outline>
    <contour>
      <point x="87" y="895" type="curve" smooth="yes"/>
      <point x="87" y="954"/>
      <point x="135" y="993"/>
      <point x="195" y="993" type="curve" smooth="yes"/>
      <point x="255" y="993"/>
      <point x="303" y="954"/>
      <point x="303" y="895" type="curve" smooth="yes"/>
      <point x="303" y="836"/>
      <point x="255" y="797"/>
      <point x="195" y="797" type="curve" smooth="yes"/>
      <point x="135" y="797"/>
      <point x="87" y="836"/>
    </contour>
    <contour>
      <point x="417" y="895" type="curve" smooth="yes"/>
      <point x="417" y="954"/>
      <point x="465" y="993"/>
      <point x="525" y="993" type="curve" smooth="yes"/>
      <point x="585" y="993"/>
      <point x="633" y="954"/>
      <point x="633" y="895" type="curve" smooth="yes"/>
      <point x="633" y="836"/>
      <point x="585" y="797"/>
      <point x="525" y="797" type="curve" smooth="yes"/>
      <point x="465" y="797"/>
      <point x="417" y="836"/>
    </contour>
    <contour>
      <point x="470" y="700" type="line"/>
      <point x="725" y="700" type="line"/>
      <point x="473" y="274.707" type="line"/>
      <point x="473" y="0" type="line"/>
      <point x="248" y="0" type="line"/>
      <point x="248" y="273.019" type="line"/>
      <point x="-5" y="700" type="line"/>
      <point x="250" y="700" type="line"/>
      <point x="360" y="474" type="line"/>
    </contour>
  </outline>
</glyph>
<glyph name="Zdotaccent" format="2">
  <advance width="665"/>
  <unicode hex="017B"/>
  <outline>
    <contour>
      <point x="70" y="505" type="line"/>
      <point x="70" y="700" type="line"/>
      <point x="655" y="700" type="line"/>
      <point x="347" y="185" type="line"/>
      <point x="610" y="185" type="line"/>
      <point x="610" y="0" type="line"/>
      <point x="5" y="0" type="line"/>
      <point x="306" y="505" type="line"/>
    </contour>
    <contour>
      <point x="254" y="878" type="curve" smooth="yes"/>
      <point x="254" y="937"/>
      <point x="302" y="976"/>
      <point x="362" y="976" type="curve" smooth="yes"/>
      <point x="422" y="976"/>
      <point x="470" y="937"/>
      <point x="470" y="878" type="curve" smooth="yes"/>
      <point x="470" y="819"/>
      <point x="422" y="780"/>
      <point x="362" y="780" type="curve" smooth="yes"/>
      <point x="302" y="780"/>
      <point x="254" y="819"/>
    </contour>
  </outline>
</glyph>
<glyph name="zcaron" format="1">
  <advance width="550"/>
  <unicode hex="017E"/>
  <outline>
    <contour>
      <point x="305" y="681" type="line"/>
      <point x="385" y="760" type="line"/>
      <point x="525" y="670" type="line"/>
      <point x="305" y="530" type="line"/>
      <point x="85" y="670" type="line"/>
      <point x="225" y="760" type="line"/>
    </contour>
    <contour>
      <point x="231.848" y="285" type="line"/>
      <point x="65" y="285" type="line"/>
      <point x="65" y="460" type="line"/>
      <point x="545" y="460" type="line"/>
      <point x="346.739" y="175" type="line"/>
      <point x="505" y="175" type="line"/>
      <point x="505" y="0" type="line"/>
      <point x="15" y="0" type="line"/>
    </contour>
  </outline>
</glyph>
<glyph name="uni0212" format="2">
  <advance width="700"/>
  <unicode hex="0212"/>
  <outline>
    <contour>
      <point x="275" y="300" type="line"/>
      <point x="500" y="300" type="line"/>
      <point x="700" y="0" type="line"/>
      <point x="445" y="0" type="line"/>
    </contour>
    <contour>
      <point x="70" y="700" type="line"/>
      <point x="290" y="700" type="line"/>
      <point x="290" y="0" type="line"/>
      <point x="70" y="0" type="line"/>
    </contour>
    <contour>
      <point x="212" y="515" type="line"/>
      <point x="212" y="700" type="line"/>
      <point x="365" y="700" type="line" smooth="yes"/>
      <point x="570" y="700"/>
      <point x="658" y="599"/>
      <point x="658" y="460" type="curve" smooth="yes"/>
      <point x="658" y="321"/>
      <point x="570" y="220"/>
      <point x="365" y="220" type="curve" smooth="yes"/>
      <point x="212" y="220" type="line"/>
      <point x="212" y="385" type="line"/>
      <point x="345" y="385" type="line" smooth="yes"/>
      <point x="400" y="385"/>
      <point x="428" y="409"/>
      <point x="428" y="450" type="curve" smooth="yes"/>
      <point x="428" y="491"/>
      <point x="400" y="515"/>
      <point x="345" y="515" type="curve" smooth="yes"/>
    </contour>
    <contour>
      <point x="190" y="780" type="curve"/>
      <point x="306" y="780" type="line"/>
      <point x="306" y="821"/>
      <point x="338" y="830"/>
      <point x="358" y="830" type="curve" smooth="yes"/>
      <point x="378" y="830"/>
      <point x="410" y="821"/>
      <point x="410" y="780" type="curve"/>
      <point x="526" y="780" type="line"/>
      <point x="526" y="869"/>
      <point x="463" y="930"/>
      <point x="358" y="930" type="curve" smooth="yes"/>
      <point x="253" y="930"/>
      <point x="190" y="869"/>
    </contour>
  </outline>
</glyph>
<glyph name="uni0218" format="2">
  <advance width="672"/>
  <unicode hex="0218"/>
  <outline>
    <contour>
      <point x="178" y="266" type="line"/>
      <point x="230" y="190"/>
      <point x="273" y="158"/>
      <point x="340" y="158" type="curve" smooth="yes"/>
      <point x="380" y="158"/>
      <point x="404" y="169"/>
      <point x="404" y="199" type="curve" smooth="yes"/>
      <point x="404" y="239"/>
      <point x="352" y="247"/>
      <point x="272" y="280" type="curve" smooth="yes"/>
      <point x="204" y="308"/>
      <point x="74" y="363"/>
      <point x="74" y="510" type="curve" smooth="yes"/>
      <point x="74" y="636"/>
      <point x="183" y="720"/>
      <point x="347" y="720" type="curve" smooth="yes"/>
      <point x="520" y="720"/>
      <point x="599" y="635"/>
      <point x="627" y="564" type="curve"/>
      <point x="464" y="474" type="line"/>
      <point x="434" y="522"/>
      <point x="398" y="539"/>
      <point x="358" y="539" type="curve" smooth="yes"/>
      <point x="322" y="539"/>
      <point x="298" y="525"/>
      <point x="298" y="504" type="curve" smooth="yes"/>
      <point x="298" y="468"/>
      <point x="376" y="452"/>
      <point x="458" y="423" type="curve" smooth="yes"/>
      <point x="570" y="384"/>
      <point x="637" y="317"/>
      <point x="637" y="200" type="curve" smooth="yes"/>
      <point x="637" y="43"/>
      <point x="515" y="-30"/>
      <point x="336" y="-30" type="curve" smooth="yes"/>
      <point x="201" y="-30"/>
      <point x="74" y="43"/>
      <point x="30" y="158" type="curve"/>
    </contour>
    <contour>
      <point x="242" y="-70" type="line"/>
      <point x="438" y="-104" type="line"/>
      <point x="302" y="-354" type="line"/>
      <point x="154" y="-329" type="line"/>
    </contour>
  </outline>
</glyph>
<glyph name="uni021A" format="2">
  <advance width="620"/>
  <unicode hex="021A"/>
  <outline>
    <contour>
      <point x="0" y="505" type="line"/>
      <point x="0" y="700" type="line"/>
      <point x="620" y="700" type="line"/>
      <point x="620" y="505" type="line"/>
      <point x="420" y="505" type="line"/>
      <point x="420" y="0" type="line"/>
      <point x="200" y="0" type="line"/>
      <point x="200" y="505" type="line"/>
    </contour>
    <contour>
      <point x="256.5" y="-60" type="line"/>
      <point x="451.5" y="-94" type="line"/>
      <point x="316.5" y="-344" type="line"/>
      <point x="168.5" y="-319" type="line"/>
    </contour>
  </outline>
</glyph>
<glyph name="circumflex" format="2">
  <advance width="480"/>
  <unicode hex="02C6"/>
  <outline>
    <contour>
      <point x="240" y="620" type="line"/>
      <point x="160" y="540" type="line"/>
      <point x="20" y="630" type="line"/>
      <point x="240" y="770" type="line"/>
      <point x="460" y="630" type="line"/>
      <point x="320" y="540" type="line"/>
    </contour>
  </outline>
</glyph>
<glyph name="caron" format="2">
  <advance width="480"/>
  <unicode hex="02C7"/>
  <outline>
    <contour>
      <point x="240" y="689" type="line"/>
      <point x="320" y="769" type="line"/>
      <point x="460" y="679" type="line"/>
      <point x="240" y="539" type="line"/>
      <point x="20" y="679" type="line"/>
      <point x="160" y="769" type="line"/>
    </contour>
  </outline>
</glyph>
<glyph name="pi" format="1">
  <advance width="640"/>
  <unicode hex="03C0"/>
  <outline>
    <contour>
      <point x="90" y="430" type="line"/>
      <point x="270" y="430" type="line"/>
      <point x="270" y="0" type="line"/>
      <point x="90" y="0" type="line"/>
    </contour>
    <contour>
      <point x="30" y="460" type="line"/>
      <point x="600" y="460" type="line"/>
      <point x="600" y="305" type="line"/>
      <point x="30" y="305" type="line"/>
    </contour>
    <contour>
      <point x="340" y="430" type="line"/>
      <point x="520" y="430" type="line"/>
      <point x="520" y="201" type="line" smooth="yes"/>
      <point x="520" y="135"/>
      <point x="543" y="131"/>
      <point x="573" y="131" type="curve"/>
      <point x="573" y="-9" type="line"/>
      <point x="419" y="-9"/>
      <point x="340" y="-8"/>
      <point x="340" y="121" type="curve" smooth="yes"/>
    </contour>
  </outline>
</glyph>
<glyph name="uni0414" format="2">
  <advance width="935"/>
  <unicode hex="0414"/>
  <outline>
    <contour>
      <point x="465" y="362" type="line"/>
      <point x="350" y="30" type="line"/>
      <point x="90" y="30" type="line"/>
      <point x="465" y="735" type="line"/>
      <point x="840" y="30" type="line"/>
      <point x="580" y="30" type="line"/>
    </contour>
    <contour>
      <point x="665" y="0" type="line"/>
      <point x="265" y="0" type="line"/>
      <point x="265" y="-110" type="line"/>
      <point x="40" y="-110" type="line"/>
      <point x="40" y="185" type="line"/>
      <point x="890" y="185" type="line"/>
      <point x="890" y="-110" type="line"/>
      <point x="665" y="-110" type="line"/>
    </contour>
  </outline>
</glyph>
<glyph name="uni0418" format="2">
  <advance width="805"/>
  <unicode hex="0418"/>
  <outline>
    <contour>
      <point x="730" y="475" type="line"/>
      <point x="70" y="-35" type="line"/>
      <point x="75" y="225" type="line"/>
      <point x="735" y="735" type="line"/>
    </contour>
    <contour>
      <point x="280" y="700" type="line"/>
      <point x="280" y="165" type="line"/>
      <point x="70" y="-35" type="line"/>
      <point x="70" y="700" type="line"/>
    </contour>
    <contour>
      <point x="735" y="735" type="line"/>
      <point x="735" y="0" type="line"/>
      <point x="525" y="0" type="line"/>
      <point x="525" y="525" type="line"/>
    </contour>
  </outline>
</glyph>
<glyph name="uni0419" format="2">
  <advance width="805"/>
  <unicode hex="0419"/>
  <outline>
    <contour>
      <point x="730" y="475" type="line"/>
      <point x="70" y="-35" type="line"/>
      <point x="75" y="225" type="line"/>
      <point x="735" y="735" type="line"/>
    </contour>
    <contour>
      <point x="280" y="700" type="line"/>
      <point x="280" y="165" type="line"/>
      <point x="70" y="-35" type="line"/>
      <point x="70" y="700" type="line"/>
    </contour>
    <contour>
      <point x="735" y="735" type="line"/>
      <point x="735" y="0" type="line"/>
      <point x="525" y="0" type="line"/>
      <point x="525" y="525" type="line"/>
    </contour>
    <contour>
      <point x="257" y="925" type="curve"/>
      <point x="373" y="925" type="line"/>
      <point x="373" y="884"/>
      <point x="405" y="875"/>
      <point x="425" y="875" type="curve" smooth="yes"/>
      <point x="445" y="875"/>
      <point x="477" y="884"/>
      <point x="477" y="925" type="curve"/>
      <point x="593" y="925" type="line"/>
      <point x="593" y="836"/>
      <point x="530" y="775"/>
      <point x="425" y="775" type="curve" smooth="yes"/>
      <point x="320" y="775"/>
      <point x="257" y="836"/>
    </contour>
  </outline>
</glyph>
<glyph name="uni041C" format="2">
  <advance width="940"/>
  <unicode hex="041C"/>
  <outline>
    <contour>
      <point x="301.086" y="285.678" type="line"/>
      <point x="265" y="0" type="line"/>
      <point x="30" y="0" type="line"/>
      <point x="160" y="735" type="line"/>
      <point x="470" y="357" type="line"/>
      <point x="780" y="735" type="line"/>
      <point x="910" y="0" type="line"/>
      <point x="675" y="0" type="line"/>
      <point x="638.914" y="285.678" type="line"/>
      <point x="470" y="65" type="line"/>
    </contour>
  </outline>
</glyph>
<glyph name="uni041F" format="2">
  <advance width="805"/>
  <unicode hex="041F"/>
  <outline>
    <contour>
      <point x="500" y="505" type="line"/>
      <point x="305" y="505" type="line"/>
      <point x="305" y="0" type="line"/>
      <point x="80" y="0" type="line"/>
      <point x="80" y="700" type="line"/>
      <point x="725" y="700" type="line"/>
      <point x="725" y="0" type="line"/>
      <point x="500" y="0" type="line"/>
    </contour>
  </outline>
</glyph>
<glyph name="uni0421" format="2">
  <advance width="710"/>
  <unicode hex="0421"/>
  <outline>
    <contour>
      <point x="272" y="350" type="curve" smooth="yes"/>
      <point x="272" y="242"/>
      <point x="353" y="187"/>
      <point x="451" y="187" type="curve" smooth="yes"/>
      <point x="550" y="187"/>
      <point x="606" y="231"/>
      <point x="650" y="273" type="curve"/>
      <point x="650" y="47" type="line"/>
      <point x="595" y="9"/>
      <point x="537" y="-20"/>
      <point x="435" y="-20" type="curve" smooth="yes"/>
      <point x="191" y="-20"/>
      <point x="30" y="126"/>
      <point x="30" y="350" type="curve" smooth="yes"/>
      <point x="30" y="574"/>
      <point x="191" y="720"/>
      <point x="435" y="720" type="curve" smooth="yes"/>
      <point x="537" y="720"/>
      <point x="595" y="691"/>
      <point x="650" y="653" type="curve"/>
      <point x="650" y="427" type="line"/>
      <point x="606" y="469"/>
      <point x="550" y="513"/>
      <point x="451" y="513" type="curve" smooth="yes"/>
      <point x="353" y="513"/>
      <point x="272" y="458"/>
    </contour>
  </outline>
</glyph>
<glyph name="uni0424" format="2">
  <advance width="1023"/>
  <unicode hex="0424"/>
  <outline>
    <contour>
      <point x="399" y="700" type="line"/>
      <point x="624" y="700" type="line"/>
      <point x="624" y="0" type="line"/>
      <point x="399" y="0" type="line"/>
    </contour>
    <contour>
      <point x="758" y="350" type="curve" smooth="yes"/>
      <point x="758" y="423"/>
      <point x="701" y="435"/>
      <point x="603" y="435" type="curve" smooth="yes"/>
      <point x="420" y="435" type="line" smooth="yes"/>
      <point x="322" y="435"/>
      <point x="265" y="423"/>
      <point x="265" y="350" type="curve" smooth="yes"/>
      <point x="265" y="277"/>
      <point x="322" y="265"/>
      <point x="420" y="265" type="curve" smooth="yes"/>
      <point x="603" y="265" type="line" smooth="yes"/>
      <point x="701" y="265"/>
      <point x="758" y="277"/>
    </contour>
    <contour>
      <point x="983" y="350" type="curve" smooth="yes"/>
      <point x="983" y="181"/>
      <point x="837" y="80"/>
      <point x="653" y="80" type="curve" smooth="yes"/>
      <point x="370" y="80" type="line" smooth="yes"/>
      <point x="186" y="80"/>
      <point x="40" y="181"/>
      <point x="40" y="350" type="curve" smooth="yes"/>
      <point x="40" y="519"/>
      <point x="186" y="620"/>
      <point x="370" y="620" type="curve" smooth="yes"/>
      <point x="653" y="620" type="line" smooth="yes"/>
      <point x="837" y="620"/>
      <point x="983" y="519"/>
    </contour>
  </outline>
</glyph>
<glyph name="uni0438" format="2">
  <advance width="620"/>
  <unicode hex="0438"/>
  <outline>
    <contour>
      <point x="565" y="300" type="line"/>
      <point x="50" y="-35" type="line"/>
      <point x="55" y="160" type="line"/>
      <point x="570" y="495" type="line"/>
    </contour>
    <contour>
      <point x="235" y="460" type="line"/>
      <point x="235" y="125" type="line"/>
      <point x="50" y="-35" type="line"/>
      <point x="50" y="460" type="line"/>
    </contour>
    <contour>
      <point x="570" y="495" type="line"/>
      <point x="570" y="0" type="line"/>
      <point x="385" y="0" type="line"/>
      <point x="385" y="335" type="line"/>
    </contour>
  </outline>
</glyph>
<glyph name="uni0439" format="2">
  <advance width="620"/>
  <unicode hex="0439"/>
  <outline>
    <contour>
      <point x="565" y="300" type="line"/>
      <point x="50" y="-35" type="line"/>
      <point x="55" y="160" type="line"/>
      <point x="570" y="495" type="line"/>
    </contour>
    <contour>
      <point x="235" y="460" type="line"/>
      <point x="235" y="125" type="line"/>
      <point x="50" y="-35" type="line"/>
      <point x="50" y="460" type="line"/>
    </contour>
    <contour>
      <point x="570" y="495" type="line"/>
      <point x="570" y="0" type="line"/>
      <point x="385" y="0" type="line"/>
      <point x="385" y="335" type="line"/>
    </contour>
    <contour>
      <point x="152" y="695" type="curve"/>
      <point x="268" y="695" type="line"/>
      <point x="268" y="654"/>
      <point x="300" y="645"/>
      <point x="320" y="645" type="curve" smooth="yes"/>
      <point x="340" y="645"/>
      <point x="372" y="654"/>
      <point x="372" y="695" type="curve"/>
      <point x="488" y="695" type="line"/>
      <point x="488" y="606"/>
      <point x="425" y="545"/>
      <point x="320" y="545" type="curve" smooth="yes"/>
      <point x="215" y="545"/>
      <point x="152" y="606"/>
    </contour>
  </outline>
</glyph>
<glyph name="uni043C" format="2">
  <advance width="687"/>
  <unicode hex="043C"/>
  <outline>
    <contour>
      <point x="492" y="0" type="line"/>
      <point x="437" y="285" type="line"/>
      <point x="532" y="495" type="line"/>
      <point x="682" y="0" type="line"/>
    </contour>
    <contour>
      <point x="312" y="169" type="line"/>
      <point x="532" y="495" type="line"/>
      <point x="542" y="265" type="line"/>
      <point x="342" y="-31" type="line"/>
    </contour>
    <contour>
      <point x="342" y="-31" type="line"/>
      <point x="145" y="265" type="line"/>
      <point x="155" y="495" type="line"/>
      <point x="372" y="169" type="line"/>
    </contour>
    <contour>
      <point x="5" y="0" type="line"/>
      <point x="155" y="495" type="line"/>
      <point x="250" y="285" type="line"/>
      <point x="195" y="0" type="line"/>
    </contour>
  </outline>
</glyph>
<glyph name="uni043F" format="2">
  <advance width="605"/>
  <unicode hex="043F"/>
  <outline>
    <contour>
      <point x="555" y="460" type="line"/>
      <point x="555" y="0" type="line"/>
      <point x="370" y="0" type="line"/>
      <point x="370" y="295" type="line"/>
      <point x="235" y="295" type="line"/>
      <point x="235" y="0" type="line"/>
      <point x="50" y="0" type="line"/>
      <point x="50" y="460" type="line"/>
    </contour>
  </outline>
</glyph>
<glyph name="uni0442" format="2">
  <advance width="365"/>
  <unicode hex="0442"/>
  <outline>
    <contour>
      <point x="5" y="460" type="line"/>
      <point x="360" y="460" type="line"/>
      <point x="360" y="305" type="line"/>
      <point x="5" y="305" type="line"/>
    </contour>
    <contour>
      <point x="90" y="440" type="line"/>
      <point x="275" y="440" type="line"/>
      <point x="275" y="0" type="line"/>
      <point x="90" y="0" type="line"/>
    </contour>
  </outline>
</glyph>
<glyph name="uni0444" format="2">
  <advance width="716"/>
  <unicode hex="0444"/>
  <outline>
    <contour>
      <point x="268" y="560" type="line"/>
      <point x="448" y="560" type="line"/>
      <point x="448" y="-100" type="line"/>
      <point x="268" y="-100" type="line"/>
    </contour>
    <contour>
      <point x="30" y="230" type="curve" smooth="yes"/>
      <point x="30" y="379"/>
      <point x="148" y="471"/>
      <point x="358" y="471" type="curve" smooth="yes"/>
      <point x="568" y="471"/>
      <point x="686" y="379"/>
      <point x="686" y="230" type="curve" smooth="yes"/>
      <point x="686" y="81"/>
      <point x="568" y="-10"/>
      <point x="358" y="-10" type="curve" smooth="yes"/>
      <point x="148" y="-10"/>
      <point x="30" y="81"/>
    </contour>
    <contour>
      <point x="201" y="230" type="curve" smooth="yes"/>
      <point x="201" y="174"/>
      <point x="238" y="145"/>
      <point x="358" y="145" type="curve" smooth="yes"/>
      <point x="478" y="145"/>
      <point x="515" y="174"/>
      <point x="515" y="230" type="curve" smooth="yes"/>
      <point x="515" y="286"/>
      <point x="478" y="316"/>
      <point x="358" y="316" type="curve" smooth="yes"/>
      <point x="238" y="316"/>
      <point x="201" y="286"/>
    </contour>
  </outline>
</glyph>
<glyph name="uni0445" format="2">
  <advance width="600"/>
  <unicode hex="0445"/>
  <outline>
    <contour>
      <point x="375" y="460" type="line"/>
      <point x="590" y="460" type="line"/>
      <point x="402" y="236" type="line"/>
      <point x="600" y="0" type="line"/>
      <point x="385" y="0" type="line"/>
      <point x="304" y="109" type="line"/>
      <point x="225" y="0" type="line"/>
      <point x="0" y="0" type="line"/>
      <point x="202" y="236" type="line"/>
      <point x="10" y="460" type="line"/>
      <point x="235" y="460" type="line"/>
      <point x="304" y="363" type="line"/>
    </contour>
  </outline>
</glyph>
<glyph name="uni0447" format="2">
  <advance width="585"/>
  <unicode hex="0447"/>
  <outline>
    <contour>
      <point x="230" y="100" type="line"/>
      <point x="300" y="255" type="line"/>
      <point x="387" y="255" type="line"/>
      <point x="387" y="100" type="line"/>
    </contour>
    <contour>
      <point x="330" y="460" type="line"/>
      <point x="525" y="460" type="line"/>
      <point x="525" y="0" type="line"/>
      <point x="330" y="0" type="line"/>
    </contour>
    <contour>
      <point x="245" y="460" type="line"/>
      <point x="245" y="308" type="line" smooth="yes"/>
      <point x="245" y="268"/>
      <point x="264" y="255"/>
      <point x="300" y="255" type="curve"/>
      <point x="230" y="100" type="line"/>
      <point x="91" y="100"/>
      <point x="50" y="193"/>
      <point x="50" y="328" type="curve" smooth="yes"/>
      <point x="50" y="460" type="line"/>
    </contour>
  </outline>
</glyph>
<glyph name="uni0453" format="2">
  <advance width="375"/>
  <unicode hex="0453"/>
  <outline>
    <contour>
      <point x="50" y="460" type="line"/>
      <point x="375" y="460" type="line"/>
      <point x="375" y="305" type="line"/>
      <point x="240" y="305" type="line"/>
      <point x="240" y="0" type="line"/>
      <point x="50" y="0" type="line"/>
    </contour>
    <contour>
      <point x="392.5" y="681" type="line"/>
      <point x="212.5" y="531" type="line"/>
      <point x="102.5" y="581" type="line"/>
      <point x="252.5" y="741" type="line"/>
    </contour>
  </outline>
</glyph>
<glyph name="uni1E9E" format="2">
  <advance width="996"/>
  <unicode hex="1E9E"/>
  <outline>
    <contour>
      <point x="623" y="-20" type="curve" smooth="yes"/>
      <point x="408" y="-20"/>
      <point x="345" y="136"/>
      <point x="345" y="245" type="curve"/>
      <point x="531" y="245" type="line"/>
      <point x="531" y="189"/>
      <point x="566" y="150"/>
      <point x="623" y="150" type="curve" smooth="yes"/>
      <point x="683" y="150"/>
      <point x="704" y="169"/>
      <point x="704" y="215" type="curve" smooth="yes"/>
      <point x="704" y="271"/>
      <point x="653" y="295"/>
      <point x="563" y="295" type="curve"/>
      <point x="563" y="380" type="line"/>
      <point x="768" y="380"/>
      <point x="921" y="324"/>
      <point x="921" y="185" type="curve" smooth="yes"/>
      <point x="921" y="66"/>
      <point x="798" y="-20"/>
    </contour>
    <contour>
      <point x="563" y="345" type="curve"/>
      <point x="563" y="425" type="line"/>
      <point x="633" y="425"/>
      <point x="674" y="445"/>
      <point x="674" y="491" type="curve" smooth="yes"/>
      <point x="674" y="527"/>
      <point x="638" y="548"/>
      <point x="538" y="548" type="curve" smooth="yes"/>
      <point x="413" y="548"/>
      <point x="300" y="477"/>
      <point x="300" y="306" type="curve" smooth="yes"/>
      <point x="300" y="0" type="line"/>
      <point x="80" y="0" type="line"/>
      <point x="80" y="346" type="line" smooth="yes"/>
      <point x="80" y="555"/>
      <point x="252" y="710"/>
      <point x="527" y="710" type="curve" smooth="yes"/>
      <point x="777" y="710"/>
      <point x="901" y="628"/>
      <point x="901" y="514" type="curve" smooth="yes"/>
      <point x="901" y="405"/>
      <point x="768" y="345"/>
    </contour>
  </outline>
</glyph>
<glyph name="emdash" format="2">
  <advance width="970"/>
  <unicode hex="2014"/>
  <outline>
    <contour>
      <point x="70" y="155" type="line"/>
      <point x="70" y="320" type="line"/>
      <point x="895" y="320" type="line"/>
      <point x="895" y="155" type="line"/>
    </contour>
  </outline>
</glyph>
<glyph name="quoteleft" format="2">
  <advance width="365"/>
  <unicode hex="2018"/>
  <outline>
    <contour>
      <point x="265" y="430" type="line"/>
      <point x="70" y="430" type="line"/>
      <point x="175" y="700" type="line"/>
      <point x="315" y="700" type="line"/>
    </contour>
  </outline>
</glyph>
<glyph name="quotedblleft" format="2">
  <advance width="615"/>
  <unicode hex="201C"/>
  <outline>
    <contour>
      <point x="265" y="430" type="line"/>
      <point x="70" y="430" type="line"/>
      <point x="175" y="700" type="line"/>
      <point x="315" y="700" type="line"/>
    </contour>
    <contour>
      <point x="515" y="430" type="line"/>
      <point x="320" y="430" type="line"/>
      <point x="425" y="700" type="line"/>
      <point x="565" y="700" type="line"/>
    </contour>
  </outline>
</glyph>
<glyph name="dagger" format="2">
  <advance width="670"/>
  <unicode hex="2020"/>
  <outline>
    <contour>
      <point x="90" y="540" type="line"/>
      <point x="580" y="540" type="line"/>
      <point x="580" y="385" type="line"/>
      <point x="90" y="385" type="line"/>
    </contour>
    <contour>
      <point x="245" y="700" type="line"/>
      <point x="425" y="700" type="line"/>
      <point x="425" y="-150" type="line"/>
      <point x="245" y="-150" type="line"/>
    </contour>
  </outline>
</glyph>
<glyph name="bullet" format="2">
  <advance width="300"/>
  <unicode hex="2022"/>
  <outline>
    <contour>
      <point x="50" y="460" type="curve" smooth="yes"/>
      <point x="50" y="523"/>
      <point x="98" y="575"/>
      <point x="168" y="575" type="curve" smooth="yes"/>
      <point x="238" y="575"/>
      <point x="286" y="523"/>
      <point x="286" y="460" type="curve" smooth="yes"/>
      <point x="286" y="397"/>
      <point x="238" y="345"/>
      <point x="168" y="345" type="curve" smooth="yes"/>
      <point x="98" y="345"/>
      <point x="50" y="397"/>
    </contour>
  </outline>
</glyph>
<glyph name="ellipsis" format="1">
  <advance width="940"/>
  <unicode hex="2026"/>
  <outline>
    <contour>
      <point x="50" y="85" type="curve" smooth="yes"/>
      <point x="50" y="148"/>
      <point x="98" y="200"/>
      <point x="168" y="200" type="curve" smooth="yes"/>
      <point x="238" y="200"/>
      <point x="286" y="148"/>
      <point x="286" y="85" type="curve" smooth="yes"/>
      <point x="286" y="22"/>
      <point x="238" y="-30"/>
      <point x="168" y="-30" type="curve" smooth="yes"/>
      <point x="98" y="-30"/>
      <point x="50" y="22"/>
    </contour>
    <contour>
      <point x="350" y="85" type="curve" smooth="yes"/>
      <point x="350" y="148"/>
      <point x="398" y="200"/>
      <point x="468" y="200" type="curve" smooth="yes"/>
      <point x="538" y="200"/>
      <point x="586" y="148"/>
      <point x="586" y="85" type="curve" smooth="yes"/>
      <point x="586" y="22"/>
      <point x="538" y="-30"/>
      <point x="468" y="-30" type="curve" smooth="yes"/>
      <point x="398" y="-30"/>
      <point x="350" y="22"/>
    </contour>
    <contour>
      <point x="650" y="85" type="curve" smooth="yes"/>
      <point x="650" y="148"/>
      <point x="698" y="200"/>
      <point x="768" y="200" type="curve" smooth="yes"/>
      <point x="838" y="200"/>
      <point x="886" y="148"/>
      <point x="886" y="85" type="curve" smooth="yes"/>
      <point x="886" y="22"/>
      <point x="838" y="-30"/>
      <point x="768" y="-30" type="curve" smooth="yes"/>
      <point x="698" y="-30"/>
      <point x="650" y="22"/>
    </contour>
  </outline>
</glyph>
<glyph name="guilsinglleft" format="2">
  <advance width="350"/>
  <unicode hex="2039"/>
  <outline>
    <contour>
      <point x="159.767" y="259.419" type="line"/>
      <point x="310" y="65" type="line"/>
      <point x="190" y="-10" type="line"/>
      <point x="20" y="255" type="line"/>
      <point x="190" y="520" type="line"/>
      <point x="310" y="445" type="line"/>
    </contour>
  </outline>
</glyph>
<glyph name="uni2070" format="2">
  <advance width="402"/>
  <unicode hex="2070"/>
  <outline>
    <contour>
      <point x="141" y="490" type="curve" smooth="yes"/>
      <point x="141" y="422"/>
      <point x="166" y="382"/>
      <point x="201" y="382" type="curve" smooth="yes"/>
      <point x="236" y="382"/>
      <point x="261" y="422"/>
      <point x="261" y="490" type="curve" smooth="yes"/>
      <point x="261" y="558"/>
      <point x="236" y="598"/>
      <point x="201" y="598" type="curve" smooth="yes"/>
      <point x="166" y="598"/>
      <point x="141" y="558"/>
    </contour>
    <contour>
      <point x="15" y="490" type="curve" smooth="yes"/>
      <point x="15" y="633"/>
      <point x="91" y="709"/>
      <point x="201" y="709" type="curve" smooth="yes"/>
      <point x="317" y="709"/>
      <point x="387" y="633"/>
      <point x="387" y="490" type="curve" smooth="yes"/>
      <point x="387" y="347"/>
      <point x="317" y="271"/>
      <point x="201" y="271" type="curve" smooth="yes"/>
      <point x="91" y="271"/>
      <point x="15" y="347"/>
    </contour>
  </outline>
</glyph>
<glyph name="uni2074" format="2">
  <advance width="451"/>
  <unicode hex="2074"/>
  <outline>
    <contour>
      <point x="7" y="349" type="line"/>
      <point x="115" y="439" type="line"/>
      <point x="303" y="439" type="line" smooth="yes"/>
      <point x="313" y="460" type="line" smooth="yes"/>
      <point x="432" y="460" type="line"/>
      <point x="432" y="349" type="line"/>
    </contour>
    <contour>
      <point x="139" y="397" type="line"/>
      <point x="7" y="349" type="line"/>
      <point x="258" y="700" type="line"/>
      <point x="366" y="700" type="line"/>
      <point x="366" y="280" type="line"/>
      <point x="228" y="280" type="line"/>
      <point x="228" y="371" type="line" smooth="yes"/>
      <point x="246" y="377" type="line" smooth="yes"/>
      <point x="246" y="533" type="line"/>
    </contour>
  </outline>
</glyph>
<glyph name="uni2077" format="2">
  <advance width="394"/>
  <unicode hex="2077"/>
  <outline>
    <contour>
      <point x="19" y="577" type="line"/>
      <point x="19" y="700" type="line"/>
      <point x="391" y="700" type="line"/>
      <point x="187" y="280" type="line"/>
      <point x="44" y="280" type="line"/>
      <point x="198" y="577" type="line"/>
    </contour>
  </outline>
</glyph>
<glyph name="uni2078" format="2">
  <advance width="386"/>
  <unicode hex="2078"/>
  <outline>
    <contour>
      <point x="33" y="599" type="curve" smooth="yes"/>
      <point x="33" y="676"/>
      <point x="107" y="712"/>
      <point x="191" y="712" type="curve" smooth="yes"/>
      <point x="275" y="712"/>
      <point x="349" y="676"/>
      <point x="349" y="599" type="curve" smooth="yes"/>
      <point x="349" y="516"/>
      <point x="260" y="481"/>
      <point x="191" y="481" type="curve" smooth="yes"/>
      <point x="122" y="481"/>
      <point x="33" y="516"/>
    </contour>
    <contour>
      <point x="157" y="587" type="curve" smooth="yes"/>
      <point x="157" y="565"/>
      <point x="170" y="550"/>
      <point x="191" y="550" type="curve" smooth="yes"/>
      <point x="212" y="550"/>
      <point x="225" y="565"/>
      <point x="225" y="587" type="curve" smooth="yes"/>
      <point x="225" y="609"/>
      <point x="212" y="622"/>
      <point x="191" y="622" type="curve" smooth="yes"/>
      <point x="170" y="622"/>
      <point x="157" y="609"/>
    </contour>
    <contour>
      <point x="18" y="394" type="curve" smooth="yes"/>
      <point x="18" y="489"/>
      <point x="122" y="520"/>
      <point x="191" y="520" type="curve" smooth="yes"/>
      <point x="260" y="520"/>
      <point x="364" y="489"/>
      <point x="364" y="394" type="curve" smooth="yes"/>
      <point x="364" y="311"/>
      <point x="278" y="268"/>
      <point x="191" y="268" type="curve" smooth="yes"/>
      <point x="104" y="268"/>
      <point x="18" y="311"/>
    </contour>
    <contour>
      <point x="151" y="415" type="curve" smooth="yes"/>
      <point x="151" y="387"/>
      <point x="167" y="373"/>
      <point x="191" y="373" type="curve" smooth="yes"/>
      <point x="215" y="373"/>
      <point x="231" y="387"/>
      <point x="231" y="415" type="curve" smooth="yes"/>
      <point x="231" y="437"/>
      <point x="215" y="454"/>
      <point x="191" y="454" type="curve" smooth="yes"/>
      <point x="167" y="454"/>
      <point x="151" y="437"/>
    </contour>
  </outline>
</glyph>
<glyph name="uni2079" format="1">
  <advance width="401"/>
  <unicode hex="2079"/>
  <outline>
    <contour>
      <point x="256" y="549" type="curve" smooth="yes"/>
      <point x="256" y="583"/>
      <point x="232" y="603"/>
      <point x="200" y="603" type="curve" smooth="yes"/>
      <point x="168" y="603"/>
      <point x="143" y="583"/>
      <point x="143" y="549" type="curve" smooth="yes"/>
      <point x="143" y="515"/>
      <point x="168" y="494"/>
      <point x="200" y="494" type="curve" smooth="yes"/>
      <point x="232" y="494"/>
      <point x="256" y="515"/>
    </contour>
    <contour>
      <point x="217" y="285" type="line"/>
      <point x="49" y="285" type="line"/>
      <point x="188" y="424" type="line"/>
      <point x="219" y="440" type="line"/>
      <point x="193" y="417"/>
      <point x="177" y="412"/>
      <point x="145" y="412" type="curve" smooth="yes"/>
      <point x="86" y="412"/>
      <point x="12" y="460"/>
      <point x="12" y="549" type="curve" smooth="yes"/>
      <point x="12" y="662"/>
      <point x="98" y="714"/>
      <point x="200" y="714" type="curve" smooth="yes"/>
      <point x="302" y="714"/>
      <point x="388" y="662"/>
      <point x="388" y="549" type="curve" smooth="yes"/>
      <point x="388" y="497"/>
      <point x="359" y="455"/>
      <point x="325" y="414" type="curve" smooth="yes"/>
    </contour>
  </outline>
</glyph>
<glyph name="uni2081" format="2">
  <advance width="389"/>
  <unicode hex="2081"/>
  <outline>
    <contour>
      <point x="90" y="276" type="line"/>
      <point x="90" y="386" type="line"/>
      <point x="327" y="430" type="line"/>
      <point x="327" y="1" type="line"/>
      <point x="201" y="1" type="line"/>
      <point x="201" y="301" type="line"/>
    </contour>
  </outline>
</glyph>
<glyph name="uni2082" format="1">
  <advance width="450"/>
  <unicode hex="2082"/>
  <outline>
    <contour>
      <point x="30" y="2" type="line"/>
      <point x="211" y="185" type="line" smooth="yes"/>
      <point x="248" y="225"/>
      <point x="271" y="248"/>
      <point x="271" y="281" type="curve" smooth="yes"/>
      <point x="271" y="302"/>
      <point x="258" y="321"/>
      <point x="227" y="321" type="curve" smooth="yes"/>
      <point x="197" y="321"/>
      <point x="177" y="294"/>
      <point x="177" y="260" type="curve"/>
      <point x="48" y="260" type="line"/>
      <point x="48" y="349"/>
      <point x="109" y="432"/>
      <point x="232" y="432" type="curve" smooth="yes"/>
      <point x="343" y="432"/>
      <point x="407" y="362"/>
      <point x="407" y="291" type="curve" smooth="yes"/>
      <point x="407" y="245"/>
      <point x="382" y="209"/>
      <point x="344" y="180" type="curve" smooth="yes"/>
      <point x="268" y="122" type="line"/>
      <point x="422" y="122" type="line"/>
      <point x="422" y="2" type="line"/>
    </contour>
  </outline>
</glyph>
<glyph name="uni2083" format="2">
  <advance width="408"/>
  <unicode hex="2083"/>
  <outline>
    <contour>
      <point x="169" y="201" type="curve"/>
      <point x="169" y="254" type="line"/>
      <point x="211" y="254"/>
      <point x="242" y="276"/>
      <point x="242" y="301" type="curve" smooth="yes"/>
      <point x="242" y="317"/>
      <point x="230" y="327"/>
      <point x="204" y="327" type="curve" smooth="yes"/>
      <point x="177" y="327"/>
      <point x="159" y="311"/>
      <point x="159" y="286" type="curve"/>
      <point x="38" y="286" type="line"/>
      <point x="38" y="366"/>
      <point x="103" y="429"/>
      <point x="205" y="429" type="curve" smooth="yes"/>
      <point x="313" y="429"/>
      <point x="372" y="378"/>
      <point x="372" y="310" type="curve" smooth="yes"/>
      <point x="372" y="230"/>
      <point x="280" y="201"/>
    </contour>
    <contour>
      <point x="199" y="-12" type="curve" smooth="yes"/>
      <point x="85" y="-12"/>
      <point x="20" y="67"/>
      <point x="20" y="147" type="curve"/>
      <point x="150" y="147" type="line"/>
      <point x="150" y="104"/>
      <point x="178" y="90"/>
      <point x="205" y="90" type="curve" smooth="yes"/>
      <point x="232" y="90"/>
      <point x="254" y="98"/>
      <point x="254" y="129" type="curve" smooth="yes"/>
      <point x="254" y="154"/>
      <point x="235" y="177"/>
      <point x="169" y="177" type="curve"/>
      <point x="169" y="239" type="line"/>
      <point x="298" y="239"/>
      <point x="384" y="203"/>
      <point x="384" y="117" type="curve" smooth="yes"/>
      <point x="384" y="43"/>
      <point x="319" y="-12"/>
    </contour>
  </outline>
</glyph>
<glyph name="uni2085" format="2">
  <advance width="420"/>
  <unicode hex="2085"/>
  <outline>
    <contour>
      <point x="387" y="130" type="curve" smooth="yes"/>
      <point x="387" y="29"/>
      <point x="285" y="-11"/>
      <point x="204" y="-11" type="curve" smooth="yes"/>
      <point x="127" y="-11"/>
      <point x="71" y="5"/>
      <point x="25" y="23" type="curve"/>
      <point x="62" y="140" type="line"/>
      <point x="105" y="116"/>
      <point x="146" y="109"/>
      <point x="168" y="109" type="curve" smooth="yes"/>
      <point x="213" y="109"/>
      <point x="242" y="117"/>
      <point x="242" y="148" type="curve" smooth="yes"/>
      <point x="242" y="179"/>
      <point x="201" y="184"/>
      <point x="168" y="184" type="curve" smooth="yes"/>
      <point x="140" y="184"/>
      <point x="87" y="180"/>
      <point x="44" y="164" type="curve"/>
      <point x="139" y="222" type="line"/>
      <point x="173" y="258"/>
      <point x="211" y="265"/>
      <point x="258" y="265" type="curve" smooth="yes"/>
      <point x="321" y="265"/>
      <point x="387" y="219"/>
    </contour>
    <contour>
      <point x="200" y="304" type="line"/>
      <point x="163" y="212" type="line"/>
      <point x="44" y="164" type="line"/>
      <point x="104" y="418" type="line"/>
      <point x="374" y="418" type="line"/>
      <point x="374" y="304" type="line"/>
    </contour>
  </outline>
</glyph>
<glyph name="uni2087" format="2">
  <advance width="402"/>
  <unicode hex="2087"/>
  <outline>
    <contour>
      <point x="25" y="297" type="line"/>
      <point x="25" y="420" type="line"/>
      <point x="397" y="420" type="line"/>
      <point x="193" y="0" type="line"/>
      <point x="50" y="0" type="line"/>
      <point x="204" y="297" type="line"/>
    </contour>
  </outline>
</glyph>
<glyph name="uni2155" format="1">
  <advance width="934"/>
  <unicode hex="2155"/>
  <outline>
    <contour>
      <point x="618" y="700" type="line"/>
      <point x="773" y="700" type="line"/>
      <point x="253" y="0" type="line"/>
      <point x="98" y="0" type="line"/>
    </contour>
    <contour>
      <point x="20" y="549" type="line"/>
      <point x="20" y="659" type="line"/>
      <point x="257" y="703" type="line"/>
      <point x="257" y="274" type="line"/>
      <point x="131" y="274" type="line"/>
      <point x="131" y="574" type="line"/>
    </contour>
    <contour>
      <point x="915" y="130" type="curve" smooth="yes"/>
      <point x="915" y="29"/>
      <point x="813" y="-11"/>
      <point x="732" y="-11" type="curve" smooth="yes"/>
      <point x="655" y="-11"/>
      <point x="599" y="5"/>
      <point x="553" y="23" type="curve"/>
      <point x="590" y="140" type="line"/>
      <point x="633" y="116"/>
      <point x="674" y="109"/>
      <point x="696" y="109" type="curve" smooth="yes"/>
      <point x="741" y="109"/>
      <point x="770" y="117"/>
      <point x="770" y="148" type="curve" smooth="yes"/>
      <point x="770" y="179"/>
      <point x="729" y="184"/>
      <point x="696" y="184" type="curve" smooth="yes"/>
      <point x="668" y="184"/>
      <point x="615" y="180"/>
      <point x="572" y="164" type="curve"/>
      <point x="667" y="222" type="line"/>
      <point x="701" y="258"/>
      <point x="739" y="265"/>
      <point x="786" y="265" type="curve" smooth="yes"/>
      <point x="849" y="265"/>
      <point x="915" y="219"/>
    </contour>
    <contour>
      <point x="728" y="304" type="line"/>
      <point x="691" y="212" type="line"/>
      <point x="572" y="164" type="line"/>
      <point x="632" y="418" type="line"/>
      <point x="902" y="418" type="line"/>
      <point x="902" y="304" type="line"/>
    </contour>
  </outline>
</glyph>
<glyph name="fiveeighths" format="2">
  <advance width="1022"/>
  <unicode hex="215D"/>
  <outline>
    <contour>
      <point x="700" y="700" type="line"/>
      <point x="855" y="700" type="line"/>
      <point x="335" y="0" type="line"/>
      <point x="180" y="0" type="line"/>
    </contour>
    <contour>
      <point x="382" y="410" type="curve" smooth="yes"/>
      <point x="382" y="309"/>
      <point x="280" y="269"/>
      <point x="199" y="269" type="curve" smooth="yes"/>
      <point x="122" y="269"/>
      <point x="66" y="285"/>
      <point x="20" y="303" type="curve"/>
      <point x="57" y="420" type="line"/>
      <point x="100" y="396"/>
      <point x="141" y="389"/>
      <point x="163" y="389" type="curve" smooth="yes"/>
      <point x="208" y="389"/>
      <point x="237" y="397"/>
      <point x="237" y="428" type="curve" smooth="yes"/>
      <point x="237" y="459"/>
      <point x="196" y="464"/>
      <point x="163" y="464" type="curve" smooth="yes"/>
      <point x="135" y="464"/>
      <point x="82" y="460"/>
      <point x="39" y="444" type="curve"/>
      <point x="134" y="502" type="line"/>
      <point x="168" y="538"/>
      <point x="206" y="545"/>
      <point x="253" y="545" type="curve" smooth="yes"/>
      <point x="316" y="545"/>
      <point x="382" y="499"/>
    </contour>
    <contour>
      <point x="195" y="584" type="line"/>
      <point x="158" y="492" type="line"/>
      <point x="39" y="444" type="line"/>
      <point x="99" y="698" type="line"/>
      <point x="369" y="698" type="line"/>
      <point x="369" y="584" type="line"/>
    </contour>
    <contour>
      <point x="660" y="319" type="curve" smooth="yes"/>
      <point x="660" y="396"/>
      <point x="734" y="432"/>
      <point x="818" y="432" type="curve" smooth="yes"/>
      <point x="902" y="432"/>
      <point x="976" y="396"/>
      <point x="976" y="319" type="curve" smooth="yes"/>
      <point x="976" y="236"/>
      <point x="887" y="201"/>
      <point x="818" y="201" type="curve" smooth="yes"/>
      <point x="749" y="201"/>
      <point x="660" y="236"/>
    </contour>
    <contour>
      <point x="784" y="307" type="curve" smooth="yes"/>
      <point x="784" y="285"/>
      <point x="797" y="270"/>
      <point x="818" y="270" type="curve" smooth="yes"/>
      <point x="839" y="270"/>
      <point x="852" y="285"/>
      <point x="852" y="307" type="curve" smooth="yes"/>
      <point x="852" y="329"/>
      <point x="839" y="342"/>
      <point x="818" y="342" type="curve" smooth="yes"/>
      <point x="797" y="342"/>
      <point x="784" y="329"/>
    </contour>
    <contour>
      <point x="645" y="114" type="curve" smooth="yes"/>
      <point x="645" y="209"/>
      <point x="749" y="240"/>
      <point x="818" y="240" type="curve" smooth="yes"/>
      <point x="887" y="240"/>
      <point x="991" y="209"/>
      <point x="991" y="114" type="curve" smooth="yes"/>
      <point x="991" y="31"/>
      <point x="905" y="-12"/>
      <point x="818" y="-12" type="curve" smooth="yes"/>
      <point x="731" y="-12"/>
      <point x="645" y="31"/>
    </contour>
    <contour>
      <point x="778" y="135" type="curve" smooth="yes"/>
      <point x="778" y="107"/>
      <point x="794" y="93"/>
      <point x="818" y="93" type="curve" smooth="yes"/>
      <point x="842" y="93"/>
      <point x="858" y="107"/>
      <point x="858" y="135" type="curve" smooth="yes"/>
      <point x="858" y="157"/>
      <point x="842" y="174"/>
      <point x="818" y="174" type="curve" smooth="yes"/>
      <point x="794" y="174"/>
      <point x="778" y="157"/>
    </contour>
  </outline>
</glyph>
<glyph name="seveneighths" format="2">
  <advance width="912"/>
  <unicode hex="215E"/>
  <outline>
    <contour>
      <point x="580" y="700" type="line"/>
      <point x="735" y="700" type="line"/>
      <point x="215" y="0" type="line"/>
      <point x="60" y="0" type="line"/>
    </contour>
    <contour>
      <point x="19" y="577" type="line"/>
      <point x="19" y="700" type="line"/>
      <point x="391" y="700" type="line"/>
      <point x="187" y="280" type="line"/>
      <point x="44" y="280" type="line"/>
      <point x="198" y="577" type="line"/>
    </contour>
    <contour>
      <point x="550" y="319" type="curve" smooth="yes"/>
      <point x="550" y="396"/>
      <point x="624" y="432"/>
      <point x="708" y="432" type="curve" smooth="yes"/>
      <point x="792" y="432"/>
      <point x="866" y="396"/>
      <point x="866" y="319" type="curve" smooth="yes"/>
      <point x="866" y="236"/>
      <point x="777" y="201"/>
      <point x="708" y="201" type="curve" smooth="yes"/>
      <point x="639" y="201"/>
      <point x="550" y="236"/>
    </contour>
    <contour>
      <point x="674" y="307" type="curve" smooth="yes"/>
      <point x="674" y="285"/>
      <point x="687" y="270"/>
      <point x="708" y="270" type="curve" smooth="yes"/>
      <point x="729" y="270"/>
      <point x="742" y="285"/>
      <point x="742" y="307" type="curve" smooth="yes"/>
      <point x="742" y="329"/>
      <point x="729" y="342"/>
      <point x="708" y="342" type="curve" smooth="yes"/>
      <point x="687" y="342"/>
      <point x="674" y="329"/>
    </contour>
    <contour>
      <point x="535" y="114" type="curve" smooth="yes"/>
      <point x="535" y="209"/>
      <point x="639" y="240"/>
      <point x="708" y="240" type="curve" smooth="yes"/>
      <point x="777" y="240"/>
      <point x="881" y="209"/>
      <point x="881" y="114" type="curve" smooth="yes"/>
      <point x="881" y="31"/>
      <point x="795" y="-12"/>
      <point x="708" y="-12" type="curve" smooth="yes"/>
      <point x="621" y="-12"/>
      <point x="535" y="31"/>
    </contour>
    <contour>
      <point x="668" y="135" type="curve" smooth="yes"/>
      <point x="668" y="107"/>
      <point x="684" y="93"/>
      <point x="708" y="93" type="curve" smooth="yes"/>
      <point x="732" y="93"/>
      <point x="748" y="107"/>
      <point x="748" y="135" type="curve" smooth="yes"/>
      <point x="748" y="157"/>
      <point x="732" y="174"/>
      <point x="708" y="174" type="curve" smooth="yes"/>
      <point x="684" y="174"/>
      <point x="668" y="157"/>
    </contour>
  </outline>
</glyph>
<glyph name="uniFF13" format="2">
  <advance width="660"/>
  <unicode hex="FF13"/>
  <outline>
    <contour>
      <point x="275" y="335" type="curve"/>
      <point x="275" y="424" type="line"/>
      <point x="345" y="424"/>
      <point x="397" y="460"/>
      <point x="397" y="501" type="curve" smooth="yes"/>
      <point x="397" y="527"/>
      <point x="377" y="545"/>
      <point x="334" y="545" type="curve" smooth="yes"/>
      <point x="289" y="545"/>
      <point x="258" y="517"/>
      <point x="258" y="476" type="curve"/>
      <point x="57" y="476" type="line"/>
      <point x="57" y="610"/>
      <point x="165" y="715"/>
      <point x="335" y="715" type="curve" smooth="yes"/>
      <point x="515" y="715"/>
      <point x="613" y="630"/>
      <point x="613" y="516" type="curve" smooth="yes"/>
      <point x="613" y="382"/>
      <point x="460" y="335"/>
    </contour>
    <contour>
      <point x="325" y="-20" type="curve" smooth="yes"/>
      <point x="135" y="-20"/>
      <point x="27" y="111"/>
      <point x="27" y="245" type="curve"/>
      <point x="243" y="245" type="line"/>
      <point x="243" y="174"/>
      <point x="290" y="150"/>
      <point x="335" y="150" type="curve" smooth="yes"/>
      <point x="380" y="150"/>
      <point x="417" y="164"/>
      <point x="417" y="215" type="curve" smooth="yes"/>
      <point x="417" y="256"/>
      <point x="385" y="295"/>
      <point x="275" y="295" type="curve"/>
      <point x="275" y="399" type="line"/>
      <point x="490" y="399"/>
      <point x="633" y="339"/>
      <point x="633" y="195" type="curve" smooth="yes"/>
      <point x="633" y="71"/>
      <point x="525" y="-20"/>
    </contour>
  </outline>
</glyph>
<glyph name="uniFF15" format="2">
  <advance width="660"/>
  <unicode hex="FF15"/>
  <outline>
    <contour>
      <point x="626" y="220" type="curve" smooth="yes"/>
      <point x="626" y="51"/>
      <point x="456" y="-15"/>
      <point x="321" y="-15" type="curve" smooth="yes"/>
      <point x="192" y="-15"/>
      <point x="98" y="12"/>
      <point x="22" y="42" type="curve"/>
      <point x="84" y="236" type="line"/>
      <point x="155" y="196"/>
      <point x="224" y="185"/>
      <point x="261" y="185" type="curve" smooth="yes"/>
      <point x="336" y="185"/>
      <point x="383" y="199"/>
      <point x="383" y="250" type="curve" smooth="yes"/>
      <point x="383" y="301"/>
      <point x="316" y="310"/>
      <point x="261" y="310" type="curve" smooth="yes"/>
      <point x="214" y="310"/>
      <point x="124" y="304"/>
      <point x="53" y="277" type="curve"/>
      <point x="212" y="373" type="line"/>
      <point x="268" y="433"/>
      <point x="332" y="445"/>
      <point x="411" y="445" type="curve" smooth="yes"/>
      <point x="516" y="445"/>
      <point x="626" y="369"/>
    </contour>
    <contour>
      <point x="313" y="510" type="line"/>
      <point x="252" y="357" type="line"/>
      <point x="53" y="277" type="line"/>
      <point x="154" y="700" type="line"/>
      <point x="604" y="700" type="line"/>
      <point x="604" y="510" type="line"/>
    </contour>
  </outline>
</glyph>
<glyph name="uniFF18" format="2">
  <advance width="660"/>
  <unicode hex="FF18"/>
  <outline>
    <contour>
      <point x="87" y="531" type="curve" smooth="yes"/>
      <point x="87" y="660"/>
      <point x="210" y="720"/>
      <point x="350" y="720" type="curve" smooth="yes"/>
      <point x="490" y="720"/>
      <point x="613" y="660"/>
      <point x="613" y="531" type="curve" smooth="yes"/>
      <point x="613" y="392"/>
      <point x="465" y="335"/>
      <point x="350" y="335" type="curve" smooth="yes"/>
      <point x="235" y="335"/>
      <point x="87" y="392"/>
    </contour>
    <contour>
      <point x="293" y="511" type="curve" smooth="yes"/>
      <point x="293" y="475"/>
      <point x="315" y="450"/>
      <point x="350" y="450" type="curve" smooth="yes"/>
      <point x="385" y="450"/>
      <point x="407" y="475"/>
      <point x="407" y="511" type="curve" smooth="yes"/>
      <point x="407" y="547"/>
      <point x="385" y="570"/>
      <point x="350" y="570" type="curve" smooth="yes"/>
      <point x="315" y="570"/>
      <point x="293" y="547"/>
    </contour>
    <contour>
      <point x="62" y="190" type="curve" smooth="yes"/>
      <point x="62" y="349"/>
      <point x="235" y="400"/>
      <point x="350" y="400" type="curve" smooth="yes"/>
      <point x="465" y="400"/>
      <point x="638" y="349"/>
      <point x="638" y="190" type="curve" smooth="yes"/>
      <point x="638" y="51"/>
      <point x="495" y="-20"/>
      <point x="350" y="-20" type="curve" smooth="yes"/>
      <point x="205" y="-20"/>
      <point x="62" y="51"/>
    </contour>
    <contour>
      <point x="283" y="225" type="curve" smooth="yes"/>
      <point x="283" y="179"/>
      <point x="310" y="155"/>
      <point x="350" y="155" type="curve" smooth="yes"/>
      <point x="390" y="155"/>
      <point x="417" y="179"/>
      <point x="417" y="225" type="curve" smooth="yes"/>
      <point x="417" y="261"/>
      <point x="390" y="290"/>
      <point x="350" y="290" type="curve" smooth="yes"/>
      <point x="310" y="290"/>
      <point x="283" y="261"/>
    </contour>
  </outline>
</glyph>
